<?xml version="1.0" standalone="no"?>
 <!DOCTYPE svg PUBLIC "-//W3C//DTD SVG 1.1//EN" 
 "http://www.w3.org/Graphics/SVG/1.1/DTD/svg11.dtd"> 
<svg
  xmlns:svg="http://www.w3.org/2000/svg"
  xmlns="http://www.w3.org/2000/svg"
  xmlns:xlink="http://www.w3.org/1999/xlink"
  version="1.1"
  width="297.0022mm" height="210.0072mm" viewBox="0.0000 0.0000 297.0022 210.0072">
<title>SVG Image created as Day-2-B_Cu.svg date 2026/02/03 21:55:53 </title>
  <desc>Image generated by PCBNEW </desc>
<g style="fill:#000000; fill-opacity:1.0000;stroke:#000000; stroke-opacity:1.0000;
stroke-linecap:round; stroke-linejoin:round;"
 transform="translate(0 0) scale(1 1)">
</g>
<g style="fill:none; 
stroke:#000000; stroke-width:0.3000; stroke-opacity:1; 
stroke-linecap:round; stroke-linejoin:round;">
<text x="104.6000" y="58.1000"
transform="scale(-1 1) translate(-209.200000 0)"
textLength="9.9571" font-size="2.0000" lengthAdjust="spacingAndGlyphs"
text-anchor="start" opacity="0" stroke-opacity="0">Swarnim</text>
<g class="stroked-text"><desc>Swarnim</desc>
<path d="M104.1169 57.8294
L103.9026 57.9008
" />
<path d="M103.9026 57.9008
L103.5455 57.9008
" />
<path d="M103.5455 57.9008
L103.4026 57.8294
" />
<path d="M103.4026 57.8294
L103.3312 57.7580
" />
<path d="M103.3312 57.7580
L103.2598 57.6151
" />
<path d="M103.2598 57.6151
L103.2598 57.4723
" />
<path d="M103.2598 57.4723
L103.3312 57.3294
" />
<path d="M103.3312 57.3294
L103.4026 57.2580
" />
<path d="M103.4026 57.2580
L103.5455 57.1865
" />
<path d="M103.5455 57.1865
L103.8312 57.1151
" />
<path d="M103.8312 57.1151
L103.9741 57.0437
" />
<path d="M103.9741 57.0437
L104.0455 56.9723
" />
<path d="M104.0455 56.9723
L104.1169 56.8294
" />
<path d="M104.1169 56.8294
L104.1169 56.6865
" />
<path d="M104.1169 56.6865
L104.0455 56.5437
" />
<path d="M104.0455 56.5437
L103.9741 56.4723
" />
<path d="M103.9741 56.4723
L103.8312 56.4008
" />
<path d="M103.8312 56.4008
L103.4741 56.4008
" />
<path d="M103.4741 56.4008
L103.2598 56.4723
" />
<path d="M102.7598 56.9008
L102.4741 57.9008
" />
<path d="M102.4741 57.9008
L102.1883 57.1865
" />
<path d="M102.1883 57.1865
L101.9026 57.9008
" />
<path d="M101.9026 57.9008
L101.6169 56.9008
" />
<path d="M100.4026 57.9008
L100.4026 57.1151
" />
<path d="M100.4026 57.1151
L100.4741 56.9723
" />
<path d="M100.4741 56.9723
L100.6169 56.9008
" />
<path d="M100.6169 56.9008
L100.9026 56.9008
" />
<path d="M100.9026 56.9008
L101.0455 56.9723
" />
<path d="M100.4026 57.8294
L100.5455 57.9008
" />
<path d="M100.5455 57.9008
L100.9026 57.9008
" />
<path d="M100.9026 57.9008
L101.0455 57.8294
" />
<path d="M101.0455 57.8294
L101.1169 57.6865
" />
<path d="M101.1169 57.6865
L101.1169 57.5437
" />
<path d="M101.1169 57.5437
L101.0455 57.4008
" />
<path d="M101.0455 57.4008
L100.9026 57.3294
" />
<path d="M100.9026 57.3294
L100.5455 57.3294
" />
<path d="M100.5455 57.3294
L100.4026 57.2580
" />
<path d="M99.6883 57.9008
L99.6883 56.9008
" />
<path d="M99.6883 57.1865
L99.6169 57.0437
" />
<path d="M99.6169 57.0437
L99.5455 56.9723
" />
<path d="M99.5455 56.9723
L99.4026 56.9008
" />
<path d="M99.4026 56.9008
L99.2598 56.9008
" />
<path d="M98.7598 56.9008
L98.7598 57.9008
" />
<path d="M98.7598 57.0437
L98.6883 56.9723
" />
<path d="M98.6883 56.9723
L98.5455 56.9008
" />
<path d="M98.5455 56.9008
L98.3312 56.9008
" />
<path d="M98.3312 56.9008
L98.1883 56.9723
" />
<path d="M98.1883 56.9723
L98.1169 57.1151
" />
<path d="M98.1169 57.1151
L98.1169 57.9008
" />
<path d="M97.4026 57.9008
L97.4026 56.9008
" />
<path d="M97.4026 56.4008
L97.4741 56.4723
" />
<path d="M97.4741 56.4723
L97.4026 56.5437
" />
<path d="M97.4026 56.5437
L97.3312 56.4723
" />
<path d="M97.3312 56.4723
L97.4026 56.4008
" />
<path d="M97.4026 56.4008
L97.4026 56.5437
" />
<path d="M96.6883 57.9008
L96.6883 56.9008
" />
<path d="M96.6883 57.0437
L96.6169 56.9723
" />
<path d="M96.6169 56.9723
L96.4741 56.9008
" />
<path d="M96.4741 56.9008
L96.2598 56.9008
" />
<path d="M96.2598 56.9008
L96.1169 56.9723
" />
<path d="M96.1169 56.9723
L96.0455 57.1151
" />
<path d="M96.0455 57.1151
L96.0455 57.9008
" />
<path d="M96.0455 57.1151
L95.9741 56.9723
" />
<path d="M95.9741 56.9723
L95.8312 56.9008
" />
<path d="M95.8312 56.9008
L95.6169 56.9008
" />
<path d="M95.6169 56.9008
L95.4741 56.9723
" />
<path d="M95.4741 56.9723
L95.4026 57.1151
" />
<path d="M95.4026 57.1151
L95.4026 57.9008
" />
</g><path style="fill:#000000; fill-opacity:1.0000; stroke:none;fill-rule:evenodd;"
d="M 109.1000,66.9000
109.1000,65.1000
110.9000,65.1000
110.9000,66.9000
Z" /> 
</g>
<g style="fill:#000000; fill-opacity:1.0000; stroke:none;">
<circle cx="112.5400" cy="66.0000" r="0.9000" /> 
<path style="fill:#000000; fill-opacity:1.0000; stroke:none;fill-rule:evenodd;"
d="M 83.7400,87.8000
83.7400,89.6000
81.9400,89.6000
81.9400,87.8000
Z" /> 
</g>
<g style="fill:#000000; fill-opacity:1.0000; stroke:none;">
<circle cx="80.3000" cy="88.7000" r="0.9000" /> 
<path style="fill:#000000; fill-opacity:1.0000; stroke:none;fill-rule:evenodd;"
d="M 72.6400,77.6000
72.6400,79.4000
70.8400,79.4000
70.8400,77.6000
Z" /> 
</g>
<g style="fill:#000000; fill-opacity:1.0000; stroke:none;">
<circle cx="69.2000" cy="78.5000" r="0.9000" /> 
<path style="fill:#000000; fill-opacity:1.0000; stroke:none;fill-rule:evenodd;"
d="M 66.0400,65.3000
66.0400,67.1000
64.2400,67.1000
64.2400,65.3000
Z" /> 
</g>
<g style="fill:#000000; fill-opacity:1.0000; stroke:none;">
<circle cx="62.6000" cy="66.2000" r="0.9000" /> 
<path style="fill:#000000; fill-opacity:1.0000; stroke:none;fill-rule:evenodd;"
d="M 83.4400,73.2050
83.3443,73.1860
83.2632,73.1318
83.2090,73.0507
83.1900,72.9550
83.1900,71.8550
83.2090,71.7593
83.2632,71.6782
83.3443,71.6240
83.4400,71.6050
84.5400,71.6050
84.6357,71.6240
84.7168,71.6782
84.7710,71.7593
84.7900,71.8550
84.7900,72.9550
84.7710,73.0507
84.7168,73.1318
84.6357,73.1860
84.5400,73.2050
Z" /> 
</g>
<g style="fill:#000000; fill-opacity:1.0000; stroke:none;">
<circle cx="86.5300" cy="72.4050" r="0.8000" /> 
</g>
<g style="fill:#000000; fill-opacity:1.0000; stroke:none;">
<circle cx="89.0700" cy="72.4050" r="0.8000" /> 
</g>
<g style="fill:#000000; fill-opacity:1.0000; stroke:none;">
<circle cx="91.6100" cy="72.4050" r="0.8000" /> 
</g>
<g style="fill:#000000; fill-opacity:1.0000; stroke:none;">
<circle cx="91.6100" cy="64.7850" r="0.8000" /> 
</g>
<g style="fill:#000000; fill-opacity:1.0000; stroke:none;">
<circle cx="89.0700" cy="64.7850" r="0.8000" /> 
</g>
<g style="fill:#000000; fill-opacity:1.0000; stroke:none;">
<circle cx="86.5300" cy="64.7850" r="0.8000" /> 
</g>
<g style="fill:#000000; fill-opacity:1.0000; stroke:none;">
<circle cx="83.9900" cy="64.7850" r="0.8000" /> 
<path style="fill:#000000; fill-opacity:1.0000; stroke:none;fill-rule:evenodd;"
d="M 67.9700,71.9000
67.9700,73.7000
66.1700,73.7000
66.1700,71.9000
Z" /> 
</g>
<g style="fill:#000000; fill-opacity:1.0000; stroke:none;">
<circle cx="64.5300" cy="72.8000" r="0.9000" /> 
</g>
<g style="fill:#000000; fill-opacity:1.0000; stroke:none;">
<circle cx="82.2500" cy="81.3000" r="0.8000" /> 
</g>
<g style="fill:#000000; fill-opacity:1.0000; stroke:none;">
<circle cx="84.7500" cy="81.3000" r="0.8000" /> 
<path style="fill:#000000; fill-opacity:1.0000; stroke:none;fill-rule:evenodd;"
d="M 103.7000,53.7000
103.7000,51.9000
105.5000,51.9000
105.5000,53.7000
Z" /> 
</g>
<g style="fill:#000000; fill-opacity:1.0000; stroke:none;">
<circle cx="107.1400" cy="52.8000" r="0.9000" /> 
</g>
<g style="fill:#000000; fill-opacity:1.0000; stroke:none;">
<circle cx="87.1100" cy="75.2000" r="0.7000" /> 
</g>
<g style="fill:#000000; fill-opacity:1.0000; stroke:none;">
<circle cx="79.4900" cy="75.2000" r="0.7000" /> 
<path style="fill:#000000; fill-opacity:1.0000; stroke:none;fill-rule:evenodd;"
d="M 71.5400,52.3000
71.5400,54.1000
69.7400,54.1000
69.7400,52.3000
Z" /> 
</g>
<g style="fill:#000000; fill-opacity:1.0000; stroke:none;">
<circle cx="68.1000" cy="53.2000" r="0.9000" /> 
<path style="fill:#000000; fill-opacity:1.0000; stroke:none;fill-rule:evenodd;"
d="M 67.0400,57.9000
67.0400,59.7000
65.2400,59.7000
65.2400,57.9000
Z" /> 
</g>
<g style="fill:#000000; fill-opacity:1.0000; stroke:none;">
<circle cx="63.6000" cy="58.8000" r="0.9000" /> 
<path style="fill:#000000; fill-opacity:1.0000; stroke:none;fill-rule:evenodd;"
d="M 91.4300,89.5000
91.4300,87.7000
93.2300,87.7000
93.2300,89.5000
Z" /> 
</g>
<g style="fill:#000000; fill-opacity:1.0000; stroke:none;">
<circle cx="94.8700" cy="88.6000" r="0.9000" /> 
<path style="fill:#000000; fill-opacity:1.0000; stroke:none;fill-rule:evenodd;"
d="M 86.7000,91.0600
88.5000,91.0600
88.5000,92.8600
86.7000,92.8600
Z" /> 
</g>
<g style="fill:#000000; fill-opacity:1.0000; stroke:none;">
<circle cx="87.6000" cy="94.5000" r="0.9000" /> 
</g>
<g style="fill:#000000; fill-opacity:1.0000; stroke:none;">
<circle cx="72.4000" cy="64.8950" r="1.1700" /> 
</g>
<g style="fill:#000000; fill-opacity:1.0000; stroke:none;">
<circle cx="77.4000" cy="62.3950" r="1.1700" /> 
</g>
<g style="fill:#000000; fill-opacity:1.0000; stroke:none;">
<circle cx="72.4000" cy="59.8950" r="1.1700" /> 
<path style="fill:#000000; fill-opacity:1.0000; stroke:none;fill-rule:evenodd;"
d="M 102.6000,79.6000
102.6000,77.8000
104.4000,77.8000
104.4000,79.6000
Z" /> 
</g>
<g style="fill:#000000; fill-opacity:1.0000; stroke:none;">
<circle cx="106.0400" cy="78.7000" r="0.9000" /> 
<path style="fill:#000000; fill-opacity:1.0000; stroke:none;fill-rule:evenodd;"
d="M 88.5000,61.6700
86.7000,61.6700
86.7000,59.8700
88.5000,59.8700
Z" /> 
</g>
<g style="fill:#000000; fill-opacity:1.0000; stroke:none;">
<circle cx="87.6000" cy="58.2300" r="0.9000" /> 
<path style="fill:#000000; fill-opacity:1.0000; stroke:none;fill-rule:evenodd;"
d="M 97.0000,52.2000
97.0000,50.4000
98.8000,50.4000
98.8000,52.2000
Z" /> 
</g>
<g style="fill:#000000; fill-opacity:1.0000; stroke:none;">
<circle cx="100.4400" cy="51.3000" r="0.9000" /> 
<path style="fill:#000000; fill-opacity:1.0000; stroke:none;fill-rule:evenodd;"
d="M 93.1000,55.6000
91.3000,55.6000
91.3000,53.8000
93.1000,53.8000
Z" /> 
</g>
<g style="fill:#000000; fill-opacity:1.0000; stroke:none;">
<circle cx="92.2000" cy="52.1600" r="0.9000" /> 
</g>
<g style="fill:#000000; fill-opacity:1.0000; stroke:none;">
<circle cx="74.7300" cy="51.5000" r="0.9000" /> 
<path style="fill:#000000; fill-opacity:1.0000; stroke:none;fill-rule:evenodd;"
d="M 78.1700,50.6000
78.1700,52.4000
76.3700,52.4000
76.3700,50.6000
Z" /> 
<path style="fill:#000000; fill-opacity:1.0000; stroke:none;fill-rule:evenodd;"
d="M 97.5300,85.2000
97.5300,83.4000
99.3300,83.4000
99.3300,85.2000
Z" /> 
</g>
<g style="fill:#000000; fill-opacity:1.0000; stroke:none;">
<circle cx="100.9700" cy="84.3000" r="0.9000" /> 
<path style="fill:#000000; fill-opacity:1.0000; stroke:none;fill-rule:evenodd;"
d="M 95.3500,74.4750
95.3500,72.7750
97.0500,72.7750
97.0500,74.4750
Z" /> 
</g>
<g style="fill:#000000; fill-opacity:1.0000; stroke:none;">
<circle cx="96.2000" cy="76.1650" r="0.8500" /> 
</g>
<g style="fill:#000000; fill-opacity:1.0000; stroke:none;">
<circle cx="98.8900" cy="66.5000" r="0.7000" /> 
</g>
<g style="fill:#000000; fill-opacity:1.0000; stroke:none;">
<circle cx="106.5100" cy="66.5000" r="0.7000" /> 
<path style="fill:#000000; fill-opacity:1.0000; stroke:none;fill-rule:evenodd;"
d="M 83.9000,55.5000
82.1000,55.5000
82.1000,53.7000
83.9000,53.7000
Z" /> 
</g>
<g style="fill:#000000; fill-opacity:1.0000; stroke:none;">
<circle cx="83.0000" cy="52.0600" r="0.9000" /> 
<path style="fill:#000000; fill-opacity:1.0000; stroke:none;fill-rule:evenodd;"
d="M 107.2300,73.8000
107.2300,72.0000
109.0300,72.0000
109.0300,73.8000
Z" /> 
</g>
<g style="fill:#000000; fill-opacity:1.0000; stroke:none;">
<circle cx="110.6700" cy="72.9000" r="0.9000" /> 
<path style="fill:#000000; fill-opacity:1.0000; stroke:none;fill-rule:evenodd;"
d="M 95.8050,62.2500
95.8050,60.7500
96.8550,60.7500
96.8550,62.2500
Z" /> 
</g>
<g style="fill:none; 
stroke:#000000; stroke-width:1.0500; stroke-opacity:1; 
stroke-linecap:round; stroke-linejoin:round;">
<path d="M97.6000 61.2750
L97.6000 61.7250
" />
<path d="M98.8700 61.2750
L98.8700 61.7250
" />
<path style="fill:#000000; fill-opacity:1.0000; stroke:none;fill-rule:evenodd;"
d="M 77.6700,83.3000
77.6700,85.1000
75.8700,85.1000
75.8700,83.3000
Z" /> 
</g>
<g style="fill:#000000; fill-opacity:1.0000; stroke:none;">
<circle cx="74.2300" cy="84.2000" r="0.9000" /> 
<path style="fill:#000000; fill-opacity:1.0000; stroke:none;fill-rule:evenodd;"
d="M 108.1000,59.4000
108.1000,57.6000
109.9000,57.6000
109.9000,59.4000
Z" /> 
</g>
<g style="fill:#000000; fill-opacity:1.0000; stroke:none;">
<circle cx="111.5400" cy="58.5000" r="0.9000" /> 
</g>
<g style="fill:none; 
stroke:#000000; stroke-width:0.5000; stroke-opacity:1; 
stroke-linecap:round; stroke-linejoin:round;">
<path d="M81.0890 50.1490
L83.0000 52.0600
" />
<path d="M76.0810 50.1490
L81.0890 50.1490
" />
<path d="M74.7300 51.5000
L76.0810 50.1490
" />
<path d="M69.8000 51.5000
L74.7300 51.5000
" />
<path d="M68.1000 53.2000
L69.8000 51.5000
" />
<path d="M68.1000 54.3000
L68.1000 53.2000
" />
<path d="M63.6000 58.8000
L68.1000 54.3000
" />
<path d="M63.6000 65.2000
L63.6000 58.8000
" />
<path d="M62.6000 66.2000
L63.6000 65.2000
" />
<path d="M64.5300 68.1300
L62.6000 66.2000
" />
<path d="M64.5300 72.8000
L64.5300 68.1300
" />
<path d="M69.2000 77.4700
L64.5300 72.8000
" />
<path d="M69.2000 78.5000
L69.2000 77.4700
" />
<path d="M69.2000 79.1700
L69.2000 78.5000
" />
<path d="M74.2300 84.2000
L69.2000 79.1700
" />
<path d="M78.7300 88.7000
L74.2300 84.2000
" />
<path d="M80.3000 88.7000
L78.7300 88.7000
" />
<path d="M86.1000 94.5000
L80.3000 88.7000
" />
<path d="M87.6000 94.5000
L86.1000 94.5000
" />
<path d="M88.9700 94.5000
L87.6000 94.5000
" />
<path d="M94.8700 88.6000
L88.9700 94.5000
" />
<path d="M96.6700 88.6000
L94.8700 88.6000
" />
<path d="M100.9700 84.3000
L96.6700 88.6000
" />
<path d="M106.0400 79.2300
L100.9700 84.3000
" />
<path d="M106.0400 78.7000
L106.0400 79.2300
" />
<path d="M106.0400 77.5300
L106.0400 78.7000
" />
<path d="M110.6700 72.9000
L106.0400 77.5300
" />
<path d="M112.5400 71.0300
L110.6700 72.9000
" />
<path d="M112.5400 66.0000
L112.5400 71.0300
" />
<path d="M111.5400 65.0000
L112.5400 66.0000
" />
<path d="M111.5400 58.5000
L111.5400 65.0000
" />
<path d="M107.1400 54.1000
L111.5400 58.5000
" />
<path d="M107.1400 52.8000
L107.1400 54.1000
" />
<path d="M105.6400 51.3000
L107.1400 52.8000
" />
<path d="M100.4400 51.3000
L105.6400 51.3000
" />
<path d="M99.0890 49.9490
L100.4400 51.3000
" />
<path d="M94.4110 49.9490
L99.0890 49.9490
" />
<path d="M92.2000 52.1600
L94.4110 49.9490
" />
<path d="M87.6000 56.7600
L92.2000 52.1600
" />
<path d="M87.6000 58.2300
L87.6000 56.7600
" />
<path d="M87.6000 56.6600
L87.6000 58.2300
" />
<path d="M83.0000 52.0600
L87.6000 56.6600
" />
<path d="M77.4000 62.3950
L77.4000 69.6000
" />
<path d="M97.6000 66.7000
L97.6000 70.5000
" />
<path d="M94.1000 63.2000
L97.6000 66.7000
" />
<path d="M97.6000 70.5000
L100.7000 73.6000
" />
<path d="M97.6000 65.2000
L97.6000 66.7000
" />
<path d="M82.9500 77.9000
L82.2500 78.6000
" />
<path d="M100.7000 76.8000
L96.9000 80.6000
" />
<path d="M82.4000 74.4000
L84.5350 74.4000
" />
<path d="M90.5842 80.6000
L87.8842 77.9000
" />
<path d="M90.6550 63.2000
L94.1000 63.2000
" />
<path d="M82.4500 74.4500
L82.4000 74.4000
" />
<path d="M84.5350 74.4000
L86.5300 72.4050
" />
<path d="M82.2500 78.6000
L82.2500 74.4500
" />
<path d="M89.0700 64.7850
L90.6550 63.2000
" />
<path d="M100.7000 73.6000
L100.7000 76.8000
" />
<path d="M87.8842 77.9000
L82.9500 77.9000
" />
<path d="M97.6000 61.5000
L97.6000 65.2000
" />
<path d="M82.2000 74.4000
L82.4000 74.4000
" />
<path d="M77.4000 69.6000
L82.2000 74.4000
" />
<path d="M82.2500 81.3000
L82.2500 78.6000
" />
<path d="M82.2500 74.4500
L82.2000 74.4000
" />
<path d="M96.9000 80.6000
L90.5842 80.6000
" />
<path d="M71.2700 52.5000
L71.2700 53.2700
" />
<path d="M100.6700 50.6000
L99.7700 51.5000
" />
<path d="M78.0400 51.0000
L77.8000 51.0000
" />
<path d="M77.8000 51.0000
L77.6000 51.2000
" />
<path d="M89.1000 68.6000
L91.6100 71.1100
" />
<path d="M96.2000 73.6250
L92.8300 73.6250
" />
<path d="M83.9900 63.6100
L83.9900 64.7850
" />
<path d="M91.6100 71.1100
L91.6100 72.4050
" />
<path d="M96.3300 61.5000
L90.6000 61.5000
" />
<path d="M90.6000 61.5000
L89.3000 62.8000
" />
<path d="M84.8000 62.8000
L83.9900 63.6100
" />
<path d="M89.3000 62.8000
L84.8000 62.8000
" />
<path d="M96.3750 73.6250
L96.6000 73.4000
" />
<path d="M85.9000 68.6000
L89.1000 68.6000
" />
<path d="M83.9900 64.7850
L83.9900 66.6900
" />
<path d="M92.8300 73.6250
L91.6100 72.4050
" />
<path d="M83.9900 66.6900
L85.9000 68.6000
" />
<path d="M96.2000 73.6250
L96.3750 73.6250
" />
<path d="M98.8900 66.5000
L98.8900 61.5200
" />
<path d="M98.8900 61.5200
L98.8700 61.5000
" />
<path d="M72.4000 68.1100
L72.4000 64.8950
" />
<path d="M79.4900 75.2000
L72.4000 68.1100
" />
<path d="M87.1100 75.2000
L87.1100 74.3650
" />
<path d="M87.1100 74.3650
L89.0700 72.4050
" />
<path style="fill:#000000; fill-opacity:1.0000; stroke:none;fill-rule:evenodd;"
d="M 96.4430,50.7192
96.4888,50.7720
96.5000,50.8235
96.5000,51.0500
97.5247,51.0500
97.4807,51.1263
97.4500,51.2408
97.4500,51.3592
97.4807,51.4737
97.5247,51.5500
96.5000,51.5500
96.5000,52.2478
96.5064,52.3074
96.5064,52.3074
96.5566,52.4421
96.5566,52.4421
96.6428,52.5572
96.6428,52.5572
96.7579,52.6433
96.7579,52.6434
96.8926,52.6936
96.8926,52.6936
96.9522,52.7000
96.9522,52.7000
97.6500,52.7000
97.6500,51.6753
97.7263,51.7193
97.8408,51.7500
97.9592,51.7500
98.0737,51.7193
98.1500,51.6753
98.1500,52.7000
98.8478,52.7000
98.8478,52.7000
98.9074,52.6936
98.9074,52.6936
99.0421,52.6434
99.0421,52.6433
99.1572,52.5572
99.1572,52.5572
99.2433,52.4421
99.2434,52.4421
99.2732,52.3620
99.3151,52.3061
99.3805,52.2817
99.4488,52.2965
99.4771,52.3177
99.5276,52.3682
99.5276,52.3682
99.6372,52.4478
99.7060,52.4978
99.7712,52.5311
99.9024,52.5979
99.9024,52.5979
99.9898,52.6263
100.1120,52.6660
100.3298,52.7005
100.3298,52.7005
100.5502,52.7005
100.5502,52.7005
100.7680,52.6660
100.9776,52.5979
101.1740,52.4978
101.3524,52.3682
101.5082,52.2124
101.5887,52.1016
101.6440,52.0589
101.6890,52.0505
103.0760,52.0505
103.1430,52.0702
103.1888,52.1230
103.2000,52.1745
103.2000,52.5500
104.2247,52.5500
104.1807,52.6263
104.1500,52.7408
104.1500,52.8592
104.1807,52.9737
104.2247,53.0500
103.2000,53.0500
103.2000,53.7478
103.2064,53.8074
103.2064,53.8074
103.2566,53.9421
103.2566,53.9421
103.3428,54.0572
103.3428,54.0572
103.4579,54.1433
103.4579,54.1434
103.5926,54.1936
103.5926,54.1936
103.6522,54.2000
103.6522,54.2000
104.3500,54.2000
104.3500,53.1753
104.4263,53.2193
104.5408,53.2500
104.6592,53.2500
104.7737,53.2193
104.8500,53.1753
104.8500,54.2000
105.5478,54.2000
105.5478,54.2000
105.6074,54.1936
105.6074,54.1936
105.7421,54.1434
105.7421,54.1433
105.8572,54.0572
105.8572,54.0572
105.9433,53.9421
105.9434,53.9421
105.9732,53.8620
105.9905,53.8389
106.0054,53.8141
106.0112,53.8113
106.0151,53.8061
106.0422,53.7960
106.0681,53.7832
106.0745,53.7839
106.0805,53.7817
106.1088,53.7878
106.1375,53.7911
106.1441,53.7955
106.1488,53.7965
106.1678,53.8093
106.1726,53.8132
106.2276,53.8682
106.3412,53.9507
106.3439,53.9529
106.3618,53.9790
106.3811,54.0040
106.3819,54.0083
106.3834,54.0106
106.3836,54.0176
106.3895,54.0490
106.3895,54.1739
106.3895,54.1739
106.3895,54.1739
106.4183,54.3189
106.4183,54.3189
106.4749,54.4555
106.4749,54.4555
106.5032,54.4979
106.5032,54.4979
106.5570,54.5784
106.5570,54.5784
106.5570,54.5784
108.0786,56.1000
108.8670,56.8883
108.9004,56.9496
108.8955,57.0193
108.8536,57.0753
108.7881,57.0997
108.7793,57.1000
108.0522,57.1000
107.9926,57.1064
107.9926,57.1064
107.8579,57.1566
107.8579,57.1566
107.7428,57.2428
107.7428,57.2428
107.6566,57.3579
107.6566,57.3579
107.6064,57.4926
107.6064,57.4926
107.6000,57.5522
107.6000,58.2500
108.6247,58.2500
108.5807,58.3263
108.5500,58.4408
108.5500,58.5592
108.5807,58.6737
108.6247,58.7500
107.6000,58.7500
107.6000,59.4478
107.6064,59.5074
107.6064,59.5074
107.6566,59.6421
107.6566,59.6421
107.7428,59.7572
107.7428,59.7572
107.8579,59.8433
107.8579,59.8434
107.9926,59.8936
107.9926,59.8936
108.0522,59.9000
108.0522,59.9000
108.7500,59.9000
108.7500,58.8753
108.8263,58.9193
108.9408,58.9500
109.0592,58.9500
109.1737,58.9193
109.2500,58.8753
109.2500,59.9000
109.9478,59.9000
109.9478,59.9000
110.0074,59.8936
110.0074,59.8936
110.1421,59.8434
110.1421,59.8433
110.2572,59.7572
110.2572,59.7572
110.3434,59.6421
110.3434,59.6421
110.3732,59.5620
110.3905,59.5389
110.4054,59.5141
110.4112,59.5113
110.4151,59.5061
110.4422,59.4960
110.4681,59.4832
110.4745,59.4839
110.4805,59.4817
110.5088,59.4878
110.5375,59.4911
110.5441,59.4955
110.5488,59.4965
110.5678,59.5093
110.5726,59.5132
110.6276,59.5682
110.7412,59.6507
110.7439,59.6529
110.7618,59.6790
110.7811,59.7040
110.7819,59.7083
110.7834,59.7106
110.7836,59.7176
110.7895,59.7490
110.7895,64.4760
110.7698,64.5430
110.7170,64.5888
110.6655,64.6000
110.2500,64.6000
110.2500,65.6247
110.1737,65.5807
110.0592,65.5500
109.9408,65.5500
109.8263,65.5807
109.7500,65.6247
109.7500,64.6000
109.0522,64.6000
108.9926,64.6064
108.9926,64.6064
108.8579,64.6566
108.8579,64.6566
108.7428,64.7428
108.7428,64.7428
108.6566,64.8579
108.6566,64.8579
108.6064,64.9926
108.6064,64.9926
108.6000,65.0522
108.6000,65.7500
109.6247,65.7500
109.5807,65.8263
109.5500,65.9408
109.5500,66.0592
109.5807,66.1737
109.6247,66.2500
108.6000,66.2500
108.6000,66.9478
108.6064,67.0074
108.6064,67.0074
108.6566,67.1421
108.6566,67.1421
108.7428,67.2572
108.7428,67.2572
108.8579,67.3434
108.8579,67.3434
108.9926,67.3936
108.9926,67.3936
109.0522,67.4000
109.0522,67.4000
109.7500,67.4000
109.7500,66.3753
109.8263,66.4193
109.9408,66.4500
110.0592,66.4500
110.1737,66.4193
110.2500,66.3753
110.2500,67.4000
110.9478,67.4000
110.9478,67.4000
111.0074,67.3936
111.0074,67.3936
111.1421,67.3434
111.1421,67.3434
111.2572,67.2572
111.2572,67.2572
111.3434,67.1421
111.3434,67.1421
111.3732,67.0620
111.3905,67.0389
111.4054,67.0141
111.4112,67.0113
111.4151,67.0061
111.4422,66.9960
111.4681,66.9832
111.4745,66.9839
111.4805,66.9817
111.5088,66.9878
111.5375,66.9911
111.5441,66.9955
111.5488,66.9965
111.5678,67.0093
111.5726,67.0132
111.6276,67.0682
111.7412,67.1507
111.7439,67.1529
111.7618,67.1790
111.7811,67.2040
111.7819,67.2083
111.7834,67.2106
111.7836,67.2176
111.7895,67.2490
111.7895,70.6678
111.7698,70.7348
111.7532,70.7554
111.0225,71.4861
110.9612,71.5196
110.9154,71.5209
110.7802,71.4995
110.7802,71.4995
110.5598,71.4995
110.5035,71.5084
110.3420,71.5340
110.1324,71.6021
110.1324,71.6021
109.9360,71.7022
109.7576,71.8318
109.7576,71.8318
109.7071,71.8823
109.6458,71.9158
109.5761,71.9108
109.5201,71.8689
109.5032,71.8380
109.4734,71.7579
109.4733,71.7579
109.3872,71.6428
109.3872,71.6428
109.2721,71.5566
109.2721,71.5566
109.1374,71.5064
109.1374,71.5064
109.0778,71.5000
108.3800,71.5000
108.3800,72.5247
108.3037,72.4807
108.1892,72.4500
108.0708,72.4500
107.9563,72.4807
107.8800,72.5247
107.8800,71.5000
107.1822,71.5000
107.1226,71.5064
107.1226,71.5064
106.9879,71.5566
106.9879,71.5566
106.8728,71.6428
106.8728,71.6428
106.7866,71.7579
106.7866,71.7579
106.7364,71.8926
106.7364,71.8926
106.7300,71.9522
106.7300,72.6500
107.7547,72.6500
107.7107,72.7263
107.6800,72.8408
107.6800,72.9592
107.7107,73.0737
107.7547,73.1500
106.7300,73.1500
106.7300,73.8478
106.7364,73.9074
106.7364,73.9074
106.7866,74.0421
106.7866,74.0421
106.8728,74.1572
106.8728,74.1572
106.9879,74.2433
106.9879,74.2434
107.1226,74.2936
107.1226,74.2936
107.1822,74.3000
107.1822,74.3000
107.9093,74.3000
107.9763,74.3197
108.0221,74.3725
108.0320,74.4416
108.0030,74.5052
107.9969,74.5117
105.4570,77.0516
105.4570,77.0516
105.4078,77.1253
105.4078,77.1253
105.3749,77.1745
105.3749,77.1745
105.3183,77.3111
105.3183,77.3111
105.2895,77.4561
105.2889,77.4621
105.2871,77.4620
105.2792,77.4862
105.2698,77.5180
105.2682,77.5198
105.2678,77.5211
105.2592,77.5299
105.2439,77.5471
105.2412,77.5493
105.1276,77.6318
105.0726,77.6867
105.0678,77.6907
105.0411,77.7019
105.0158,77.7158
105.0093,77.7153
105.0034,77.7178
104.9749,77.7129
104.9461,77.7108
104.9409,77.7070
104.9346,77.7058
104.9133,77.6863
104.8901,77.6689
104.8858,77.6610
104.8831,77.6585
104.8819,77.6539
104.8732,77.6380
104.8434,77.5579
104.8434,77.5579
104.7572,77.4428
104.7572,77.4428
104.6421,77.3566
104.6421,77.3566
104.5074,77.3064
104.5074,77.3064
104.4478,77.3000
103.7500,77.3000
103.7500,78.3247
103.6737,78.2807
103.5592,78.2500
103.4408,78.2500
103.3263,78.2807
103.2500,78.3247
103.2500,77.3000
102.5522,77.3000
102.4926,77.3064
102.4926,77.3064
102.3579,77.3566
102.3579,77.3566
102.2428,77.4428
102.2428,77.4428
102.1566,77.5579
102.1566,77.5579
102.1064,77.6926
102.1064,77.6926
102.1000,77.7522
102.1000,78.4500
103.1247,78.4500
103.0807,78.5263
103.0500,78.6408
103.0500,78.7592
103.0807,78.8737
103.1247,78.9500
102.1000,78.9500
102.1000,79.6478
102.1064,79.7074
102.1064,79.7074
102.1566,79.8421
102.1566,79.8421
102.2428,79.9572
102.2428,79.9572
102.3579,80.0433
102.3579,80.0434
102.4926,80.0936
102.4926,80.0936
102.5522,80.1000
102.5522,80.1000
103.2500,80.1000
103.2500,79.0753
103.3263,79.1193
103.4408,79.1500
103.5592,79.1500
103.6737,79.1193
103.7500,79.0753
103.7500,80.1000
103.8093,80.1000
103.8763,80.1197
103.9221,80.1725
103.9320,80.2416
103.9030,80.3052
103.8969,80.3117
101.3225,82.8861
101.2612,82.9196
101.2154,82.9209
101.0802,82.8995
101.0802,82.8995
100.8598,82.8995
100.7872,82.9110
100.6420,82.9340
100.4324,83.0021
100.4324,83.0021
100.2360,83.1022
100.0576,83.2318
100.0576,83.2318
100.0071,83.2823
99.9458,83.3158
99.8761,83.3108
99.8201,83.2689
99.8032,83.2380
99.7734,83.1579
99.7733,83.1579
99.6872,83.0428
99.6872,83.0428
99.5721,82.9566
99.5721,82.9566
99.4374,82.9064
99.4374,82.9064
99.3778,82.9000
98.6800,82.9000
98.6800,83.9247
98.6037,83.8807
98.4892,83.8500
98.3708,83.8500
98.2563,83.8807
98.1800,83.9247
98.1800,82.9000
97.4822,82.9000
97.4226,82.9064
97.4226,82.9064
97.2879,82.9566
97.2879,82.9566
97.1728,83.0428
97.1728,83.0428
97.0866,83.1579
97.0866,83.1579
97.0364,83.2926
97.0364,83.2926
97.0300,83.3522
97.0300,84.0500
98.0547,84.0500
98.0107,84.1263
97.9800,84.2408
97.9800,84.3592
98.0107,84.4737
98.0547,84.5500
97.0300,84.5500
97.0300,85.2478
97.0364,85.3074
97.0364,85.3074
97.0866,85.4421
97.0866,85.4421
97.1728,85.5572
97.1728,85.5572
97.2879,85.6433
97.2879,85.6434
97.4226,85.6936
97.4226,85.6936
97.4822,85.7000
97.4822,85.7000
98.2093,85.7000
98.2763,85.7197
98.3221,85.7725
98.3320,85.8416
98.3030,85.9052
98.2970,85.9117
96.3955,87.8132
96.3685,87.8279
96.3427,87.8445
96.3365,87.8454
96.3341,87.8467
96.3078,87.8495
96.1190,87.8495
96.0520,87.8298
96.0187,87.7984
95.9382,87.6876
95.7824,87.5318
95.7824,87.5318
95.6040,87.4022
95.6040,87.4022
95.6040,87.4022
95.5146,87.3566
95.4076,87.3021
95.4076,87.3021
95.1980,87.2340
95.0891,87.2167
94.9802,87.1995
94.7598,87.1995
94.6872,87.2110
94.5420,87.2340
94.3324,87.3021
94.3324,87.3021
94.1360,87.4022
93.9576,87.5318
93.9576,87.5318
93.9071,87.5823
93.8458,87.6158
93.7761,87.6108
93.7201,87.5689
93.7032,87.5380
93.6734,87.4579
93.6733,87.4579
93.5872,87.3428
93.5872,87.3428
93.4721,87.2566
93.4721,87.2566
93.3374,87.2064
93.3374,87.2064
93.2778,87.2000
92.5800,87.2000
92.5800,88.2247
92.5037,88.1807
92.3892,88.1500
92.2708,88.1500
92.1563,88.1807
92.0800,88.2247
92.0800,87.2000
91.3822,87.2000
91.3226,87.2064
91.3226,87.2064
91.1879,87.2566
91.1879,87.2566
91.0728,87.3428
91.0728,87.3428
90.9866,87.4579
90.9866,87.4579
90.9364,87.5926
90.9364,87.5926
90.9300,87.6522
90.9300,88.3500
91.9547,88.3500
91.9107,88.4263
91.8800,88.5408
91.8800,88.6592
91.9107,88.7737
91.9547,88.8500
90.9300,88.8500
90.9300,89.5478
90.9364,89.6074
90.9364,89.6074
90.9866,89.7421
90.9866,89.7421
91.0728,89.8572
91.0728,89.8572
91.1879,89.9433
91.1879,89.9434
91.3226,89.9936
91.3226,89.9936
91.3822,90.0000
91.3822,90.0000
92.1093,90.0000
92.1763,90.0197
92.2221,90.0725
92.2320,90.1416
92.2030,90.2052
92.1970,90.2117
89.0879,93.3208
89.0265,93.3542
88.9569,93.3493
88.9009,93.3074
88.8765,93.2419
88.8914,93.1737
88.9009,93.1588
88.9434,93.1021
88.9434,93.1021
88.9936,92.9674
88.9936,92.9674
89.0000,92.9078
89.0000,92.9078
89.0000,92.2100
87.9753,92.2100
88.0193,92.1337
88.0500,92.0192
88.0500,91.9008
88.0193,91.7863
87.9753,91.7100
89.0000,91.7100
89.0000,91.0122
89.0000,91.0122
88.9936,90.9526
88.9936,90.9526
88.9434,90.8179
88.9433,90.8179
88.8572,90.7028
88.8572,90.7028
88.7421,90.6166
88.7421,90.6166
88.6074,90.5664
88.6074,90.5664
88.5478,90.5600
87.8500,90.5600
87.8500,91.5847
87.7737,91.5407
87.6592,91.5100
87.5408,91.5100
87.4263,91.5407
87.3500,91.5847
87.3500,90.5600
86.6522,90.5600
86.5926,90.5664
86.5926,90.5664
86.4579,90.6166
86.4579,90.6166
86.3428,90.7028
86.3428,90.7028
86.2566,90.8179
86.2566,90.8179
86.2064,90.9526
86.2064,90.9526
86.2000,91.0122
86.2000,91.7100
87.2247,91.7100
87.1807,91.7863
87.1500,91.9008
87.1500,92.0192
87.1807,92.1337
87.2247,92.2100
86.2000,92.2100
86.2000,92.9078
86.2064,92.9674
86.2064,92.9674
86.2566,93.1021
86.2566,93.1021
86.3428,93.2172
86.3428,93.2172
86.4579,93.3033
86.4579,93.3034
86.5380,93.3332
86.5626,93.3516
86.5884,93.3682
86.5903,93.3724
86.5939,93.3751
86.6046,93.4039
86.6174,93.4318
86.6167,93.4363
86.6183,93.4405
86.6118,93.4706
86.6074,93.5010
86.6042,93.5056
86.6035,93.5088
86.5883,93.5306
86.5854,93.5340
86.5318,93.5876
86.4950,93.6383
86.4915,93.6423
86.4664,93.6584
86.4428,93.6766
86.4373,93.6771
86.4327,93.6801
86.4029,93.6800
86.3732,93.6826
86.3683,93.6800
86.3628,93.6800
86.3377,93.6639
86.3114,93.6500
86.3101,93.6487
83.7579,91.0965
82.9730,90.3117
82.9396,90.2504
82.9445,90.1807
82.9864,90.1247
83.0519,90.1003
83.0607,90.1000
83.7878,90.1000
83.7878,90.1000
83.8474,90.0936
83.8474,90.0936
83.9821,90.0434
83.9821,90.0433
84.0972,89.9572
84.0972,89.9572
84.1833,89.8421
84.1834,89.8421
84.2336,89.7074
84.2336,89.7074
84.2400,89.6478
84.2400,89.6478
84.2400,88.9500
83.2153,88.9500
83.2593,88.8737
83.2900,88.7592
83.2900,88.6408
83.2593,88.5263
83.2153,88.4500
84.2400,88.4500
84.2400,87.7522
84.2400,87.7522
84.2336,87.6926
84.2336,87.6926
84.2334,87.6922
84.2334,87.6922
84.1834,87.5579
84.1833,87.5579
84.0972,87.4428
84.0972,87.4428
83.9821,87.3566
83.9821,87.3566
83.8474,87.3064
83.8474,87.3064
83.7878,87.3000
83.0900,87.3000
83.0900,88.3247
83.0137,88.2807
82.8992,88.2500
82.7808,88.2500
82.6663,88.2807
82.5900,88.3247
82.5900,87.3000
81.8922,87.3000
81.8326,87.3064
81.8326,87.3064
81.6979,87.3566
81.6979,87.3566
81.5828,87.4428
81.5828,87.4428
81.4966,87.5579
81.4966,87.5579
81.4668,87.6380
81.4249,87.6939
81.3594,87.7183
81.2912,87.7035
81.2629,87.6823
81.2124,87.6318
81.2124,87.6318
81.0340,87.5022
81.0340,87.5022
81.0340,87.5022
80.9711,87.4701
80.8376,87.4021
80.8376,87.4021
80.6280,87.3340
80.5191,87.3167
80.4102,87.2995
80.1898,87.2995
80.1172,87.3110
79.9720,87.3340
79.7624,87.4021
79.7624,87.4021
79.5660,87.5022
79.3876,87.6318
79.3876,87.6318
79.2318,87.7876
79.2318,87.7876
79.1687,87.8745
79.1133,87.9172
79.0437,87.9231
78.9819,87.8905
78.9807,87.8893
76.9030,85.8117
76.8696,85.7504
76.8745,85.6807
76.9164,85.6247
76.9819,85.6003
76.9907,85.6000
77.7178,85.6000
77.7178,85.6000
77.7774,85.5936
77.7774,85.5936
77.9121,85.5434
77.9121,85.5433
78.0272,85.4572
78.0272,85.4572
78.1133,85.3421
78.1134,85.3421
78.1636,85.2074
78.1636,85.2074
78.1700,85.1478
78.1700,85.1478
78.1700,84.4500
77.1453,84.4500
77.1893,84.3737
77.2200,84.2592
77.2200,84.1408
77.1893,84.0263
77.1453,83.9500
78.1700,83.9500
78.1700,83.2522
78.1700,83.2522
78.1636,83.1926
78.1636,83.1926
78.1134,83.0579
78.1133,83.0579
78.0272,82.9428
78.0272,82.9428
77.9121,82.8566
77.9121,82.8566
77.7774,82.8064
77.7774,82.8064
77.7178,82.8000
77.0200,82.8000
77.0200,83.8247
76.9437,83.7807
76.8292,83.7500
76.7108,83.7500
76.5963,83.7807
76.5200,83.8247
76.5200,82.8000
75.8222,82.8000
75.7626,82.8064
75.7626,82.8064
75.6279,82.8566
75.6279,82.8566
75.5128,82.9428
75.5128,82.9428
75.4266,83.0579
75.4266,83.0579
75.3968,83.1380
75.3549,83.1939
75.2894,83.2183
75.2212,83.2035
75.1929,83.1823
75.1424,83.1318
75.1424,83.1318
74.9640,83.0022
74.9640,83.0022
74.9640,83.0022
74.8746,82.9566
74.7676,82.9021
74.7676,82.9021
74.5580,82.8340
74.4491,82.8167
74.3402,82.7995
74.1198,82.7995
74.1198,82.7995
73.9846,82.8209
73.9153,82.8120
73.8775,82.7861
71.2030,80.1117
71.1696,80.0504
71.1745,79.9807
71.2164,79.9247
71.2819,79.9003
71.2907,79.9000
71.4900,79.9000
71.4900,78.8753
71.5663,78.9193
71.6808,78.9500
71.7992,78.9500
71.9137,78.9193
71.9900,78.8753
71.9900,79.9000
72.6878,79.9000
72.6878,79.9000
72.7474,79.8936
72.7474,79.8936
72.8821,79.8434
72.8821,79.8434
72.9972,79.7572
72.9972,79.7572
73.0833,79.6421
73.0834,79.6421
73.1336,79.5074
73.1336,79.5074
73.1400,79.4478
73.1400,79.4478
73.1400,78.7500
72.1153,78.7500
72.1593,78.6737
72.1900,78.5592
72.1900,78.4408
72.1593,78.3263
72.1153,78.2500
73.1400,78.2500
73.1400,77.5522
73.1400,77.5522
73.1336,77.4926
73.1336,77.4926
73.0834,77.3579
73.0833,77.3579
72.9972,77.2428
72.9972,77.2428
72.8821,77.1566
72.8821,77.1566
72.7474,77.1064
72.7474,77.1064
72.6878,77.1000
71.9900,77.1000
71.9900,78.1247
71.9137,78.0807
71.7992,78.0500
71.6808,78.0500
71.5663,78.0807
71.4900,78.1247
71.4900,77.1000
70.7922,77.1000
70.7326,77.1064
70.7326,77.1064
70.5979,77.1566
70.5979,77.1566
70.4828,77.2428
70.4828,77.2428
70.3966,77.3579
70.3966,77.3579
70.3668,77.4380
70.3249,77.4939
70.2594,77.5183
70.1912,77.5035
70.1629,77.4823
70.1124,77.4318
69.9707,77.3288
69.9280,77.2735
69.9220,77.2527
69.9217,77.2511
69.8915,77.1783
69.8651,77.1145
69.8651,77.1145
69.7830,76.9916
69.7830,76.9916
69.6784,76.8870
68.4522,75.6608
67.2030,74.4117
67.1696,74.3504
67.1745,74.2807
67.2164,74.2247
67.2819,74.2003
67.2907,74.2000
68.0178,74.2000
68.0178,74.2000
68.0774,74.1936
68.0774,74.1936
68.2121,74.1434
68.2121,74.1433
68.3272,74.0572
68.3272,74.0572
68.4133,73.9421
68.4134,73.9421
68.4636,73.8074
68.4636,73.8074
68.4700,73.7478
68.4700,73.7478
68.4700,73.0500
67.4453,73.0500
67.4893,72.9737
67.5200,72.8592
67.5200,72.7408
67.4893,72.6263
67.4453,72.5500
68.4700,72.5500
68.4700,71.8522
68.4700,71.8522
68.4636,71.7926
68.4636,71.7926
68.4134,71.6579
68.4133,71.6579
68.3272,71.5428
68.3272,71.5428
68.2121,71.4566
68.2121,71.4566
68.0774,71.4064
68.0774,71.4064
68.0178,71.4000
67.3200,71.4000
67.3200,72.4247
67.2437,72.3807
67.1292,72.3500
67.0108,72.3500
66.8963,72.3807
66.8200,72.4247
66.8200,71.4000
66.1222,71.4000
66.0626,71.4064
66.0626,71.4064
65.9279,71.4566
65.9279,71.4566
65.8128,71.5428
65.8128,71.5428
65.7266,71.6579
65.7266,71.6579
65.6968,71.7380
65.6795,71.7611
65.6646,71.7859
65.6588,71.7887
65.6549,71.7939
65.6278,71.8040
65.6019,71.8168
65.5955,71.8161
65.5894,71.8183
65.5612,71.8122
65.5325,71.8089
65.5259,71.8045
65.5212,71.8035
65.5022,71.7907
65.4974,71.7868
65.4424,71.7318
65.3288,71.6493
65.3261,71.6471
65.3083,71.6210
65.2889,71.5960
65.2881,71.5917
65.2866,71.5894
65.2864,71.5824
65.2805,71.5510
65.2805,68.0561
65.2517,67.9111
65.2517,67.9111
65.2517,67.9111
65.2180,67.8298
65.1938,67.7715
65.1864,67.7020
65.2176,67.6395
65.2777,67.6039
65.3084,67.6000
66.0878,67.6000
66.0878,67.6000
66.1474,67.5936
66.1474,67.5936
66.2821,67.5434
66.2821,67.5434
66.3972,67.4572
66.3972,67.4572
66.4834,67.3421
66.4834,67.3421
66.5336,67.2074
66.5336,67.2074
66.5400,67.1478
66.5400,67.1478
66.5400,66.4500
65.5153,66.4500
65.5593,66.3737
65.5900,66.2592
65.5900,66.1408
65.5593,66.0263
65.5153,65.9500
66.5400,65.9500
66.5400,65.2522
66.5400,65.2522
66.5336,65.1926
66.5336,65.1926
66.4834,65.0579
66.4834,65.0579
66.3972,64.9428
66.3142,64.8807
66.3142,64.8807
66.2821,64.8566
66.2821,64.8566
66.1474,64.8064
66.1474,64.8064
66.0878,64.8000
65.3900,64.8000
65.3900,65.8247
65.3137,65.7807
65.1992,65.7500
65.0808,65.7500
64.9663,65.7807
64.8900,65.8247
64.8900,64.8000
64.4745,64.8000
64.4251,64.7855
70.7295,64.7855
70.7295,65.0045
70.7358,65.0522
70.7581,65.2216
70.7758,65.2876
70.8110,65.4189
70.8148,65.4331
70.8986,65.6354
70.8986,65.6354
70.8986,65.6354
71.0080,65.8251
71.1414,65.9988
71.1414,65.9988
71.2962,66.1536
71.2962,66.1536
71.4699,66.2869
71.4699,66.2869
71.5863,66.3541
71.5875,66.3548
71.6357,66.4054
71.6495,66.4622
71.6495,68.1839
71.6495,68.1839
71.6495,68.1839
71.6783,68.3289
71.6783,68.3289
71.7349,68.4655
71.7349,68.4655
71.7349,68.4655
71.7483,68.4855
71.7483,68.4855
71.8170,68.5884
71.8171,68.5884
78.2532,75.0245
78.2867,75.0859
78.2895,75.1122
78.2895,75.2945
78.3191,75.4811
78.3775,75.6608
78.4542,75.8114
78.4632,75.8292
78.5743,75.9821
78.7079,76.1157
78.8608,76.2268
78.9403,76.2673
79.0292,76.3125
79.0292,76.3125
79.0292,76.3125
79.1255,76.3438
79.2089,76.3709
79.3955,76.4005
79.3955,76.4005
79.5845,76.4005
79.7711,76.3709
79.9508,76.3125
80.1192,76.2268
80.2721,76.1157
80.4057,75.9821
80.5168,75.8292
80.6025,75.6608
80.6609,75.4811
80.6733,75.4033
80.6905,75.2945
80.6905,75.1055
80.6609,74.9189
80.6025,74.7392
80.5227,74.5825
80.5168,74.5708
80.4057,74.4179
80.2721,74.2843
80.1192,74.1732
80.0877,74.1572
79.9508,74.0875
79.7711,74.0291
79.5845,73.9995
79.5845,73.9995
79.4022,73.9995
79.3352,73.9798
79.3145,73.9632
73.1868,67.8355
73.1533,67.7741
73.1505,67.7478
73.1505,66.4622
73.1702,66.3952
73.2125,66.3548
73.3301,66.2869
73.5038,66.1536
73.6586,65.9988
73.7919,65.8251
73.9014,65.6354
73.9852,65.4331
74.0419,65.2216
74.0705,65.0045
74.0705,64.7855
74.0419,64.5684
73.9852,64.3569
73.9014,64.1546
73.8877,64.1308
73.7919,63.9649
73.6586,63.7912
73.6586,63.7912
73.5038,63.6364
73.5038,63.6364
73.3301,63.5030
73.1404,63.3936
73.1404,63.3936
73.1404,63.3936
72.9381,63.3098
72.9381,63.3098
72.9381,63.3098
72.8324,63.2814
72.7266,63.2531
72.6903,63.2483
72.5095,63.2245
72.5095,63.2245
72.2905,63.2245
72.2905,63.2245
72.0839,63.2517
72.0734,63.2531
72.0287,63.2651
71.8619,63.3098
71.7434,63.3588
71.6596,63.3936
71.6596,63.3936
71.6596,63.3936
71.4699,63.5030
71.2962,63.6364
71.2962,63.6364
71.1414,63.7912
71.1414,63.7912
71.0080,63.9649
70.8986,64.1546
70.8986,64.1546
70.8148,64.3569
70.7581,64.5684
70.7581,64.5684
70.7295,64.7855
64.4251,64.7855
64.4075,64.7803
64.3617,64.7275
64.3505,64.6760
64.3505,60.0490
64.3510,60.0472
64.3506,60.0453
64.3608,60.0138
64.3702,59.9820
64.3718,59.9802
64.3722,59.9789
64.3808,59.9701
64.3961,59.9529
64.3988,59.9507
64.5124,59.8682
64.5674,59.8132
64.5722,59.8093
64.5989,59.7981
64.6242,59.7842
64.6307,59.7847
64.6366,59.7822
64.6651,59.7871
64.6939,59.7892
64.6991,59.7930
64.7054,59.7941
64.7267,59.8137
64.7499,59.8311
64.7542,59.8390
64.7569,59.8415
64.7581,59.8461
64.7668,59.8620
64.7966,59.9421
64.7966,59.9421
64.8828,60.0572
64.8828,60.0572
64.9979,60.1433
64.9979,60.1434
65.1326,60.1936
65.1326,60.1936
65.1922,60.2000
65.1922,60.2000
65.8900,60.2000
65.8900,59.1753
65.9663,59.2193
66.0808,59.2500
66.1992,59.2500
66.3137,59.2193
66.3900,59.1753
66.3900,60.2000
67.0878,60.2000
67.0878,60.2000
67.1474,60.1936
67.1474,60.1936
67.2821,60.1434
67.2821,60.1433
67.3972,60.0572
67.3972,60.0572
67.4834,59.9421
67.4834,59.9421
67.5336,59.8074
67.5336,59.8074
67.5359,59.7855
70.7295,59.7855
70.7295,60.0045
70.7478,60.1433
70.7581,60.2216
70.7808,60.3062
70.8119,60.4223
70.8148,60.4331
70.8986,60.6354
70.8986,60.6354
70.8986,60.6354
71.0080,60.8251
71.1414,60.9988
71.1414,60.9988
71.2962,61.1536
71.2962,61.1536
71.4699,61.2869
71.6596,61.3964
71.6596,61.3964
71.6596,61.3964
71.8619,61.4802
72.0734,61.5369
72.2905,61.5655
72.2905,61.5655
72.5095,61.5655
72.5095,61.5655
72.7266,61.5369
72.9381,61.4802
73.1404,61.3964
73.3301,61.2869
73.5038,61.1536
73.6586,60.9988
73.7919,60.8251
73.9014,60.6354
73.9852,60.4331
74.0419,60.2216
74.0705,60.0045
74.0705,59.7855
74.0419,59.5684
73.9852,59.3569
73.9014,59.1546
73.8944,59.1424
73.7919,58.9649
73.6586,58.7912
73.6586,58.7912
73.5038,58.6364
73.5038,58.6364
73.3301,58.5030
73.1404,58.3936
73.1404,58.3936
73.1404,58.3936
72.9381,58.3098
72.9381,58.3098
72.9381,58.3098
72.8324,58.2814
72.7266,58.2531
72.6903,58.2483
72.5095,58.2245
72.5095,58.2245
72.2905,58.2245
72.2905,58.2245
72.0839,58.2517
72.0734,58.2531
72.0387,58.2624
71.8619,58.3098
71.7647,58.3500
71.6596,58.3936
71.6596,58.3936
71.6596,58.3936
71.4699,58.5030
71.2962,58.6364
71.2962,58.6364
71.1414,58.7912
71.1414,58.7912
71.0080,58.9649
70.8986,59.1546
70.8986,59.1546
70.8986,59.1546
70.8717,59.2193
70.8148,59.3569
70.7581,59.5684
70.7581,59.5684
70.7295,59.7855
67.5359,59.7855
67.5378,59.7682
67.5378,59.7682
67.5400,59.7478
67.5400,59.7478
67.5400,59.0500
66.5153,59.0500
66.5593,58.9737
66.5900,58.8592
66.5900,58.7408
66.5593,58.6263
66.5153,58.5500
67.5400,58.5500
67.5400,57.8522
67.5400,57.8522
67.5336,57.7926
67.5336,57.7926
67.4834,57.6579
67.4834,57.6579
67.3972,57.5428
67.3972,57.5428
67.2821,57.4566
67.2821,57.4566
67.1474,57.4064
67.1474,57.4064
67.0878,57.4000
66.3607,57.4000
66.2937,57.3803
66.2479,57.3275
66.2380,57.2584
66.2670,57.1948
66.2730,57.1883
66.5730,56.8883
68.6830,54.7784
68.7322,54.7047
68.7651,54.6555
68.8217,54.5189
68.8383,54.4355
68.8500,54.4131
68.8579,54.3891
68.8678,54.3790
68.8706,54.3735
68.8819,54.3632
68.8844,54.3612
69.0124,54.2682
69.0676,54.2131
69.0726,54.2090
69.0991,54.1979
69.1242,54.1842
69.1309,54.1847
69.1371,54.1821
69.1653,54.1871
69.1939,54.1892
69.1993,54.1932
69.2059,54.1944
69.2269,54.2139
69.2499,54.2311
69.2544,54.2394
69.2571,54.2419
69.2583,54.2465
69.2668,54.2620
69.2966,54.3421
69.2966,54.3421
69.3828,54.4572
69.3828,54.4572
69.4979,54.5433
69.4979,54.5434
69.6326,54.5936
69.6326,54.5936
69.6922,54.6000
69.6922,54.6000
70.3900,54.6000
70.3900,53.5753
70.4663,53.6193
70.5808,53.6500
70.6992,53.6500
70.8137,53.6193
70.8900,53.5753
70.8900,54.6000
71.5878,54.6000
71.5878,54.6000
71.6474,54.5936
71.6474,54.5936
71.7821,54.5434
71.7821,54.5433
71.8972,54.4572
71.8972,54.4572
71.9834,54.3421
71.9834,54.3421
72.0336,54.2074
72.0336,54.2074
72.0400,54.1478
72.0400,54.1478
72.0400,53.4500
71.0153,53.4500
71.0593,53.3737
71.0900,53.2592
71.0900,53.1408
71.0593,53.0263
71.0153,52.9500
72.0400,52.9500
72.0400,52.3745
72.0597,52.3075
72.1125,52.2617
72.1640,52.2505
73.4810,52.2505
73.5480,52.2702
73.5813,52.3016
73.5930,52.3177
73.6618,52.4124
73.8176,52.5682
73.8176,52.5682
73.9522,52.6660
73.9960,52.6978
74.0803,52.7408
74.1924,52.7979
74.1924,52.7979
74.2972,52.8320
74.4020,52.8660
74.6198,52.9005
74.6198,52.9005
74.8402,52.9005
74.8402,52.9005
75.0580,52.8660
75.2676,52.7979
75.4640,52.6978
75.6424,52.5682
75.6929,52.5177
75.7542,52.4842
75.8239,52.4892
75.8799,52.5311
75.8968,52.5620
75.9266,52.6421
75.9266,52.6421
76.0128,52.7572
76.0128,52.7572
76.1279,52.8434
76.1279,52.8434
76.2626,52.8936
76.2626,52.8936
76.3222,52.9000
76.3222,52.9000
77.0200,52.9000
77.0200,51.8753
77.0963,51.9193
77.2108,51.9500
77.3292,51.9500
77.4437,51.9193
77.5200,51.8753
77.5200,52.9000
78.2178,52.9000
78.2178,52.9000
78.2774,52.8936
78.2774,52.8936
78.4121,52.8434
78.4121,52.8434
78.5272,52.7572
78.5272,52.7572
78.6133,52.6421
78.6134,52.6421
78.6636,52.5074
78.6636,52.5074
78.6700,52.4478
78.6700,52.4478
78.6700,51.7500
77.6453,51.7500
77.6893,51.6737
77.7200,51.5592
77.7200,51.4408
77.6893,51.3263
77.6453,51.2500
78.6700,51.2500
78.6700,51.0235
78.6897,50.9565
78.7425,50.9107
78.7940,50.8995
80.7268,50.8995
80.7938,50.9192
80.8145,50.9358
81.5861,51.7075
81.6196,51.7688
81.6209,51.8146
81.5995,51.9498
81.5995,51.9498
81.5995,52.1702
81.6153,52.2702
81.6340,52.3880
81.7021,52.5976
81.7021,52.5976
81.7701,52.7311
81.7954,52.7807
81.8022,52.7940
81.9318,52.9724
81.9318,52.9724
81.9823,53.0229
82.0158,53.0842
82.0108,53.1539
81.9689,53.2099
81.9380,53.2268
81.8579,53.2566
81.8579,53.2566
81.7428,53.3428
81.7428,53.3428
81.6566,53.4579
81.6566,53.4579
81.6064,53.5926
81.6064,53.5926
81.6000,53.6522
81.6000,54.3500
82.6247,54.3500
82.5807,54.4263
82.5500,54.5408
82.5500,54.6592
82.5807,54.7737
82.6247,54.8500
81.6000,54.8500
81.6000,55.5478
81.6064,55.6074
81.6064,55.6074
81.6566,55.7421
81.6566,55.7421
81.7428,55.8572
81.7428,55.8572
81.8579,55.9433
81.8579,55.9434
81.9926,55.9936
81.9926,55.9936
82.0522,56.0000
82.0522,56.0000
82.7500,56.0000
82.7500,54.9753
82.8263,55.0193
82.9408,55.0500
83.0592,55.0500
83.1737,55.0193
83.2500,54.9753
83.2500,56.0000
83.9478,56.0000
83.9478,56.0000
84.0074,55.9936
84.0074,55.9936
84.1421,55.9434
84.1421,55.9433
84.2572,55.8572
84.2572,55.8572
84.3434,55.7421
84.3434,55.7421
84.3936,55.6074
84.3936,55.6074
84.4000,55.5478
84.4000,55.5478
84.4000,54.8207
84.4197,54.7537
84.4725,54.7079
84.5416,54.6980
84.6052,54.7270
84.6117,54.7330
85.4265,55.5478
86.7893,56.9107
86.8228,56.9720
86.8178,57.0417
86.7759,57.0976
86.7745,57.0986
86.6876,57.1618
86.6876,57.1618
86.6876,57.1618
86.5318,57.3176
86.5318,57.3176
86.4022,57.4960
86.3021,57.6924
86.3021,57.6924
86.2340,57.9020
86.1995,58.1198
86.1995,58.3402
86.2340,58.5580
86.3021,58.7676
86.3021,58.7676
86.3329,58.8280
86.3950,58.9500
86.4022,58.9640
86.5318,59.1424
86.5318,59.1424
86.5823,59.1929
86.6158,59.2542
86.6108,59.3239
86.5689,59.3799
86.5380,59.3968
86.4579,59.4266
86.4579,59.4266
86.3428,59.5128
86.3428,59.5128
86.2566,59.6279
86.2566,59.6279
86.2064,59.7626
86.2064,59.7626
86.2000,59.8222
86.2000,60.5200
87.2247,60.5200
87.1807,60.5963
87.1500,60.7108
87.1500,60.8292
87.1807,60.9437
87.2247,61.0200
86.2000,61.0200
86.2000,61.7178
86.2064,61.7774
86.2064,61.7774
86.2455,61.8822
86.2505,61.9519
86.2170,62.0132
86.1557,62.0467
86.1293,62.0495
84.7261,62.0495
84.5811,62.0783
84.5811,62.0783
84.4445,62.1349
84.4445,62.1349
84.4445,62.1349
84.3994,62.1651
84.3994,62.1651
84.3216,62.2170
84.3216,62.2171
83.4070,63.1316
83.4070,63.1316
83.3911,63.1555
83.3911,63.1555
83.3911,63.1555
83.3249,63.2545
83.3249,63.2545
83.2683,63.3911
83.2683,63.3911
83.2395,63.5361
83.2395,63.6596
83.2198,63.7266
83.1884,63.7599
83.1428,63.7930
83.1428,63.7930
82.9980,63.9378
82.8777,64.1034
82.7848,64.2858
82.7215,64.4805
82.6895,64.6826
82.6895,64.8874
82.7215,65.0895
82.7848,65.2842
82.8374,65.3875
82.8756,65.4624
82.8777,65.4666
82.9980,65.6322
82.9980,65.6322
83.1428,65.7770
83.1884,65.8101
83.2310,65.8654
83.2395,65.9104
83.2395,66.7639
83.2395,66.7639
83.2395,66.7639
83.2683,66.9089
83.2683,66.9089
83.3249,67.0455
83.3249,67.0455
83.3316,67.0555
83.3316,67.0555
83.3316,67.0555
83.3967,67.1529
83.4071,67.1684
83.4071,67.1684
85.4216,69.1830
85.4216,69.1830
85.4511,69.2026
85.4953,69.2322
85.5445,69.2651
85.5445,69.2651
85.5445,69.2651
85.5445,69.2651
85.6026,69.2891
85.6811,69.3217
85.6811,69.3217
85.6811,69.3217
85.8261,69.3505
85.8261,69.3505
85.8261,69.3505
85.9739,69.3505
88.7378,69.3505
88.8048,69.3702
88.8255,69.3868
90.7195,71.2809
90.7530,71.3422
90.7480,71.4119
90.7195,71.4563
90.6180,71.5578
90.4977,71.7234
90.4505,71.8161
90.4025,71.8669
90.3347,71.8837
90.2686,71.8611
90.2295,71.8161
90.2176,71.7926
90.1823,71.7234
90.1420,71.6680
90.0620,71.5578
89.9172,71.4130
89.7516,71.2927
89.7516,71.2927
89.7516,71.2927
89.6656,71.2489
89.5692,71.1998
89.3745,71.1365
89.2000,71.1089
89.1724,71.1045
88.9676,71.1045
88.9433,71.1084
88.7655,71.1365
88.5708,71.1998
88.3884,71.2927
88.2228,71.4130
88.0780,71.5578
87.9577,71.7234
87.9105,71.8161
87.8625,71.8669
87.7947,71.8837
87.7286,71.8611
87.6895,71.8161
87.6776,71.7926
87.6423,71.7234
87.6020,71.6680
87.5220,71.5578
87.3772,71.4130
87.2116,71.2927
87.2116,71.2927
87.2116,71.2927
87.1256,71.2489
87.0292,71.1998
86.8345,71.1365
86.6600,71.1089
86.6324,71.1045
86.4276,71.1045
86.4033,71.1084
86.2255,71.1365
86.0308,71.1998
85.8484,71.2927
85.6828,71.4130
85.5380,71.5578
85.4696,71.6519
85.4143,71.6946
85.3447,71.7006
85.2829,71.6680
85.2516,71.6181
85.2244,71.5359
85.2244,71.5359
85.1323,71.3867
85.0083,71.2627
84.8591,71.1706
84.8591,71.1706
84.6927,71.1155
84.6927,71.1155
84.5900,71.1050
84.2400,71.1050
84.2400,72.0893
84.2356,72.0849
84.1444,72.0323
84.0427,72.0050
83.9373,72.0050
83.8356,72.0323
83.7444,72.0849
83.7400,72.0893
83.7400,71.1050
83.3900,71.1050
83.3900,71.1050
83.2873,71.1155
83.1209,71.1706
83.1209,71.1706
82.9717,71.2627
82.8477,71.3867
82.7556,71.5359
82.7556,71.5359
82.7005,71.7023
82.7005,71.7023
82.6900,71.8050
82.6900,72.1550
83.6743,72.1550
83.6699,72.1594
83.6173,72.2506
83.5900,72.3523
83.5900,72.4577
83.6173,72.5594
83.6699,72.6506
83.6743,72.6550
82.6900,72.6550
82.6900,73.0050
82.7005,73.1077
82.7556,73.2741
82.7556,73.2741
82.8477,73.4233
82.8622,73.4378
82.8728,73.4573
82.8873,73.4740
82.8892,73.4873
82.8956,73.4991
82.8941,73.5212
82.8972,73.5431
82.8916,73.5554
82.8907,73.5688
82.8774,73.5866
82.8682,73.6067
82.8569,73.6140
82.8488,73.6248
82.8280,73.6325
82.8094,73.6445
82.7875,73.6476
82.7833,73.6492
82.7745,73.6495
82.5622,73.6495
82.4952,73.6298
82.4745,73.6132
80.7509,71.8895
80.3180,71.4566
78.1868,69.3255
78.1533,69.2641
78.1505,69.2378
78.1505,63.9622
78.1702,63.8952
78.2125,63.8548
78.2469,63.8349
78.3301,63.7869
78.5038,63.6536
78.6586,63.4988
78.7919,63.3251
78.9014,63.1354
78.9852,62.9331
79.0419,62.7216
79.0705,62.5045
79.0705,62.2855
79.0419,62.0684
78.9852,61.8569
78.9014,61.6546
78.8500,61.5655
78.7919,61.4649
78.6586,61.2912
78.6586,61.2912
78.5038,61.1364
78.5038,61.1364
78.3301,61.0030
78.1404,60.8936
78.1404,60.8936
78.1404,60.8936
77.9381,60.8098
77.9381,60.8098
77.9381,60.8098
77.8209,60.7783
77.7266,60.7531
77.6903,60.7483
77.5095,60.7245
77.5095,60.7245
77.2905,60.7245
77.2905,60.7245
77.1006,60.7495
77.0734,60.7531
77.0654,60.7552
76.8619,60.8098
76.8011,60.8349
76.6596,60.8936
76.6596,60.8936
76.6596,60.8936
76.4699,61.0030
76.2962,61.1364
76.2962,61.1364
76.1414,61.2912
76.1414,61.2912
76.0080,61.4649
75.8986,61.6546
75.8986,61.6546
75.8986,61.6546
75.8638,61.7384
75.8148,61.8569
75.7581,62.0684
75.7581,62.0684
75.7295,62.2855
75.7295,62.5045
75.7443,62.6171
75.7581,62.7216
75.8148,62.9331
75.8986,63.1354
75.8986,63.1354
75.8986,63.1354
76.0080,63.3251
76.1414,63.4988
76.1414,63.4988
76.2962,63.6536
76.2962,63.6536
76.4699,63.7869
76.5875,63.8548
76.6357,63.9054
76.6495,63.9622
76.6495,69.6739
76.6495,69.6739
76.6495,69.6739
76.6783,69.8189
76.6783,69.8189
76.7349,69.9555
76.7678,70.0047
76.7678,70.0047
76.8170,70.0784
76.8171,70.0784
81.4632,74.7245
81.4967,74.7859
81.4995,74.8122
81.4995,80.1746
81.4798,80.2416
81.4484,80.2749
81.4028,80.3080
81.4028,80.3080
81.2580,80.4528
81.1377,80.6184
81.0448,80.8008
80.9815,80.9955
80.9495,81.1976
80.9495,81.4024
80.9815,81.6045
81.0448,81.7992
81.0872,81.8826
81.1376,81.9814
81.1377,81.9816
81.2580,82.1472
81.4028,82.2920
81.5232,82.3795
81.5684,82.4123
81.6846,82.4715
81.7508,82.5052
81.7508,82.5052
81.7508,82.5052
81.8551,82.5391
81.9455,82.5685
82.0466,82.5845
82.1476,82.6005
82.1476,82.6005
82.3524,82.6005
82.3524,82.6005
82.5545,82.5685
82.7492,82.5052
82.9316,82.4123
83.0246,82.3447
83.0972,82.2920
83.0972,82.2920
83.0972,82.2920
83.2420,82.1472
83.2420,82.1472
83.2420,82.1472
83.3623,81.9816
83.3624,81.9814
83.3898,81.9276
83.4378,81.8768
83.5056,81.8600
83.5717,81.8826
83.6108,81.9276
83.6381,81.9813
83.6381,81.9814
83.6705,82.0259
83.6705,82.0259
84.3500,81.3464
84.3500,81.3527
84.3773,81.4544
84.4299,81.5456
84.5044,81.6201
84.5956,81.6727
84.6973,81.7000
84.7036,81.7000
84.0241,82.3795
84.0686,82.4119
84.2510,82.5048
84.4456,82.5680
84.6477,82.6000
84.8523,82.6000
85.0544,82.5680
85.2490,82.5048
85.4313,82.4119
85.4759,82.3795
84.7964,81.7000
84.8027,81.7000
84.9044,81.6727
84.9956,81.6201
85.0701,81.5456
85.1227,81.4544
85.1500,81.3527
85.1500,81.3464
85.8295,82.0259
85.8619,81.9813
85.9548,81.7990
86.0180,81.6044
86.0500,81.4023
86.0500,81.1977
86.0180,80.9956
85.9548,80.8010
85.8619,80.6187
85.8295,80.5741
85.8295,80.5741
85.1500,81.2536
85.1500,81.2473
85.1227,81.1456
85.0701,81.0544
84.9956,80.9799
84.9044,80.9273
84.8027,80.9000
84.7964,80.9000
85.4759,80.2205
85.4759,80.2205
85.4314,80.1881
85.4313,80.1881
85.2490,80.0952
85.0544,80.0320
84.8523,80.0000
84.6477,80.0000
84.4456,80.0320
84.2510,80.0952
84.0686,80.1881
84.0241,80.2205
84.0241,80.2205
84.7036,80.9000
84.6973,80.9000
84.5956,80.9273
84.5044,80.9799
84.4299,81.0544
84.3773,81.1456
84.3500,81.2473
84.3500,81.2536
83.6705,80.5741
83.6705,80.5741
83.6381,80.6186
83.6108,80.6724
83.5628,80.7232
83.4950,80.7400
83.4288,80.7174
83.3898,80.6724
83.3623,80.6184
83.2420,80.4528
83.1478,80.3587
83.0972,80.3080
83.0474,80.2718
83.0434,80.2684
83.0272,80.2433
83.0089,80.2196
83.0077,80.2130
83.0056,80.2097
83.0056,80.2015
83.0005,80.1746
83.0005,78.9622
83.0202,78.8952
83.0368,78.8745
83.2245,78.6868
83.2859,78.6533
83.3122,78.6505
87.5220,78.6505
87.5890,78.6702
87.6096,78.6868
88.8800,79.9572
90.1058,81.1830
90.1278,81.1976
90.1425,81.2075
90.1425,81.2075
90.1466,81.2102
90.2287,81.2651
90.2853,81.2885
90.3653,81.3217
90.4814,81.3448
90.5006,81.3486
90.5103,81.3505
90.5103,81.3505
96.9739,81.3505
97.0715,81.3311
97.1189,81.3217
97.2555,81.2651
97.3047,81.2322
97.3784,81.1830
99.3273,79.2340
99.7504,78.8110
100.9002,77.6612
101.2829,77.2784
101.2829,77.2784
101.2829,77.2784
101.2830,77.2784
101.3524,77.1745
101.3651,77.1555
101.3821,77.1145
101.3885,77.0989
101.3885,77.0989
101.3976,77.0770
101.4217,77.0189
101.4505,76.8739
101.4505,76.7261
101.4505,73.5261
101.4505,73.5261
101.4217,73.3811
101.4217,73.3811
101.4217,73.3811
101.4217,73.3811
101.3651,73.2445
101.3651,73.2445
101.3227,73.1811
101.2830,73.1216
98.3868,70.2255
98.3533,70.1641
98.3505,70.1378
98.3505,67.7577
98.3702,67.6906
98.4230,67.6449
98.4921,67.6349
98.5128,67.6397
98.5286,67.6449
98.6089,67.6709
98.6089,67.6709
98.6089,67.6709
98.6953,67.6846
98.7955,67.7005
98.7955,67.7005
98.9845,67.7005
99.1711,67.6709
99.2307,67.6516
99.3508,67.6125
99.5192,67.5268
99.6721,67.4157
99.8057,67.2821
99.9168,67.1292
100.0025,66.9608
100.0609,66.7811
100.0817,66.6500
100.0905,66.5945
100.0905,66.4055
105.3095,66.4055
105.3095,66.5945
105.3391,66.7811
105.3975,66.9608
105.4490,67.0620
105.4832,67.1292
105.5943,67.2821
105.7279,67.4157
105.8808,67.5268
105.9134,67.5434
106.0492,67.6125
106.0492,67.6125
106.0492,67.6125
106.1321,67.6395
106.2289,67.6709
106.4155,67.7005
106.4155,67.7005
106.6045,67.7005
106.7911,67.6709
106.8507,67.6516
106.9708,67.6125
107.1392,67.5268
107.2921,67.4157
107.4257,67.2821
107.5368,67.1292
107.6225,66.9608
107.6809,66.7811
107.7017,66.6500
107.7105,66.5945
107.7105,66.4055
107.6900,66.2763
107.6809,66.2189
107.6225,66.0392
107.6225,66.0392
107.6225,66.0392
107.5503,65.8973
107.5368,65.8708
107.4257,65.7179
107.2921,65.5843
107.1392,65.4732
107.1262,65.4666
106.9708,65.3875
106.7911,65.3291
106.6045,65.2995
106.6045,65.2995
106.4155,65.2995
106.4155,65.2995
106.2289,65.3291
106.0492,65.3875
105.8808,65.4732
105.7936,65.5366
105.7279,65.5843
105.7279,65.5843
105.7279,65.5843
105.5943,65.7179
105.5943,65.7179
105.5943,65.7179
105.5514,65.7770
105.4832,65.8708
105.3975,66.0392
105.3391,66.2189
105.3095,66.4055
100.0905,66.4055
100.0609,66.2189
100.0176,66.0855
100.0025,66.0392
100.0025,66.0392
100.0025,66.0392
99.9303,65.8973
99.9168,65.8708
99.8057,65.7179
99.6768,65.5891
99.6433,65.5277
99.6405,65.5014
99.6405,62.4548
99.6602,62.3878
99.6639,62.3827
99.6807,62.3575
99.7788,62.2108
99.8561,62.0241
99.8955,61.8260
99.8955,61.1740
99.8561,60.9759
99.7788,60.7892
99.7788,60.7892
99.7788,60.7892
99.6666,60.6213
99.5237,60.4784
99.3558,60.3662
99.3558,60.3662
99.1691,60.2889
99.1691,60.2889
98.9710,60.2495
98.9710,60.2495
98.7690,60.2495
98.7690,60.2495
98.5709,60.2889
98.5709,60.2889
98.3842,60.3662
98.3039,60.4199
98.2372,60.4408
98.1698,60.4223
98.1661,60.4199
98.0858,60.3662
97.8991,60.2889
97.8991,60.2889
97.7010,60.2495
97.7010,60.2495
97.4990,60.2495
97.4990,60.2495
97.3009,60.2889
97.3009,60.2889
97.2202,60.3223
97.1507,60.3298
97.1053,60.3100
97.1051,60.3105
97.1004,60.3079
97.0984,60.3070
97.0973,60.3062
97.0973,60.3062
97.0973,60.3062
96.9625,60.2559
96.9625,60.2559
96.9029,60.2495
96.9029,60.2495
96.9029,60.2495
96.9029,60.2495
95.7571,60.2495
95.7571,60.2495
95.6975,60.2559
95.5627,60.3062
95.5627,60.3062
95.4475,60.3925
95.4475,60.3925
95.3612,60.5077
95.3612,60.5077
95.3109,60.6425
95.3091,60.6501
95.3069,60.6495
95.2846,60.7033
95.2272,60.7432
95.1880,60.7495
90.5261,60.7495
90.4972,60.7552
90.4972,60.7552
90.3811,60.7783
90.3811,60.7783
90.3052,60.8098
90.2445,60.8349
90.2445,60.8349
90.1624,60.8898
90.1522,60.8966
90.1216,60.9170
90.1216,60.9170
89.2099,61.8287
89.1486,61.8622
89.0789,61.8572
89.0230,61.8154
88.9985,61.7499
88.9989,61.7278
89.0000,61.7178
89.0000,61.7178
89.0000,61.0200
87.9753,61.0200
88.0193,60.9437
88.0500,60.8292
88.0500,60.7108
88.0193,60.5963
87.9753,60.5200
89.0000,60.5200
89.0000,59.8222
89.0000,59.8222
88.9936,59.7626
88.9936,59.7626
88.9434,59.6279
88.9433,59.6279
88.8572,59.5128
88.8572,59.5128
88.7421,59.4266
88.7421,59.4266
88.6620,59.3968
88.6061,59.3549
88.5817,59.2894
88.5965,59.2212
88.6177,59.1929
88.6682,59.1424
88.7978,58.9640
88.8979,58.7676
88.8979,58.7676
88.9328,58.6603
88.9328,58.6603
88.9490,58.6102
88.9658,58.5587
94.7454,58.5587
104.7741,58.5587
104.7741,55.7436
94.7454,55.7436
94.7454,58.5587
88.9658,58.5587
88.9660,58.5580
89.0005,58.3402
89.0005,58.1198
88.9660,57.9020
88.9107,57.7318
88.8979,57.6924
88.8979,57.6924
88.8445,57.5876
88.7978,57.4960
88.7512,57.4318
88.6682,57.3176
88.6682,57.3176
88.5124,57.1618
88.5124,57.1618
88.4834,57.1407
88.4408,57.0854
88.4348,57.0158
88.4674,56.9540
88.4686,56.9528
90.5883,54.8330
90.6496,54.7996
90.7193,54.8045
90.7753,54.8464
90.7997,54.9119
90.8000,54.9207
90.8000,55.6478
90.8064,55.7074
90.8064,55.7074
90.8566,55.8421
90.8566,55.8421
90.9428,55.9572
90.9428,55.9572
91.0579,56.0433
91.0579,56.0434
91.1926,56.0936
91.1926,56.0936
91.2522,56.1000
91.2522,56.1000
91.9500,56.1000
91.9500,55.0753
92.0263,55.1193
92.1408,55.1500
92.2592,55.1500
92.3737,55.1193
92.4500,55.0753
92.4500,56.1000
93.1478,56.1000
93.1478,56.1000
93.2074,56.0936
93.2074,56.0936
93.3421,56.0434
93.3421,56.0433
93.4572,55.9572
93.4572,55.9572
93.5433,55.8421
93.5434,55.8421
93.5936,55.7074
93.5936,55.7074
93.5967,55.6790
93.5967,55.6790
93.6000,55.6478
93.6000,55.6478
93.6000,54.9500
92.5753,54.9500
92.6193,54.8737
92.6500,54.7592
92.6500,54.6408
92.6193,54.5263
92.5753,54.4500
93.6000,54.4500
93.6000,53.7522
93.6000,53.7522
93.5936,53.6926
93.5936,53.6926
93.5434,53.5579
93.5433,53.5579
93.4572,53.4428
93.4572,53.4428
93.3421,53.3566
93.3421,53.3566
93.2620,53.3268
93.2061,53.2849
93.1817,53.2194
93.1965,53.1512
93.2177,53.1229
93.2682,53.0724
93.3158,53.0070
93.3748,52.9258
93.3931,52.9005
93.3978,52.8940
93.4979,52.6976
93.5660,52.4880
93.6005,52.2702
93.6005,52.0498
93.5791,51.9146
93.5880,51.8453
93.6139,51.8075
94.6855,50.7358
94.7469,50.7023
94.7732,50.6995
96.3760,50.6995
Z" /> 
<path style="fill:#000000; fill-opacity:1.0000; stroke:none;fill-rule:evenodd;"
d="M 93.8048,63.9702
93.8255,63.9868
96.8132,66.9745
96.8467,67.0359
96.8495,67.0622
96.8495,70.5739
96.8495,70.5739
96.8495,70.5739
96.8783,70.7189
96.8783,70.7189
96.9349,70.8555
96.9349,70.8555
96.9349,70.8555
96.9587,70.8911
96.9587,70.8911
96.9587,70.8911
97.0170,70.9784
99.9132,73.8745
99.9467,73.9359
99.9495,73.9622
99.9495,76.4378
99.9298,76.5048
99.9132,76.5255
96.6255,79.8132
96.5641,79.8467
96.5378,79.8495
90.9464,79.8495
90.8794,79.8298
90.8587,79.8132
88.3662,77.3207
88.3626,77.3171
88.3626,77.3170
88.2889,77.2678
88.2889,77.2678
88.2397,77.2349
88.1031,77.1783
88.1031,77.1783
87.9581,77.1495
87.9581,77.1495
83.1245,77.1495
83.0575,77.1298
83.0117,77.0770
83.0005,77.0255
83.0005,75.2745
83.0202,75.2075
83.0730,75.1617
83.1245,75.1505
84.6089,75.1505
84.7065,75.1311
84.7539,75.1217
84.8905,75.0651
84.9429,75.0301
85.0134,74.9830
86.2649,73.7315
86.2695,73.7290
86.2723,73.7246
86.2998,73.7124
86.3262,73.6980
86.3327,73.6978
86.3362,73.6962
86.3698,73.6967
86.3715,73.6966
86.3716,73.6966
86.4276,73.7055
86.4292,73.7055
86.4353,73.7064
86.4629,73.7194
86.4914,73.7303
86.4942,73.7341
86.4985,73.7361
86.5148,73.7619
86.5329,73.7865
86.5332,73.7912
86.5357,73.7953
86.5354,73.8258
86.5374,73.8562
86.5350,73.8616
86.5350,73.8651
86.5308,73.8716
86.5195,73.8979
86.4900,73.9421
86.4810,73.9555
86.4725,73.9682
86.4449,74.0095
86.4449,74.0095
86.3883,74.1461
86.3883,74.1461
86.3759,74.2088
86.3435,74.2707
86.3315,74.2810
86.3316,74.2811
86.3279,74.2843
86.1943,74.4179
86.0832,74.5708
85.9975,74.7392
85.9391,74.9189
85.9095,75.1055
85.9095,75.2945
85.9391,75.4811
85.9975,75.6608
86.0742,75.8114
86.0832,75.8292
86.1943,75.9821
86.3279,76.1157
86.4808,76.2268
86.5603,76.2673
86.6492,76.3125
86.6492,76.3125
86.6492,76.3125
86.7455,76.3438
86.8289,76.3709
87.0155,76.4005
87.0155,76.4005
87.2045,76.4005
87.3911,76.3709
87.5708,76.3125
87.7392,76.2268
87.8921,76.1157
88.0257,75.9821
88.1368,75.8292
88.2225,75.6608
88.2809,75.4811
88.2933,75.4033
88.3105,75.2945
88.3105,75.1055
88.2809,74.9189
88.2225,74.7392
88.1368,74.5708
88.1270,74.5573
88.1035,74.4915
88.1193,74.4235
88.1396,74.3968
88.8049,73.7315
88.8662,73.6980
88.9120,73.6967
88.9676,73.7055
88.9676,73.7055
89.1724,73.7055
89.1724,73.7055
89.3745,73.6735
89.5692,73.6102
89.7516,73.5173
89.8610,73.4378
89.9172,73.3970
89.9172,73.3970
89.9172,73.3970
90.0620,73.2522
90.0620,73.2522
90.0620,73.2522
90.1823,73.0866
90.1823,73.0866
90.1823,73.0866
90.2295,72.9939
90.2775,72.9431
90.3453,72.9263
90.4114,72.9489
90.4505,72.9939
90.4791,73.0500
90.4977,73.0866
90.6180,73.2522
90.7628,73.3970
90.9034,73.4991
90.9284,73.5173
91.0296,73.5688
91.1108,73.6102
91.1108,73.6102
91.1108,73.6102
91.2151,73.6441
91.3055,73.6735
91.3896,73.6868
91.5076,73.7055
91.5076,73.7055
91.7124,73.7055
91.7124,73.7055
91.7680,73.6967
91.8373,73.7056
91.8751,73.7315
92.3516,74.2079
92.3516,74.2079
92.3862,74.2311
92.3862,74.2311
92.4745,74.2901
92.4745,74.2901
92.4745,74.2901
92.4997,74.3005
92.4997,74.3005
92.4997,74.3005
92.6111,74.3467
92.7272,74.3698
92.7465,74.3736
92.7561,74.3755
92.7561,74.3755
92.7561,74.3755
92.9039,74.3755
94.7255,74.3755
94.7925,74.3952
94.8383,74.4480
94.8495,74.4995
94.8495,74.5229
94.8559,74.5825
94.9062,74.7173
94.9062,74.7173
94.9925,74.8325
94.9925,74.8325
95.1077,74.9188
95.1077,74.9188
95.1526,74.9356
95.2425,74.9691
95.3021,74.9755
95.3127,74.9755
95.3797,74.9952
95.4004,75.0118
96.0706,75.6820
96.0070,75.6991
95.8930,75.7649
95.7999,75.8580
95.7341,75.9720
95.7170,76.0356
95.0847,75.4033
95.0847,75.4033
95.0454,75.4574
94.9489,75.6468
94.8832,75.8489
94.8832,75.8489
94.8500,76.0588
94.8500,76.2712
94.8832,76.4811
94.8832,76.4811
94.9489,76.6832
95.0454,76.8725
95.0847,76.9267
95.7170,76.2944
95.7341,76.3580
95.7999,76.4720
95.8930,76.5651
96.0070,76.6309
96.0706,76.6480
95.4383,77.2803
95.4383,77.2803
95.4924,77.3196
95.6818,77.4161
95.8839,77.4818
96.0938,77.5150
96.3062,77.5150
96.5161,77.4818
96.5161,77.4818
96.7182,77.4161
96.9076,77.3196
96.9617,77.2803
96.9617,77.2803
96.3294,76.6480
96.3930,76.6309
96.5070,76.5651
96.6001,76.4720
96.6659,76.3580
96.6830,76.2944
97.3153,76.9267
97.3153,76.9267
97.3546,76.8726
97.4511,76.6832
97.5168,76.4811
97.5168,76.4811
97.5500,76.2712
97.5500,76.0588
97.5168,75.8489
97.5168,75.8489
97.4511,75.6468
97.3546,75.4574
97.3153,75.4033
97.3153,75.4033
96.6830,76.0356
96.6659,75.9720
96.6001,75.8580
96.5070,75.7649
96.3930,75.6991
96.3294,75.6820
96.9996,75.0118
97.0609,74.9783
97.0873,74.9755
97.0979,74.9755
97.1575,74.9691
97.2923,74.9188
97.4075,74.8325
97.4938,74.7173
97.5441,74.5825
97.5505,74.5229
97.5505,72.7271
97.5441,72.6675
97.5394,72.6550
97.4938,72.5327
97.4938,72.5327
97.4075,72.4175
97.4075,72.4175
97.2923,72.3312
97.2923,72.3312
97.1575,72.2809
97.1575,72.2809
97.0979,72.2745
97.0979,72.2745
97.0979,72.2745
97.0979,72.2745
95.3021,72.2745
95.3021,72.2745
95.2425,72.2809
95.1077,72.3312
95.1077,72.3312
94.9925,72.4175
94.9925,72.4175
94.9062,72.5327
94.9062,72.5327
94.8559,72.6675
94.8497,72.7251
94.8495,72.7271
94.8495,72.7271
94.8495,72.7505
94.8298,72.8175
94.7770,72.8633
94.7255,72.8745
93.1922,72.8745
93.1628,72.8659
93.1328,72.8593
93.1278,72.8556
93.1252,72.8548
93.1045,72.8382
92.9365,72.6701
92.9030,72.6088
92.9017,72.5630
92.9105,72.5074
92.9105,72.3026
92.8889,72.1660
92.8785,72.1005
92.8303,71.9522
92.8152,71.9058
92.8152,71.9058
92.8152,71.9058
92.7675,71.8122
92.7223,71.7234
92.6820,71.6680
92.6020,71.5578
92.4572,71.4130
92.4572,71.4130
92.4116,71.3799
92.3689,71.3246
92.3605,71.2796
92.3605,71.0361
92.3317,70.8911
92.3317,70.8911
92.2751,70.7545
92.2751,70.7545
92.2422,70.7053
92.2422,70.7053
92.1930,70.6316
92.1930,70.6316
89.5784,68.0171
89.5784,68.0170
89.5047,67.9678
89.5047,67.9678
89.4555,67.9349
89.3189,67.8783
89.3189,67.8783
89.1739,67.8495
89.1739,67.8495
86.2622,67.8495
86.1952,67.8298
86.1745,67.8132
84.7768,66.4155
84.7433,66.3541
84.7405,66.3278
84.7405,65.9104
84.7602,65.8434
84.7916,65.8101
84.8372,65.7770
84.9820,65.6322
84.9820,65.6322
84.9820,65.6322
85.0869,65.4878
85.1023,65.4666
85.1495,65.3739
85.1975,65.3231
85.2653,65.3063
85.3314,65.3289
85.3705,65.3739
85.4143,65.4600
85.4177,65.4666
85.5380,65.6322
85.6828,65.7770
85.8377,65.8896
85.8484,65.8973
85.9337,65.9408
86.0308,65.9902
86.0308,65.9902
86.0308,65.9902
86.1351,66.0241
86.2255,66.0535
86.3266,66.0695
86.4276,66.0855
86.4276,66.0855
86.6324,66.0855
86.6324,66.0855
86.8345,66.0535
87.0292,65.9902
87.2116,65.8973
87.3316,65.8101
87.3772,65.7770
87.3772,65.7770
87.3772,65.7770
87.5220,65.6322
87.5220,65.6322
87.5220,65.6322
87.6269,65.4878
87.6423,65.4666
87.6895,65.3739
87.7375,65.3231
87.8053,65.3063
87.8714,65.3289
87.9105,65.3739
87.9543,65.4600
87.9577,65.4666
88.0780,65.6322
88.2228,65.7770
88.3777,65.8896
88.3884,65.8973
88.4737,65.9408
88.5708,65.9902
88.5708,65.9902
88.5708,65.9902
88.6751,66.0241
88.7655,66.0535
88.8666,66.0695
88.9676,66.0855
88.9676,66.0855
89.1724,66.0855
89.1724,66.0855
89.3745,66.0535
89.5692,65.9902
89.7516,65.8973
89.8716,65.8101
89.9172,65.7770
89.9172,65.7770
89.9172,65.7770
90.0620,65.6322
90.0620,65.6322
90.0620,65.6322
90.1669,65.4878
90.1823,65.4666
90.2295,65.3739
90.2775,65.3231
90.3453,65.3063
90.4114,65.3289
90.4505,65.3739
90.4943,65.4600
90.4977,65.4666
90.6180,65.6322
90.7628,65.7770
90.9177,65.8896
90.9284,65.8973
91.0137,65.9408
91.1108,65.9902
91.1108,65.9902
91.1108,65.9902
91.2151,66.0241
91.3055,66.0535
91.4066,66.0695
91.5076,66.0855
91.5076,66.0855
91.7124,66.0855
91.7124,66.0855
91.9145,66.0535
92.1092,65.9902
92.2916,65.8973
92.4116,65.8101
92.4572,65.7770
92.4572,65.7770
92.4572,65.7770
92.6020,65.6322
92.6020,65.6322
92.6020,65.6322
92.6617,65.5500
92.7223,65.4666
92.8152,65.2842
92.8785,65.0895
92.9105,64.8874
92.9105,64.6826
92.8984,64.6064
92.8785,64.4805
92.8152,64.2858
92.7484,64.1546
92.7362,64.1308
92.7234,64.0621
92.7496,63.9974
92.8067,63.9571
92.8467,63.9505
93.7378,63.9505
Z" /> 
</g>
<g style="fill:#FFFFFF; fill-opacity:1.0000; stroke:none;">
<circle cx="110.0000" cy="66.0000" r="0.4500" /> 
</g>
<g style="fill:#FFFFFF; fill-opacity:1.0000; stroke:none;">
<circle cx="112.5400" cy="66.0000" r="0.4500" /> 
</g>
<g style="fill:#FFFFFF; fill-opacity:1.0000; stroke:none;">
<circle cx="82.8400" cy="88.7000" r="0.4500" /> 
</g>
<g style="fill:#FFFFFF; fill-opacity:1.0000; stroke:none;">
<circle cx="80.3000" cy="88.7000" r="0.4500" /> 
</g>
<g style="fill:#FFFFFF; fill-opacity:1.0000; stroke:none;">
<circle cx="71.7400" cy="78.5000" r="0.4500" /> 
</g>
<g style="fill:#FFFFFF; fill-opacity:1.0000; stroke:none;">
<circle cx="69.2000" cy="78.5000" r="0.4500" /> 
</g>
<g style="fill:#FFFFFF; fill-opacity:1.0000; stroke:none;">
<circle cx="65.1400" cy="66.2000" r="0.4500" /> 
</g>
<g style="fill:#FFFFFF; fill-opacity:1.0000; stroke:none;">
<circle cx="62.6000" cy="66.2000" r="0.4500" /> 
</g>
<g style="fill:#FFFFFF; fill-opacity:1.0000; stroke:none;">
<circle cx="83.9900" cy="72.4050" r="0.4000" /> 
</g>
<g style="fill:#FFFFFF; fill-opacity:1.0000; stroke:none;">
<circle cx="86.5300" cy="72.4050" r="0.4000" /> 
</g>
<g style="fill:#FFFFFF; fill-opacity:1.0000; stroke:none;">
<circle cx="89.0700" cy="72.4050" r="0.4000" /> 
</g>
<g style="fill:#FFFFFF; fill-opacity:1.0000; stroke:none;">
<circle cx="91.6100" cy="72.4050" r="0.4000" /> 
</g>
<g style="fill:#FFFFFF; fill-opacity:1.0000; stroke:none;">
<circle cx="91.6100" cy="64.7850" r="0.4000" /> 
</g>
<g style="fill:#FFFFFF; fill-opacity:1.0000; stroke:none;">
<circle cx="89.0700" cy="64.7850" r="0.4000" /> 
</g>
<g style="fill:#FFFFFF; fill-opacity:1.0000; stroke:none;">
<circle cx="86.5300" cy="64.7850" r="0.4000" /> 
</g>
<g style="fill:#FFFFFF; fill-opacity:1.0000; stroke:none;">
<circle cx="83.9900" cy="64.7850" r="0.4000" /> 
</g>
<g style="fill:#FFFFFF; fill-opacity:1.0000; stroke:none;">
<circle cx="67.0700" cy="72.8000" r="0.4500" /> 
</g>
<g style="fill:#FFFFFF; fill-opacity:1.0000; stroke:none;">
<circle cx="64.5300" cy="72.8000" r="0.4500" /> 
</g>
<g style="fill:#FFFFFF; fill-opacity:1.0000; stroke:none;">
<circle cx="82.2500" cy="81.3000" r="0.4000" /> 
</g>
<g style="fill:#FFFFFF; fill-opacity:1.0000; stroke:none;">
<circle cx="84.7500" cy="81.3000" r="0.4000" /> 
</g>
<g style="fill:#FFFFFF; fill-opacity:1.0000; stroke:none;">
<circle cx="104.6000" cy="52.8000" r="0.4500" /> 
</g>
<g style="fill:#FFFFFF; fill-opacity:1.0000; stroke:none;">
<circle cx="107.1400" cy="52.8000" r="0.4500" /> 
</g>
<g style="fill:#FFFFFF; fill-opacity:1.0000; stroke:none;">
<circle cx="87.1100" cy="75.2000" r="0.3500" /> 
</g>
<g style="fill:#FFFFFF; fill-opacity:1.0000; stroke:none;">
<circle cx="79.4900" cy="75.2000" r="0.3500" /> 
</g>
<g style="fill:#FFFFFF; fill-opacity:1.0000; stroke:none;">
<circle cx="70.6400" cy="53.2000" r="0.4500" /> 
</g>
<g style="fill:#FFFFFF; fill-opacity:1.0000; stroke:none;">
<circle cx="68.1000" cy="53.2000" r="0.4500" /> 
</g>
<g style="fill:#FFFFFF; fill-opacity:1.0000; stroke:none;">
<circle cx="66.1400" cy="58.8000" r="0.4500" /> 
</g>
<g style="fill:#FFFFFF; fill-opacity:1.0000; stroke:none;">
<circle cx="63.6000" cy="58.8000" r="0.4500" /> 
</g>
<g style="fill:#FFFFFF; fill-opacity:1.0000; stroke:none;">
<circle cx="92.3300" cy="88.6000" r="0.4500" /> 
</g>
<g style="fill:#FFFFFF; fill-opacity:1.0000; stroke:none;">
<circle cx="94.8700" cy="88.6000" r="0.4500" /> 
</g>
<g style="fill:#FFFFFF; fill-opacity:1.0000; stroke:none;">
<circle cx="87.6000" cy="91.9600" r="0.4500" /> 
</g>
<g style="fill:#FFFFFF; fill-opacity:1.0000; stroke:none;">
<circle cx="87.6000" cy="94.5000" r="0.4500" /> 
</g>
<g style="fill:#FFFFFF; fill-opacity:1.0000; stroke:none;">
<circle cx="72.4000" cy="64.8950" r="0.6500" /> 
</g>
<g style="fill:#FFFFFF; fill-opacity:1.0000; stroke:none;">
<circle cx="77.4000" cy="62.3950" r="0.6500" /> 
</g>
<g style="fill:#FFFFFF; fill-opacity:1.0000; stroke:none;">
<circle cx="72.4000" cy="59.8950" r="0.6500" /> 
</g>
<g style="fill:#FFFFFF; fill-opacity:1.0000; stroke:none;">
<circle cx="103.5000" cy="78.7000" r="0.4500" /> 
</g>
<g style="fill:#FFFFFF; fill-opacity:1.0000; stroke:none;">
<circle cx="106.0400" cy="78.7000" r="0.4500" /> 
</g>
<g style="fill:#FFFFFF; fill-opacity:1.0000; stroke:none;">
<circle cx="87.6000" cy="60.7700" r="0.4500" /> 
</g>
<g style="fill:#FFFFFF; fill-opacity:1.0000; stroke:none;">
<circle cx="87.6000" cy="58.2300" r="0.4500" /> 
</g>
<g style="fill:#FFFFFF; fill-opacity:1.0000; stroke:none;">
<circle cx="97.9000" cy="51.3000" r="0.4500" /> 
</g>
<g style="fill:#FFFFFF; fill-opacity:1.0000; stroke:none;">
<circle cx="100.4400" cy="51.3000" r="0.4500" /> 
</g>
<g style="fill:#FFFFFF; fill-opacity:1.0000; stroke:none;">
<circle cx="92.2000" cy="54.7000" r="0.4500" /> 
</g>
<g style="fill:#FFFFFF; fill-opacity:1.0000; stroke:none;">
<circle cx="92.2000" cy="52.1600" r="0.4500" /> 
</g>
<g style="fill:#FFFFFF; fill-opacity:1.0000; stroke:none;">
<circle cx="74.7300" cy="51.5000" r="0.4500" /> 
</g>
<g style="fill:#FFFFFF; fill-opacity:1.0000; stroke:none;">
<circle cx="77.2700" cy="51.5000" r="0.4500" /> 
</g>
<g style="fill:#FFFFFF; fill-opacity:1.0000; stroke:none;">
<circle cx="98.4300" cy="84.3000" r="0.4500" /> 
</g>
<g style="fill:#FFFFFF; fill-opacity:1.0000; stroke:none;">
<circle cx="100.9700" cy="84.3000" r="0.4500" /> 
</g>
<g style="fill:#FFFFFF; fill-opacity:1.0000; stroke:none;">
<circle cx="96.2000" cy="73.6250" r="0.5000" /> 
</g>
<g style="fill:#FFFFFF; fill-opacity:1.0000; stroke:none;">
<circle cx="96.2000" cy="76.1650" r="0.5000" /> 
</g>
<g style="fill:#FFFFFF; fill-opacity:1.0000; stroke:none;">
<circle cx="98.8900" cy="66.5000" r="0.3500" /> 
</g>
<g style="fill:#FFFFFF; fill-opacity:1.0000; stroke:none;">
<circle cx="106.5100" cy="66.5000" r="0.3500" /> 
</g>
<g style="fill:#FFFFFF; fill-opacity:1.0000; stroke:none;">
<circle cx="83.0000" cy="54.6000" r="0.4500" /> 
</g>
<g style="fill:#FFFFFF; fill-opacity:1.0000; stroke:none;">
<circle cx="83.0000" cy="52.0600" r="0.4500" /> 
</g>
<g style="fill:#FFFFFF; fill-opacity:1.0000; stroke:none;">
<circle cx="108.1300" cy="72.9000" r="0.4500" /> 
</g>
<g style="fill:#FFFFFF; fill-opacity:1.0000; stroke:none;">
<circle cx="110.6700" cy="72.9000" r="0.4500" /> 
</g>
<g style="fill:#FFFFFF; fill-opacity:1.0000; stroke:none;">
<circle cx="96.3300" cy="61.5000" r="0.3750" /> 
</g>
<g style="fill:#FFFFFF; fill-opacity:1.0000; stroke:none;">
<circle cx="97.6000" cy="61.5000" r="0.3750" /> 
</g>
<g style="fill:#FFFFFF; fill-opacity:1.0000; stroke:none;">
<circle cx="98.8700" cy="61.5000" r="0.3750" /> 
</g>
<g style="fill:#FFFFFF; fill-opacity:1.0000; stroke:none;">
<circle cx="76.7700" cy="84.2000" r="0.4500" /> 
</g>
<g style="fill:#FFFFFF; fill-opacity:1.0000; stroke:none;">
<circle cx="74.2300" cy="84.2000" r="0.4500" /> 
</g>
<g style="fill:#FFFFFF; fill-opacity:1.0000; stroke:none;">
<circle cx="109.0000" cy="58.5000" r="0.4500" /> 
</g>
<g style="fill:#FFFFFF; fill-opacity:1.0000; stroke:none;">
<circle cx="111.5400" cy="58.5000" r="0.4500" /> 
</g> 
</svg>
