<?xml version="1.0" standalone="no"?>
 <!DOCTYPE svg PUBLIC "-//W3C//DTD SVG 1.1//EN" 
 "http://www.w3.org/Graphics/SVG/1.1/DTD/svg11.dtd"> 
<svg
  xmlns:svg="http://www.w3.org/2000/svg"
  xmlns="http://www.w3.org/2000/svg"
  xmlns:xlink="http://www.w3.org/1999/xlink"
  version="1.1"
  width="297.0022mm" height="210.0072mm" viewBox="0.0000 0.0000 297.0022 210.0072">
<title>SVG Image created as Day-2-B_Cu.svg date 2026/02/08 01:20:05 </title>
  <desc>Image generated by PCBNEW </desc>
<g style="fill:#000000; fill-opacity:1.0000;stroke:#000000; stroke-opacity:1.0000;
stroke-linecap:round; stroke-linejoin:round;"
 transform="translate(0 0) scale(1 1)">
</g>
<g style="fill:none; 
stroke:#000000; stroke-width:0.3000; stroke-opacity:1; 
stroke-linecap:round; stroke-linejoin:round;">
<text x="104.6000" y="58.1000"
transform="scale(-1 1) translate(-209.200000 0)"
textLength="9.9571" font-size="2.0000" lengthAdjust="spacingAndGlyphs"
text-anchor="start" opacity="0" stroke-opacity="0">Swarnim</text>
<g class="stroked-text"><desc>Swarnim</desc>
<path d="M104.1169 57.8294
L103.9026 57.9008
" />
<path d="M103.9026 57.9008
L103.5455 57.9008
" />
<path d="M103.5455 57.9008
L103.4026 57.8294
" />
<path d="M103.4026 57.8294
L103.3312 57.7580
" />
<path d="M103.3312 57.7580
L103.2598 57.6151
" />
<path d="M103.2598 57.6151
L103.2598 57.4723
" />
<path d="M103.2598 57.4723
L103.3312 57.3294
" />
<path d="M103.3312 57.3294
L103.4026 57.2580
" />
<path d="M103.4026 57.2580
L103.5455 57.1865
" />
<path d="M103.5455 57.1865
L103.8312 57.1151
" />
<path d="M103.8312 57.1151
L103.9741 57.0437
" />
<path d="M103.9741 57.0437
L104.0455 56.9723
" />
<path d="M104.0455 56.9723
L104.1169 56.8294
" />
<path d="M104.1169 56.8294
L104.1169 56.6865
" />
<path d="M104.1169 56.6865
L104.0455 56.5437
" />
<path d="M104.0455 56.5437
L103.9741 56.4723
" />
<path d="M103.9741 56.4723
L103.8312 56.4008
" />
<path d="M103.8312 56.4008
L103.4741 56.4008
" />
<path d="M103.4741 56.4008
L103.2598 56.4723
" />
<path d="M102.7598 56.9008
L102.4741 57.9008
" />
<path d="M102.4741 57.9008
L102.1883 57.1865
" />
<path d="M102.1883 57.1865
L101.9026 57.9008
" />
<path d="M101.9026 57.9008
L101.6169 56.9008
" />
<path d="M100.4026 57.9008
L100.4026 57.1151
" />
<path d="M100.4026 57.1151
L100.4741 56.9723
" />
<path d="M100.4741 56.9723
L100.6169 56.9008
" />
<path d="M100.6169 56.9008
L100.9026 56.9008
" />
<path d="M100.9026 56.9008
L101.0455 56.9723
" />
<path d="M100.4026 57.8294
L100.5455 57.9008
" />
<path d="M100.5455 57.9008
L100.9026 57.9008
" />
<path d="M100.9026 57.9008
L101.0455 57.8294
" />
<path d="M101.0455 57.8294
L101.1169 57.6865
" />
<path d="M101.1169 57.6865
L101.1169 57.5437
" />
<path d="M101.1169 57.5437
L101.0455 57.4008
" />
<path d="M101.0455 57.4008
L100.9026 57.3294
" />
<path d="M100.9026 57.3294
L100.5455 57.3294
" />
<path d="M100.5455 57.3294
L100.4026 57.2580
" />
<path d="M99.6883 57.9008
L99.6883 56.9008
" />
<path d="M99.6883 57.1865
L99.6169 57.0437
" />
<path d="M99.6169 57.0437
L99.5455 56.9723
" />
<path d="M99.5455 56.9723
L99.4026 56.9008
" />
<path d="M99.4026 56.9008
L99.2598 56.9008
" />
<path d="M98.7598 56.9008
L98.7598 57.9008
" />
<path d="M98.7598 57.0437
L98.6883 56.9723
" />
<path d="M98.6883 56.9723
L98.5455 56.9008
" />
<path d="M98.5455 56.9008
L98.3312 56.9008
" />
<path d="M98.3312 56.9008
L98.1883 56.9723
" />
<path d="M98.1883 56.9723
L98.1169 57.1151
" />
<path d="M98.1169 57.1151
L98.1169 57.9008
" />
<path d="M97.4026 57.9008
L97.4026 56.9008
" />
<path d="M97.4026 56.4008
L97.4741 56.4723
" />
<path d="M97.4741 56.4723
L97.4026 56.5437
" />
<path d="M97.4026 56.5437
L97.3312 56.4723
" />
<path d="M97.3312 56.4723
L97.4026 56.4008
" />
<path d="M97.4026 56.4008
L97.4026 56.5437
" />
<path d="M96.6883 57.9008
L96.6883 56.9008
" />
<path d="M96.6883 57.0437
L96.6169 56.9723
" />
<path d="M96.6169 56.9723
L96.4741 56.9008
" />
<path d="M96.4741 56.9008
L96.2598 56.9008
" />
<path d="M96.2598 56.9008
L96.1169 56.9723
" />
<path d="M96.1169 56.9723
L96.0455 57.1151
" />
<path d="M96.0455 57.1151
L96.0455 57.9008
" />
<path d="M96.0455 57.1151
L95.9741 56.9723
" />
<path d="M95.9741 56.9723
L95.8312 56.9008
" />
<path d="M95.8312 56.9008
L95.6169 56.9008
" />
<path d="M95.6169 56.9008
L95.4741 56.9723
" />
<path d="M95.4741 56.9723
L95.4026 57.1151
" />
<path d="M95.4026 57.1151
L95.4026 57.9008
" />
</g></g>
<g style="fill:#000000; fill-opacity:1.0000; stroke:none;">
<circle cx="112.5400" cy="66.0000" r="0.9000" /> 
<path style="fill:#000000; fill-opacity:1.0000; stroke:none;fill-rule:evenodd;"
d="M 109.1000,66.9000
109.1000,65.1000
110.9000,65.1000
110.9000,66.9000
Z" /> 
<path style="fill:#000000; fill-opacity:1.0000; stroke:none;fill-rule:evenodd;"
d="M 67.0400,57.9000
67.0400,59.7000
65.2400,59.7000
65.2400,57.9000
Z" /> 
</g>
<g style="fill:#000000; fill-opacity:1.0000; stroke:none;">
<circle cx="63.6000" cy="58.8000" r="0.9000" /> 
</g>
<g style="fill:#000000; fill-opacity:1.0000; stroke:none;">
<circle cx="85.9000" cy="76.6000" r="0.7000" /> 
</g>
<g style="fill:#000000; fill-opacity:1.0000; stroke:none;">
<circle cx="78.2800" cy="76.6000" r="0.7000" /> 
<path style="fill:#000000; fill-opacity:1.0000; stroke:none;fill-rule:evenodd;"
d="M 66.0400,65.3000
66.0400,67.1000
64.2400,67.1000
64.2400,65.3000
Z" /> 
</g>
<g style="fill:#000000; fill-opacity:1.0000; stroke:none;">
<circle cx="62.6000" cy="66.2000" r="0.9000" /> 
<path style="fill:#000000; fill-opacity:1.0000; stroke:none;fill-rule:evenodd;"
d="M 72.6400,77.6000
72.6400,79.4000
70.8400,79.4000
70.8400,77.6000
Z" /> 
</g>
<g style="fill:#000000; fill-opacity:1.0000; stroke:none;">
<circle cx="69.2000" cy="78.5000" r="0.9000" /> 
</g>
<g style="fill:#000000; fill-opacity:1.0000; stroke:none;">
<circle cx="94.4000" cy="76.2000" r="0.8000" /> 
</g>
<g style="fill:#000000; fill-opacity:1.0000; stroke:none;">
<circle cx="96.9000" cy="76.2000" r="0.8000" /> 
<path style="fill:#000000; fill-opacity:1.0000; stroke:none;fill-rule:evenodd;"
d="M 67.9700,71.9000
67.9700,73.7000
66.1700,73.7000
66.1700,71.9000
Z" /> 
</g>
<g style="fill:#000000; fill-opacity:1.0000; stroke:none;">
<circle cx="64.5300" cy="72.8000" r="0.9000" /> 
<path style="fill:#000000; fill-opacity:1.0000; stroke:none;fill-rule:evenodd;"
d="M 91.4300,89.5000
91.4300,87.7000
93.2300,87.7000
93.2300,89.5000
Z" /> 
</g>
<g style="fill:#000000; fill-opacity:1.0000; stroke:none;">
<circle cx="94.8700" cy="88.6000" r="0.9000" /> 
<path style="fill:#000000; fill-opacity:1.0000; stroke:none;fill-rule:evenodd;"
d="M 77.6700,83.3000
77.6700,85.1000
75.8700,85.1000
75.8700,83.3000
Z" /> 
</g>
<g style="fill:#000000; fill-opacity:1.0000; stroke:none;">
<circle cx="74.2300" cy="84.2000" r="0.9000" /> 
<path style="fill:#000000; fill-opacity:1.0000; stroke:none;fill-rule:evenodd;"
d="M 83.7400,87.8000
83.7400,89.6000
81.9400,89.6000
81.9400,87.8000
Z" /> 
</g>
<g style="fill:#000000; fill-opacity:1.0000; stroke:none;">
<circle cx="80.3000" cy="88.7000" r="0.9000" /> 
<path style="fill:#000000; fill-opacity:1.0000; stroke:none;fill-rule:evenodd;"
d="M 108.1000,59.4000
108.1000,57.6000
109.9000,57.6000
109.9000,59.4000
Z" /> 
</g>
<g style="fill:#000000; fill-opacity:1.0000; stroke:none;">
<circle cx="111.5400" cy="58.5000" r="0.9000" /> 
<path style="fill:#000000; fill-opacity:1.0000; stroke:none;fill-rule:evenodd;"
d="M 95.8050,62.2500
95.8050,60.7500
96.8550,60.7500
96.8550,62.2500
Z" /> 
</g>
<g style="fill:none; 
stroke:#000000; stroke-width:1.0500; stroke-opacity:1; 
stroke-linecap:round; stroke-linejoin:round;">
<path d="M97.6000 61.2750
L97.6000 61.7250
" />
<path d="M98.8700 61.2750
L98.8700 61.7250
" />
</g>
<g style="fill:#000000; fill-opacity:1.0000; stroke:none;">
<circle cx="98.8900" cy="66.5000" r="0.7000" /> 
</g>
<g style="fill:#000000; fill-opacity:1.0000; stroke:none;">
<circle cx="106.5100" cy="66.5000" r="0.7000" /> 
<path style="fill:#000000; fill-opacity:1.0000; stroke:none;fill-rule:evenodd;"
d="M 97.5300,85.2000
97.5300,83.4000
99.3300,83.4000
99.3300,85.2000
Z" /> 
</g>
<g style="fill:#000000; fill-opacity:1.0000; stroke:none;">
<circle cx="100.9700" cy="84.3000" r="0.9000" /> 
<path style="fill:#000000; fill-opacity:1.0000; stroke:none;fill-rule:evenodd;"
d="M 97.0000,52.2000
97.0000,50.4000
98.8000,50.4000
98.8000,52.2000
Z" /> 
</g>
<g style="fill:#000000; fill-opacity:1.0000; stroke:none;">
<circle cx="100.4400" cy="51.3000" r="0.9000" /> 
<path style="fill:#000000; fill-opacity:1.0000; stroke:none;fill-rule:evenodd;"
d="M 102.6000,79.6000
102.6000,77.8000
104.4000,77.8000
104.4000,79.6000
Z" /> 
</g>
<g style="fill:#000000; fill-opacity:1.0000; stroke:none;">
<circle cx="106.0400" cy="78.7000" r="0.9000" /> 
<path style="fill:#000000; fill-opacity:1.0000; stroke:none;fill-rule:evenodd;"
d="M 103.7000,53.7000
103.7000,51.9000
105.5000,51.9000
105.5000,53.7000
Z" /> 
</g>
<g style="fill:#000000; fill-opacity:1.0000; stroke:none;">
<circle cx="107.1400" cy="52.8000" r="0.9000" /> 
</g>
<g style="fill:#000000; fill-opacity:1.0000; stroke:none;">
<circle cx="72.4000" cy="64.8950" r="1.1700" /> 
</g>
<g style="fill:#000000; fill-opacity:1.0000; stroke:none;">
<circle cx="77.4000" cy="62.3950" r="1.1700" /> 
</g>
<g style="fill:#000000; fill-opacity:1.0000; stroke:none;">
<circle cx="72.4000" cy="59.8950" r="1.1700" /> 
<path style="fill:#000000; fill-opacity:1.0000; stroke:none;fill-rule:evenodd;"
d="M 86.7000,91.0600
88.5000,91.0600
88.5000,92.8600
86.7000,92.8600
Z" /> 
</g>
<g style="fill:#000000; fill-opacity:1.0000; stroke:none;">
<circle cx="87.6000" cy="94.5000" r="0.9000" /> 
<path style="fill:#000000; fill-opacity:1.0000; stroke:none;fill-rule:evenodd;"
d="M 88.5000,61.6700
86.7000,61.6700
86.7000,59.8700
88.5000,59.8700
Z" /> 
</g>
<g style="fill:#000000; fill-opacity:1.0000; stroke:none;">
<circle cx="87.6000" cy="58.2300" r="0.9000" /> 
<path style="fill:#000000; fill-opacity:1.0000; stroke:none;fill-rule:evenodd;"
d="M 83.9000,55.5000
82.1000,55.5000
82.1000,53.7000
83.9000,53.7000
Z" /> 
</g>
<g style="fill:#000000; fill-opacity:1.0000; stroke:none;">
<circle cx="83.0000" cy="52.0600" r="0.9000" /> 
<path style="fill:#000000; fill-opacity:1.0000; stroke:none;fill-rule:evenodd;"
d="M 78.1700,50.6000
78.1700,52.4000
76.3700,52.4000
76.3700,50.6000
Z" /> 
</g>
<g style="fill:#000000; fill-opacity:1.0000; stroke:none;">
<circle cx="74.7300" cy="51.5000" r="0.9000" /> 
<path style="fill:#000000; fill-opacity:1.0000; stroke:none;fill-rule:evenodd;"
d="M 107.2300,73.8000
107.2300,72.0000
109.0300,72.0000
109.0300,73.8000
Z" /> 
</g>
<g style="fill:#000000; fill-opacity:1.0000; stroke:none;">
<circle cx="110.6700" cy="72.9000" r="0.9000" /> 
<path style="fill:#000000; fill-opacity:1.0000; stroke:none;fill-rule:evenodd;"
d="M 71.5400,52.3000
71.5400,54.1000
69.7400,54.1000
69.7400,52.3000
Z" /> 
</g>
<g style="fill:#000000; fill-opacity:1.0000; stroke:none;">
<circle cx="68.1000" cy="53.2000" r="0.9000" /> 
<path style="fill:#000000; fill-opacity:1.0000; stroke:none;fill-rule:evenodd;"
d="M 86.5500,83.4750
86.5500,81.7750
88.2500,81.7750
88.2500,83.4750
Z" /> 
</g>
<g style="fill:#000000; fill-opacity:1.0000; stroke:none;">
<circle cx="87.4000" cy="85.1650" r="0.8500" /> 
<path style="fill:#000000; fill-opacity:1.0000; stroke:none;fill-rule:evenodd;"
d="M 93.1000,55.6000
91.3000,55.6000
91.3000,53.8000
93.1000,53.8000
Z" /> 
</g>
<g style="fill:#000000; fill-opacity:1.0000; stroke:none;">
<circle cx="92.2000" cy="52.1600" r="0.9000" /> 
<path style="fill:#000000; fill-opacity:1.0000; stroke:none;fill-rule:evenodd;"
d="M 83.4400,73.2050
83.3443,73.1860
83.2632,73.1318
83.2090,73.0507
83.1900,72.9550
83.1900,71.8550
83.2090,71.7593
83.2632,71.6782
83.3443,71.6240
83.4400,71.6050
84.5400,71.6050
84.6357,71.6240
84.7168,71.6782
84.7710,71.7593
84.7900,71.8550
84.7900,72.9550
84.7710,73.0507
84.7168,73.1318
84.6357,73.1860
84.5400,73.2050
Z" /> 
</g>
<g style="fill:#000000; fill-opacity:1.0000; stroke:none;">
<circle cx="86.5300" cy="72.4050" r="0.8000" /> 
</g>
<g style="fill:#000000; fill-opacity:1.0000; stroke:none;">
<circle cx="89.0700" cy="72.4050" r="0.8000" /> 
</g>
<g style="fill:#000000; fill-opacity:1.0000; stroke:none;">
<circle cx="91.6100" cy="72.4050" r="0.8000" /> 
</g>
<g style="fill:#000000; fill-opacity:1.0000; stroke:none;">
<circle cx="91.6100" cy="64.7850" r="0.8000" /> 
</g>
<g style="fill:#000000; fill-opacity:1.0000; stroke:none;">
<circle cx="89.0700" cy="64.7850" r="0.8000" /> 
</g>
<g style="fill:#000000; fill-opacity:1.0000; stroke:none;">
<circle cx="86.5300" cy="64.7850" r="0.8000" /> 
</g>
<g style="fill:#000000; fill-opacity:1.0000; stroke:none;">
<circle cx="83.9900" cy="64.7850" r="0.8000" /> 
</g>
<g style="fill:none; 
stroke:#000000; stroke-width:0.5000; stroke-opacity:1; 
stroke-linecap:round; stroke-linejoin:round;">
<path d="M74.1000 60.8000
L74.1000 64.0000
" />
<path d="M74.1000 64.0000
L74.8850 64.7850
" />
<path d="M74.8850 64.7850
L78.7000 64.7850
" />
<path d="M77.8000 59.5000
L75.4000 59.5000
" />
<path d="M80.7000 62.4000
L77.8000 59.5000
" />
<path d="M95.4300 62.4000
L80.7000 62.4000
" />
<path d="M96.3300 61.5000
L95.4300 62.4000
" />
<path d="M75.4000 59.5000
L74.1000 60.8000
" />
<path d="M97.6000 64.9000
L94.4000 68.1000
" />
<path d="M97.6000 61.5000
L97.6000 64.9000
" />
<path d="M94.4000 68.1000
L94.4000 70.1150
" />
<path d="M80.2000 80.2000
L80.2000 66.2850
" />
<path d="M82.6250 82.6250
L80.2000 80.2000
" />
<path d="M87.4000 82.6250
L82.6250 82.6250
" />
<path d="M80.2000 66.2850
L78.7000 64.7850
" />
<path d="M78.7000 64.7850
L83.9900 64.7850
" />
<path d="M78.4050 63.4000
L87.6850 63.4000
" />
<path d="M87.6850 63.4000
L89.0700 64.7850
" />
<path d="M77.4000 62.3950
L78.4050 63.4000
" />
<path d="M78.2800 70.7750
L72.4000 64.8950
" />
<path d="M78.2800 76.6000
L78.2800 70.7750
" />
<path d="M82.9000 77.9000
L83.9000 78.9000
" />
<path d="M83.9000 78.9000
L91.7000 78.9000
" />
<path d="M86.5300 72.4050
L86.5300 72.7700
" />
<path d="M86.5300 72.7700
L82.9000 76.4000
" />
<path d="M82.9000 76.4000
L82.9000 77.9000
" />
<path d="M91.7000 78.9000
L94.4000 76.2000
" />
<path d="M85.9000 75.5750
L85.9000 76.6000
" />
<path d="M89.0700 72.4050
L85.9000 75.5750
" />
<path d="M94.4000 70.1150
L94.4000 76.2000
" />
<path d="M89.0700 64.7850
L94.4000 70.1150
" />
<path d="M83.9900 64.7850
L91.6100 72.4050
" />
</g>
<g style="fill:none; 
stroke:#000000; stroke-width:0.2000; stroke-opacity:1; 
stroke-linecap:round; stroke-linejoin:round;">
<path d="M85.2100 76.2650
L85.2100 76.3000
" />
</g>
<g style="fill:none; 
stroke:#000000; stroke-width:0.5000; stroke-opacity:1; 
stroke-linecap:round; stroke-linejoin:round;">
<path d="M71.2700 52.5000
L71.2700 53.2700
" />
<path d="M78.0400 51.0000
L77.8000 51.0000
" />
<path d="M100.6700 50.6000
L99.7700 51.5000
" />
<path d="M77.8000 51.0000
L77.6000 51.2000
" />
<path d="M100.9700 84.3000
L96.6700 88.6000
" />
<path d="M100.4400 51.3000
L105.6400 51.3000
" />
<path d="M92.2000 52.1600
L94.4110 49.9490
" />
<path d="M69.2000 79.1700
L69.2000 78.5000
" />
<path d="M111.5400 60.4000
L111.5400 65.0000
" />
<path d="M99.0890 49.9490
L100.4400 51.3000
" />
<path d="M94.4110 49.9490
L99.0890 49.9490
" />
<path d="M83.0000 52.0600
L87.6000 56.6600
" />
<path d="M63.6000 58.8000
L68.1000 54.3000
" />
<path d="M105.6400 51.3000
L107.1400 52.8000
" />
<path d="M78.7300 88.7000
L74.2300 84.2000
" />
<path d="M94.8700 88.6000
L88.9700 94.5000
" />
<path d="M69.2000 77.4700
L64.5300 72.8000
" />
<path d="M63.6000 65.2000
L63.6000 58.8000
" />
<path d="M87.6000 56.6600
L87.6000 58.2300
" />
<path d="M112.5400 71.0300
L110.6700 72.9000
" />
<path d="M74.7300 51.5000
L76.0810 50.1490
" />
<path d="M64.5300 72.8000
L64.5300 68.1300
" />
<path d="M88.9700 94.5000
L87.6000 94.5000
" />
<path d="M110.6700 72.9000
L106.0400 77.5300
" />
<path d="M96.6700 88.6000
L94.8700 88.6000
" />
<path d="M87.6000 56.7600
L92.2000 52.1600
" />
<path d="M106.0400 77.5300
L106.0400 78.7000
" />
<path d="M68.1000 54.3000
L68.1000 53.2000
" />
<path d="M62.6000 66.2000
L63.6000 65.2000
" />
<path d="M106.5100 66.5000
L106.5100 65.4300
" />
<path d="M86.1000 94.5000
L80.3000 88.7000
" />
<path d="M107.1400 54.1000
L111.5400 58.5000
" />
<path d="M107.1400 52.8000
L107.1400 54.1000
" />
<path d="M112.5400 66.0000
L112.5400 71.0300
" />
<path d="M80.3000 88.7000
L78.7300 88.7000
" />
<path d="M87.6000 94.5000
L86.1000 94.5000
" />
<path d="M111.5400 65.0000
L112.5400 66.0000
" />
<path d="M64.5300 68.1300
L62.6000 66.2000
" />
<path d="M76.0810 50.1490
L81.0890 50.1490
" />
<path d="M68.1000 53.2000
L69.8000 51.5000
" />
<path d="M81.0890 50.1490
L83.0000 52.0600
" />
<path d="M69.8000 51.5000
L74.7300 51.5000
" />
<path d="M106.0400 78.7000
L106.0400 79.2300
" />
<path d="M74.2300 84.2000
L69.2000 79.1700
" />
<path d="M106.5100 65.4300
L111.5400 60.4000
" />
<path d="M106.0400 79.2300
L100.9700 84.3000
" />
<path d="M111.5400 58.5000
L111.5400 60.4000
" />
<path d="M87.6000 58.2300
L87.6000 56.7600
" />
<path d="M69.2000 78.5000
L69.2000 77.4700
" />
<path d="M98.8900 61.5200
L98.8700 61.5000
" />
<path d="M98.8700 61.5000
L98.8700 66.4800
" />
<path d="M98.8700 66.4800
L98.8900 66.5000
" />
<path style="fill:#000000; fill-opacity:1.0000; stroke:none;fill-rule:evenodd;"
d="M 96.4430,50.7192
96.4888,50.7720
96.5000,50.8235
96.5000,51.0500
97.5247,51.0500
97.4807,51.1263
97.4500,51.2408
97.4500,51.3592
97.4807,51.4737
97.5247,51.5500
96.5000,51.5500
96.5000,52.2478
96.5064,52.3074
96.5064,52.3074
96.5566,52.4421
96.5566,52.4421
96.6428,52.5572
96.6428,52.5572
96.7579,52.6433
96.7579,52.6434
96.8926,52.6936
96.8926,52.6936
96.9522,52.7000
96.9522,52.7000
97.6500,52.7000
97.6500,51.6753
97.7263,51.7193
97.8408,51.7500
97.9592,51.7500
98.0737,51.7193
98.1500,51.6753
98.1500,52.7000
98.8478,52.7000
98.8478,52.7000
98.9074,52.6936
98.9074,52.6936
99.0421,52.6434
99.0421,52.6433
99.1572,52.5572
99.1572,52.5572
99.2433,52.4421
99.2434,52.4421
99.2732,52.3620
99.3151,52.3061
99.3805,52.2817
99.4488,52.2965
99.4771,52.3177
99.5276,52.3682
99.5276,52.3682
99.6372,52.4478
99.7060,52.4978
99.7712,52.5311
99.9024,52.5979
99.9024,52.5979
99.9898,52.6263
100.1120,52.6660
100.3298,52.7005
100.3298,52.7005
100.5502,52.7005
100.5502,52.7005
100.7680,52.6660
100.9776,52.5979
101.1740,52.4978
101.3524,52.3682
101.5082,52.2124
101.5887,52.1016
101.6440,52.0589
101.6890,52.0505
103.0760,52.0505
103.1430,52.0702
103.1888,52.1230
103.2000,52.1745
103.2000,52.5500
104.2247,52.5500
104.1807,52.6263
104.1500,52.7408
104.1500,52.8592
104.1807,52.9737
104.2247,53.0500
103.2000,53.0500
103.2000,53.7478
103.2064,53.8074
103.2064,53.8074
103.2566,53.9421
103.2566,53.9421
103.3428,54.0572
103.3428,54.0572
103.4579,54.1433
103.4579,54.1434
103.5926,54.1936
103.5926,54.1936
103.6522,54.2000
103.6522,54.2000
104.3500,54.2000
104.3500,53.1753
104.4263,53.2193
104.5408,53.2500
104.6592,53.2500
104.7737,53.2193
104.8500,53.1753
104.8500,54.2000
105.5478,54.2000
105.5478,54.2000
105.6074,54.1936
105.6074,54.1936
105.7421,54.1434
105.7421,54.1433
105.8572,54.0572
105.8572,54.0572
105.9433,53.9421
105.9434,53.9421
105.9732,53.8620
105.9905,53.8389
106.0054,53.8141
106.0112,53.8113
106.0151,53.8061
106.0422,53.7960
106.0681,53.7832
106.0745,53.7839
106.0805,53.7817
106.1088,53.7878
106.1375,53.7911
106.1441,53.7955
106.1488,53.7965
106.1678,53.8093
106.1726,53.8132
106.2276,53.8682
106.3412,53.9507
106.3439,53.9529
106.3618,53.9790
106.3811,54.0040
106.3819,54.0083
106.3834,54.0106
106.3836,54.0176
106.3895,54.0490
106.3895,54.1739
106.3895,54.1739
106.3895,54.1739
106.4183,54.3189
106.4183,54.3189
106.4749,54.4555
106.4749,54.4555
106.5032,54.4979
106.5032,54.4979
106.5570,54.5784
106.5570,54.5784
106.5570,54.5784
108.0786,56.1000
108.8670,56.8883
108.9004,56.9496
108.8955,57.0193
108.8536,57.0753
108.7881,57.0997
108.7793,57.1000
108.0522,57.1000
107.9926,57.1064
107.9926,57.1064
107.8579,57.1566
107.8579,57.1566
107.7428,57.2428
107.7428,57.2428
107.6566,57.3579
107.6566,57.3579
107.6064,57.4926
107.6064,57.4926
107.6000,57.5522
107.6000,58.2500
108.6247,58.2500
108.5807,58.3263
108.5500,58.4408
108.5500,58.5592
108.5807,58.6737
108.6247,58.7500
107.6000,58.7500
107.6000,59.4478
107.6064,59.5074
107.6064,59.5074
107.6566,59.6421
107.6566,59.6421
107.7428,59.7572
107.7428,59.7572
107.8579,59.8433
107.8579,59.8434
107.9926,59.8936
107.9926,59.8936
108.0522,59.9000
108.0522,59.9000
108.7500,59.9000
108.7500,58.8753
108.8263,58.9193
108.9408,58.9500
109.0592,58.9500
109.1737,58.9193
109.2500,58.8753
109.2500,59.9000
109.9478,59.9000
109.9478,59.9000
110.0074,59.8936
110.0074,59.8936
110.1421,59.8434
110.1421,59.8433
110.2572,59.7572
110.2572,59.7572
110.3434,59.6421
110.3434,59.6421
110.3732,59.5620
110.3905,59.5389
110.4054,59.5141
110.4112,59.5113
110.4151,59.5061
110.4422,59.4960
110.4681,59.4832
110.4745,59.4839
110.4805,59.4817
110.5088,59.4878
110.5375,59.4911
110.5441,59.4955
110.5488,59.4965
110.5678,59.5093
110.5726,59.5132
110.6276,59.5682
110.7412,59.6507
110.7439,59.6529
110.7618,59.6790
110.7811,59.7040
110.7819,59.7083
110.7834,59.7106
110.7836,59.7176
110.7895,59.7490
110.7895,60.0378
110.7698,60.1048
110.7532,60.1255
105.9270,64.9516
105.9206,64.9612
105.8921,65.0039
105.8449,65.0745
105.8449,65.0745
105.7883,65.2111
105.7883,65.2111
105.7595,65.3561
105.7595,65.5014
105.7398,65.5684
105.7232,65.5891
105.5943,65.7179
105.4832,65.8708
105.3975,66.0392
105.3391,66.2189
105.3095,66.4055
105.3095,66.5945
105.3391,66.7811
105.3975,66.9608
105.4372,67.0389
105.4832,67.1292
105.5943,67.2821
105.7279,67.4157
105.8808,67.5268
105.9134,67.5434
106.0492,67.6125
106.0492,67.6125
106.0492,67.6125
106.1321,67.6395
106.2289,67.6709
106.4155,67.7005
106.4155,67.7005
106.6045,67.7005
106.7911,67.6709
106.8507,67.6516
106.9708,67.6125
107.1392,67.5268
107.2921,67.4157
107.4257,67.2821
107.5368,67.1292
107.6225,66.9608
107.6809,66.7811
107.7021,66.6472
107.7105,66.5945
107.7105,66.4055
107.6900,66.2763
107.6809,66.2189
107.6225,66.0392
107.6225,66.0392
107.6225,66.0392
107.5667,65.9295
107.5368,65.8708
107.4281,65.7212
107.4046,65.6554
107.4204,65.5874
107.4407,65.5607
110.5778,62.4235
110.6391,62.3901
110.7088,62.3950
110.7648,62.4369
110.7892,62.5024
110.7895,62.5112
110.7895,64.4760
110.7698,64.5430
110.7170,64.5888
110.6655,64.6000
110.2500,64.6000
110.2500,65.6247
110.1737,65.5807
110.0592,65.5500
109.9408,65.5500
109.8263,65.5807
109.7500,65.6247
109.7500,64.6000
109.0522,64.6000
108.9926,64.6064
108.9926,64.6064
108.8579,64.6566
108.8579,64.6566
108.7428,64.7428
108.7428,64.7428
108.6566,64.8579
108.6566,64.8579
108.6064,64.9926
108.6064,64.9926
108.6000,65.0522
108.6000,65.7500
109.6247,65.7500
109.5807,65.8263
109.5500,65.9408
109.5500,66.0592
109.5807,66.1737
109.6247,66.2500
108.6000,66.2500
108.6000,66.9478
108.6064,67.0074
108.6064,67.0074
108.6566,67.1421
108.6566,67.1421
108.7428,67.2572
108.7428,67.2572
108.8579,67.3434
108.8579,67.3434
108.9926,67.3936
108.9926,67.3936
109.0522,67.4000
109.0522,67.4000
109.7500,67.4000
109.7500,66.3753
109.8263,66.4193
109.9408,66.4500
110.0592,66.4500
110.1737,66.4193
110.2500,66.3753
110.2500,67.4000
110.9478,67.4000
110.9478,67.4000
111.0074,67.3936
111.0074,67.3936
111.1421,67.3434
111.1421,67.3434
111.2572,67.2572
111.2572,67.2572
111.3434,67.1421
111.3434,67.1421
111.3732,67.0620
111.3905,67.0389
111.4054,67.0141
111.4112,67.0113
111.4151,67.0061
111.4422,66.9960
111.4681,66.9832
111.4745,66.9839
111.4805,66.9817
111.5088,66.9878
111.5375,66.9911
111.5441,66.9955
111.5488,66.9965
111.5678,67.0093
111.5726,67.0132
111.6276,67.0682
111.7412,67.1507
111.7439,67.1529
111.7618,67.1790
111.7811,67.2040
111.7819,67.2083
111.7834,67.2106
111.7836,67.2176
111.7895,67.2490
111.7895,70.6678
111.7698,70.7348
111.7532,70.7554
111.0225,71.4861
110.9612,71.5196
110.9154,71.5209
110.7802,71.4995
110.7802,71.4995
110.5598,71.4995
110.5035,71.5084
110.3420,71.5340
110.1324,71.6021
110.1324,71.6021
109.9360,71.7022
109.7576,71.8318
109.7576,71.8318
109.7071,71.8823
109.6458,71.9158
109.5761,71.9108
109.5201,71.8689
109.5032,71.8380
109.4734,71.7579
109.4733,71.7579
109.3872,71.6428
109.3872,71.6428
109.2721,71.5566
109.2721,71.5566
109.1374,71.5064
109.1374,71.5064
109.0778,71.5000
108.3800,71.5000
108.3800,72.5247
108.3037,72.4807
108.1892,72.4500
108.0708,72.4500
107.9563,72.4807
107.8800,72.5247
107.8800,71.5000
107.1822,71.5000
107.1226,71.5064
107.1226,71.5064
106.9879,71.5566
106.9879,71.5566
106.8728,71.6428
106.8728,71.6428
106.7866,71.7579
106.7866,71.7579
106.7364,71.8926
106.7364,71.8926
106.7300,71.9522
106.7300,72.6500
107.7547,72.6500
107.7107,72.7263
107.6800,72.8408
107.6800,72.9592
107.7107,73.0737
107.7547,73.1500
106.7300,73.1500
106.7300,73.8478
106.7364,73.9074
106.7364,73.9074
106.7866,74.0421
106.7866,74.0421
106.8728,74.1572
106.8728,74.1572
106.9879,74.2433
106.9879,74.2434
107.1226,74.2936
107.1226,74.2936
107.1822,74.3000
107.1822,74.3000
107.9093,74.3000
107.9763,74.3197
108.0221,74.3725
108.0320,74.4416
108.0030,74.5052
107.9969,74.5117
105.4571,77.0516
105.4570,77.0516
105.4102,77.1217
105.4102,77.1217
105.3749,77.1745
105.3183,77.3111
105.3183,77.3111
105.2895,77.4561
105.2889,77.4621
105.2871,77.4620
105.2792,77.4862
105.2698,77.5180
105.2682,77.5198
105.2678,77.5211
105.2592,77.5299
105.2439,77.5471
105.2412,77.5493
105.1276,77.6318
105.0726,77.6867
105.0678,77.6907
105.0411,77.7019
105.0158,77.7158
105.0093,77.7153
105.0034,77.7178
104.9749,77.7129
104.9461,77.7108
104.9409,77.7070
104.9346,77.7058
104.9133,77.6863
104.8901,77.6689
104.8858,77.6610
104.8831,77.6585
104.8819,77.6539
104.8732,77.6380
104.8434,77.5579
104.8434,77.5579
104.7572,77.4428
104.7572,77.4428
104.6421,77.3566
104.6421,77.3566
104.5074,77.3064
104.5074,77.3064
104.4478,77.3000
103.7500,77.3000
103.7500,78.3247
103.6737,78.2807
103.5592,78.2500
103.4408,78.2500
103.3263,78.2807
103.2500,78.3247
103.2500,77.3000
102.5522,77.3000
102.4926,77.3064
102.4926,77.3064
102.3579,77.3566
102.3579,77.3566
102.2428,77.4428
102.2428,77.4428
102.1566,77.5579
102.1566,77.5579
102.1064,77.6926
102.1064,77.6926
102.1000,77.7522
102.1000,78.4500
103.1247,78.4500
103.0807,78.5263
103.0500,78.6408
103.0500,78.7592
103.0807,78.8737
103.1247,78.9500
102.1000,78.9500
102.1000,79.6478
102.1064,79.7074
102.1064,79.7074
102.1566,79.8421
102.1566,79.8421
102.2428,79.9572
102.2428,79.9572
102.3579,80.0433
102.3579,80.0434
102.4926,80.0936
102.4926,80.0936
102.5522,80.1000
102.5522,80.1000
103.2500,80.1000
103.2500,79.0753
103.3263,79.1193
103.4408,79.1500
103.5592,79.1500
103.6737,79.1193
103.7500,79.0753
103.7500,80.1000
103.8093,80.1000
103.8763,80.1197
103.9221,80.1725
103.9320,80.2416
103.9030,80.3052
103.8969,80.3117
101.3225,82.8861
101.2612,82.9196
101.2154,82.9209
101.0802,82.8995
101.0802,82.8995
100.8598,82.8995
100.7872,82.9110
100.6420,82.9340
100.4324,83.0021
100.4324,83.0021
100.2360,83.1022
100.0576,83.2318
100.0576,83.2318
100.0071,83.2823
99.9458,83.3158
99.8761,83.3108
99.8201,83.2689
99.8032,83.2380
99.7734,83.1579
99.7733,83.1579
99.6872,83.0428
99.6872,83.0428
99.5721,82.9566
99.5721,82.9566
99.4374,82.9064
99.4374,82.9064
99.3778,82.9000
98.6800,82.9000
98.6800,83.9247
98.6037,83.8807
98.4892,83.8500
98.3708,83.8500
98.2563,83.8807
98.1800,83.9247
98.1800,82.9000
97.4822,82.9000
97.4226,82.9064
97.4226,82.9064
97.2879,82.9566
97.2879,82.9566
97.1728,83.0428
97.1728,83.0428
97.0866,83.1579
97.0866,83.1579
97.0364,83.2926
97.0364,83.2926
97.0300,83.3522
97.0300,84.0500
98.0547,84.0500
98.0107,84.1263
97.9800,84.2408
97.9800,84.3592
98.0107,84.4737
98.0547,84.5500
97.0300,84.5500
97.0300,85.2478
97.0364,85.3074
97.0364,85.3074
97.0866,85.4421
97.0866,85.4421
97.1728,85.5572
97.1728,85.5572
97.2879,85.6433
97.2879,85.6434
97.4226,85.6936
97.4226,85.6936
97.4822,85.7000
97.4822,85.7000
98.2093,85.7000
98.2763,85.7197
98.3221,85.7725
98.3320,85.8416
98.3030,85.9052
98.2970,85.9117
96.3955,87.8132
96.3685,87.8279
96.3427,87.8445
96.3365,87.8454
96.3341,87.8467
96.3078,87.8495
96.1190,87.8495
96.0520,87.8298
96.0187,87.7984
95.9382,87.6876
95.7824,87.5318
95.7824,87.5318
95.6040,87.4022
95.6040,87.4022
95.6040,87.4022
95.5146,87.3566
95.4076,87.3021
95.4076,87.3021
95.1980,87.2340
95.0891,87.2167
94.9802,87.1995
94.7598,87.1995
94.6872,87.2110
94.5420,87.2340
94.3324,87.3021
94.3324,87.3021
94.1360,87.4022
93.9576,87.5318
93.9576,87.5318
93.9071,87.5823
93.8458,87.6158
93.7761,87.6108
93.7201,87.5689
93.7032,87.5380
93.6734,87.4579
93.6733,87.4579
93.5872,87.3428
93.5872,87.3428
93.4721,87.2566
93.4721,87.2566
93.3374,87.2064
93.3374,87.2064
93.2778,87.2000
92.5800,87.2000
92.5800,88.2247
92.5037,88.1807
92.3892,88.1500
92.2708,88.1500
92.1563,88.1807
92.0800,88.2247
92.0800,87.2000
91.3822,87.2000
91.3226,87.2064
91.3226,87.2064
91.1879,87.2566
91.1879,87.2566
91.0728,87.3428
91.0728,87.3428
90.9866,87.4579
90.9866,87.4579
90.9364,87.5926
90.9364,87.5926
90.9300,87.6522
90.9300,88.3500
91.9547,88.3500
91.9107,88.4263
91.8800,88.5408
91.8800,88.6592
91.9107,88.7737
91.9547,88.8500
90.9300,88.8500
90.9300,89.5478
90.9364,89.6074
90.9364,89.6074
90.9866,89.7421
90.9866,89.7421
91.0728,89.8572
91.0728,89.8572
91.1879,89.9433
91.1879,89.9434
91.3226,89.9936
91.3226,89.9936
91.3822,90.0000
91.3822,90.0000
92.1093,90.0000
92.1763,90.0197
92.2221,90.0725
92.2320,90.1416
92.2030,90.2052
92.1970,90.2117
89.0879,93.3208
89.0265,93.3542
88.9569,93.3493
88.9009,93.3074
88.8765,93.2419
88.8914,93.1737
88.9009,93.1588
88.9434,93.1021
88.9434,93.1021
88.9936,92.9674
88.9936,92.9674
89.0000,92.9078
89.0000,92.9078
89.0000,92.2100
87.9753,92.2100
88.0193,92.1337
88.0500,92.0192
88.0500,91.9008
88.0193,91.7863
87.9753,91.7100
89.0000,91.7100
89.0000,91.0122
89.0000,91.0122
88.9936,90.9526
88.9936,90.9526
88.9434,90.8179
88.9433,90.8179
88.8572,90.7028
88.8572,90.7028
88.7421,90.6166
88.7421,90.6166
88.6074,90.5664
88.6074,90.5664
88.5478,90.5600
87.8500,90.5600
87.8500,91.5847
87.7737,91.5407
87.6592,91.5100
87.5408,91.5100
87.4263,91.5407
87.3500,91.5847
87.3500,90.5600
86.6522,90.5600
86.5926,90.5664
86.5926,90.5664
86.4579,90.6166
86.4579,90.6166
86.3428,90.7028
86.3428,90.7028
86.2566,90.8179
86.2566,90.8179
86.2064,90.9526
86.2064,90.9526
86.2000,91.0122
86.2000,91.7100
87.2247,91.7100
87.1807,91.7863
87.1500,91.9008
87.1500,92.0192
87.1807,92.1337
87.2247,92.2100
86.2000,92.2100
86.2000,92.9078
86.2064,92.9674
86.2064,92.9674
86.2566,93.1021
86.2566,93.1021
86.3428,93.2172
86.3428,93.2172
86.4579,93.3033
86.4579,93.3034
86.5380,93.3332
86.5626,93.3516
86.5884,93.3682
86.5903,93.3724
86.5939,93.3751
86.6046,93.4039
86.6174,93.4318
86.6167,93.4363
86.6183,93.4405
86.6118,93.4706
86.6074,93.5010
86.6042,93.5056
86.6035,93.5088
86.5883,93.5306
86.5854,93.5340
86.5318,93.5876
86.4950,93.6383
86.4915,93.6423
86.4664,93.6584
86.4428,93.6766
86.4373,93.6771
86.4327,93.6801
86.4029,93.6800
86.3732,93.6826
86.3683,93.6800
86.3628,93.6800
86.3377,93.6639
86.3114,93.6500
86.3101,93.6487
83.7579,91.0965
82.9730,90.3117
82.9396,90.2504
82.9445,90.1807
82.9864,90.1247
83.0519,90.1003
83.0607,90.1000
83.7878,90.1000
83.7878,90.1000
83.8474,90.0936
83.8474,90.0936
83.9821,90.0434
83.9821,90.0433
84.0972,89.9572
84.0972,89.9572
84.1833,89.8421
84.1834,89.8421
84.2336,89.7074
84.2336,89.7074
84.2400,89.6478
84.2400,89.6478
84.2400,88.9500
83.2153,88.9500
83.2593,88.8737
83.2900,88.7592
83.2900,88.6408
83.2593,88.5263
83.2153,88.4500
84.2400,88.4500
84.2400,87.7522
84.2400,87.7522
84.2336,87.6926
84.2336,87.6926
84.2334,87.6922
84.2334,87.6922
84.1834,87.5579
84.1833,87.5579
84.0972,87.4428
84.0972,87.4428
83.9821,87.3566
83.9821,87.3566
83.8474,87.3064
83.8474,87.3064
83.7878,87.3000
83.0900,87.3000
83.0900,88.3247
83.0137,88.2807
82.8992,88.2500
82.7808,88.2500
82.6663,88.2807
82.5900,88.3247
82.5900,87.3000
81.8922,87.3000
81.8326,87.3064
81.8326,87.3064
81.6979,87.3566
81.6979,87.3566
81.5828,87.4428
81.5828,87.4428
81.4966,87.5579
81.4966,87.5579
81.4668,87.6380
81.4249,87.6939
81.3594,87.7183
81.2912,87.7035
81.2629,87.6823
81.2124,87.6318
81.2124,87.6318
81.0340,87.5022
81.0340,87.5022
81.0340,87.5022
80.9711,87.4701
80.8376,87.4021
80.8376,87.4021
80.6280,87.3340
80.5191,87.3167
80.4102,87.2995
80.1898,87.2995
80.1172,87.3110
79.9720,87.3340
79.7624,87.4021
79.7624,87.4021
79.5660,87.5022
79.3876,87.6318
79.3876,87.6318
79.2318,87.7876
79.2318,87.7876
79.1687,87.8745
79.1133,87.9172
79.0437,87.9231
78.9819,87.8905
78.9807,87.8893
76.9030,85.8117
76.8696,85.7504
76.8745,85.6807
76.9164,85.6247
76.9819,85.6003
76.9907,85.6000
77.7178,85.6000
77.7178,85.6000
77.7774,85.5936
77.7774,85.5936
77.9121,85.5434
77.9121,85.5433
78.0272,85.4572
78.0272,85.4572
78.1133,85.3421
78.1134,85.3421
78.1636,85.2074
78.1636,85.2074
78.1700,85.1478
78.1700,85.1478
78.1700,84.4500
77.1453,84.4500
77.1893,84.3737
77.2200,84.2592
77.2200,84.1408
77.1893,84.0263
77.1453,83.9500
78.1700,83.9500
78.1700,83.2522
78.1700,83.2522
78.1636,83.1926
78.1636,83.1926
78.1134,83.0579
78.1133,83.0579
78.0272,82.9428
78.0272,82.9428
77.9121,82.8566
77.9121,82.8566
77.7774,82.8064
77.7774,82.8064
77.7178,82.8000
77.0200,82.8000
77.0200,83.8247
76.9437,83.7807
76.8292,83.7500
76.7108,83.7500
76.5963,83.7807
76.5200,83.8247
76.5200,82.8000
75.8222,82.8000
75.7626,82.8064
75.7626,82.8064
75.6279,82.8566
75.6279,82.8566
75.5128,82.9428
75.5128,82.9428
75.4266,83.0579
75.4266,83.0579
75.3968,83.1380
75.3549,83.1939
75.2894,83.2183
75.2212,83.2035
75.1929,83.1823
75.1424,83.1318
75.1424,83.1318
74.9640,83.0022
74.9640,83.0022
74.9640,83.0022
74.8746,82.9566
74.7676,82.9021
74.7676,82.9021
74.5580,82.8340
74.4491,82.8167
74.3402,82.7995
74.1198,82.7995
74.1198,82.7995
73.9846,82.8209
73.9153,82.8120
73.8775,82.7861
71.2030,80.1117
71.1696,80.0504
71.1745,79.9807
71.2164,79.9247
71.2819,79.9003
71.2907,79.9000
71.4900,79.9000
71.4900,78.8753
71.5663,78.9193
71.6808,78.9500
71.7992,78.9500
71.9137,78.9193
71.9900,78.8753
71.9900,79.9000
72.6878,79.9000
72.6878,79.9000
72.7474,79.8936
72.7474,79.8936
72.8821,79.8434
72.8821,79.8434
72.9972,79.7572
72.9972,79.7572
73.0833,79.6421
73.0834,79.6421
73.1336,79.5074
73.1336,79.5074
73.1400,79.4478
73.1400,79.4478
73.1400,78.7500
72.1153,78.7500
72.1593,78.6737
72.1900,78.5592
72.1900,78.4408
72.1593,78.3263
72.1153,78.2500
73.1400,78.2500
73.1400,77.5522
73.1400,77.5522
73.1336,77.4926
73.1336,77.4926
73.0834,77.3579
73.0833,77.3579
72.9972,77.2428
72.9972,77.2428
72.8821,77.1566
72.8821,77.1566
72.7474,77.1064
72.7474,77.1064
72.6878,77.1000
71.9900,77.1000
71.9900,78.1247
71.9137,78.0807
71.7992,78.0500
71.6808,78.0500
71.5663,78.0807
71.4900,78.1247
71.4900,77.1000
70.7922,77.1000
70.7326,77.1064
70.7326,77.1064
70.5979,77.1566
70.5979,77.1566
70.4828,77.2428
70.4828,77.2428
70.3966,77.3579
70.3966,77.3579
70.3668,77.4380
70.3249,77.4939
70.2594,77.5183
70.1912,77.5035
70.1629,77.4823
70.1124,77.4318
70.0758,77.4052
69.9707,77.3288
69.9280,77.2735
69.9220,77.2527
69.9217,77.2511
69.9126,77.2292
69.8651,77.1145
69.8651,77.1145
69.7830,76.9916
69.7830,76.9916
69.6784,76.8870
68.4527,75.6614
67.2030,74.4117
67.1696,74.3504
67.1745,74.2807
67.2164,74.2247
67.2819,74.2003
67.2907,74.2000
68.0178,74.2000
68.0178,74.2000
68.0774,74.1936
68.0774,74.1936
68.2121,74.1434
68.2121,74.1433
68.3272,74.0572
68.3272,74.0572
68.4133,73.9421
68.4134,73.9421
68.4636,73.8074
68.4636,73.8074
68.4700,73.7478
68.4700,73.7478
68.4700,73.0500
67.4453,73.0500
67.4893,72.9737
67.5200,72.8592
67.5200,72.7408
67.4893,72.6263
67.4453,72.5500
68.4700,72.5500
68.4700,71.8522
68.4700,71.8522
68.4636,71.7926
68.4636,71.7926
68.4134,71.6579
68.4133,71.6579
68.3272,71.5428
68.3272,71.5428
68.2121,71.4566
68.2121,71.4566
68.0774,71.4064
68.0774,71.4064
68.0178,71.4000
67.3200,71.4000
67.3200,72.4247
67.2437,72.3807
67.1292,72.3500
67.0108,72.3500
66.8963,72.3807
66.8200,72.4247
66.8200,71.4000
66.1222,71.4000
66.0626,71.4064
66.0626,71.4064
65.9279,71.4566
65.9279,71.4566
65.8128,71.5428
65.8128,71.5428
65.7266,71.6579
65.7266,71.6579
65.6968,71.7380
65.6795,71.7611
65.6646,71.7859
65.6588,71.7887
65.6549,71.7939
65.6278,71.8040
65.6019,71.8168
65.5955,71.8161
65.5894,71.8183
65.5612,71.8122
65.5325,71.8089
65.5259,71.8045
65.5212,71.8035
65.5022,71.7907
65.4974,71.7868
65.4424,71.7318
65.3288,71.6493
65.3261,71.6471
65.3083,71.6210
65.2889,71.5960
65.2881,71.5917
65.2866,71.5894
65.2864,71.5824
65.2805,71.5510
65.2805,68.0561
65.2517,67.9111
65.2517,67.9111
65.2517,67.9111
65.2392,67.8811
65.1938,67.7715
65.1864,67.7020
65.2176,67.6395
65.2777,67.6039
65.3084,67.6000
66.0878,67.6000
66.0878,67.6000
66.1474,67.5936
66.1474,67.5936
66.2821,67.5434
66.2821,67.5434
66.3972,67.4572
66.3972,67.4572
66.4834,67.3421
66.4834,67.3421
66.5336,67.2074
66.5336,67.2074
66.5400,67.1478
66.5400,67.1478
66.5400,66.4500
65.5153,66.4500
65.5593,66.3737
65.5900,66.2592
65.5900,66.1408
65.5593,66.0263
65.5153,65.9500
66.5400,65.9500
66.5400,65.2522
66.5400,65.2522
66.5336,65.1926
66.5336,65.1926
66.4834,65.0579
66.4834,65.0579
66.3972,64.9428
66.3972,64.9428
66.2821,64.8566
66.2821,64.8566
66.1474,64.8064
66.1474,64.8064
66.0878,64.8000
65.3900,64.8000
65.3900,65.8247
65.3137,65.7807
65.1992,65.7500
65.0808,65.7500
64.9663,65.7807
64.8900,65.8247
64.8900,64.8000
64.4745,64.8000
64.4075,64.7803
64.3617,64.7275
64.3505,64.6760
64.3505,60.0490
64.3510,60.0472
64.3506,60.0453
64.3608,60.0138
64.3702,59.9820
64.3718,59.9802
64.3722,59.9789
64.3808,59.9701
64.3961,59.9529
64.3988,59.9507
64.5124,59.8682
64.5674,59.8132
64.5722,59.8093
64.5989,59.7981
64.6242,59.7842
64.6307,59.7847
64.6366,59.7822
64.6651,59.7871
64.6939,59.7892
64.6991,59.7930
64.7054,59.7941
64.7267,59.8137
64.7499,59.8311
64.7542,59.8390
64.7569,59.8415
64.7581,59.8461
64.7668,59.8620
64.7966,59.9421
64.7966,59.9421
64.8828,60.0572
64.8828,60.0572
64.9979,60.1433
64.9979,60.1434
65.1326,60.1936
65.1326,60.1936
65.1922,60.2000
65.1922,60.2000
65.8900,60.2000
65.8900,59.1753
65.9663,59.2193
66.0808,59.2500
66.1992,59.2500
66.3137,59.2193
66.3900,59.1753
66.3900,60.2000
67.0878,60.2000
67.0878,60.2000
67.1474,60.1936
67.1474,60.1936
67.2821,60.1434
67.2821,60.1433
67.3972,60.0572
67.3972,60.0572
67.4834,59.9421
67.4834,59.9421
67.5336,59.8074
67.5336,59.8074
67.5378,59.7682
67.5378,59.7682
67.5400,59.7478
67.5400,59.7478
67.5400,59.0500
66.5153,59.0500
66.5593,58.9737
66.5900,58.8592
66.5900,58.7408
66.5593,58.6263
66.5153,58.5500
67.5400,58.5500
67.5400,57.8522
67.5400,57.8522
67.5336,57.7926
67.5336,57.7926
67.4834,57.6579
67.4834,57.6579
67.3972,57.5428
67.3972,57.5428
67.2821,57.4566
67.2821,57.4566
67.1474,57.4064
67.1474,57.4064
67.0878,57.4000
66.3607,57.4000
66.2937,57.3803
66.2479,57.3275
66.2380,57.2584
66.2670,57.1948
66.2730,57.1883
66.5730,56.8883
68.6830,54.7784
68.7322,54.7047
68.7651,54.6555
68.8217,54.5189
68.8383,54.4355
68.8500,54.4131
68.8579,54.3891
68.8678,54.3790
68.8706,54.3735
68.8819,54.3632
68.8844,54.3612
69.0124,54.2682
69.0676,54.2131
69.0726,54.2090
69.0991,54.1979
69.1242,54.1842
69.1309,54.1847
69.1371,54.1821
69.1653,54.1871
69.1939,54.1892
69.1993,54.1932
69.2059,54.1944
69.2269,54.2139
69.2499,54.2311
69.2544,54.2394
69.2571,54.2419
69.2583,54.2465
69.2668,54.2620
69.2966,54.3421
69.2966,54.3421
69.3828,54.4572
69.3828,54.4572
69.4979,54.5433
69.4979,54.5434
69.6326,54.5936
69.6326,54.5936
69.6922,54.6000
69.6922,54.6000
70.3900,54.6000
70.3900,53.5753
70.4663,53.6193
70.5808,53.6500
70.6992,53.6500
70.8137,53.6193
70.8900,53.5753
70.8900,54.6000
71.5878,54.6000
71.5878,54.6000
71.6474,54.5936
71.6474,54.5936
71.7821,54.5434
71.7821,54.5433
71.8972,54.4572
71.8972,54.4572
71.9834,54.3421
71.9834,54.3421
72.0336,54.2074
72.0336,54.2074
72.0400,54.1478
72.0400,54.1478
72.0400,53.4500
71.0153,53.4500
71.0593,53.3737
71.0900,53.2592
71.0900,53.1408
71.0593,53.0263
71.0153,52.9500
72.0400,52.9500
72.0400,52.3745
72.0597,52.3075
72.1125,52.2617
72.1640,52.2505
73.4810,52.2505
73.5480,52.2702
73.5813,52.3016
73.5930,52.3177
73.6618,52.4124
73.8176,52.5682
73.8176,52.5682
73.9522,52.6660
73.9960,52.6978
74.0803,52.7408
74.1924,52.7979
74.1924,52.7979
74.2972,52.8320
74.4020,52.8660
74.6198,52.9005
74.6198,52.9005
74.8402,52.9005
74.8402,52.9005
75.0580,52.8660
75.2676,52.7979
75.4640,52.6978
75.6424,52.5682
75.6929,52.5177
75.7542,52.4842
75.8239,52.4892
75.8799,52.5311
75.8968,52.5620
75.9266,52.6421
75.9266,52.6421
76.0128,52.7572
76.0128,52.7572
76.1279,52.8434
76.1279,52.8434
76.2626,52.8936
76.2626,52.8936
76.3222,52.9000
76.3222,52.9000
77.0200,52.9000
77.0200,51.8753
77.0963,51.9193
77.2108,51.9500
77.3292,51.9500
77.4437,51.9193
77.5200,51.8753
77.5200,52.9000
78.2178,52.9000
78.2178,52.9000
78.2774,52.8936
78.2774,52.8936
78.4121,52.8434
78.4121,52.8434
78.5272,52.7572
78.5272,52.7572
78.6133,52.6421
78.6134,52.6421
78.6636,52.5074
78.6636,52.5074
78.6700,52.4478
78.6700,52.4478
78.6700,51.7500
77.6453,51.7500
77.6893,51.6737
77.7200,51.5592
77.7200,51.4408
77.6893,51.3263
77.6453,51.2500
78.6700,51.2500
78.6700,51.0235
78.6897,50.9565
78.7425,50.9107
78.7940,50.8995
80.7268,50.8995
80.7938,50.9192
80.8145,50.9358
81.5861,51.7075
81.6196,51.7688
81.6209,51.8146
81.5995,51.9498
81.5995,51.9498
81.5995,52.1702
81.6153,52.2702
81.6340,52.3880
81.7021,52.5976
81.7021,52.5976
81.7701,52.7311
81.7954,52.7807
81.8022,52.7940
81.9318,52.9724
81.9318,52.9724
81.9823,53.0229
82.0158,53.0842
82.0108,53.1539
81.9689,53.2099
81.9380,53.2268
81.8579,53.2566
81.8579,53.2566
81.7428,53.3428
81.7428,53.3428
81.6566,53.4579
81.6566,53.4579
81.6064,53.5926
81.6064,53.5926
81.6000,53.6522
81.6000,54.3500
82.6247,54.3500
82.5807,54.4263
82.5500,54.5408
82.5500,54.6592
82.5807,54.7737
82.6247,54.8500
81.6000,54.8500
81.6000,55.5478
81.6064,55.6074
81.6064,55.6074
81.6566,55.7421
81.6566,55.7421
81.7428,55.8572
81.7428,55.8572
81.8579,55.9433
81.8579,55.9434
81.9926,55.9936
81.9926,55.9936
82.0522,56.0000
82.0522,56.0000
82.7500,56.0000
82.7500,54.9753
82.8263,55.0193
82.9408,55.0500
83.0592,55.0500
83.1737,55.0193
83.2500,54.9753
83.2500,56.0000
83.9478,56.0000
83.9478,56.0000
84.0074,55.9936
84.0074,55.9936
84.1421,55.9434
84.1421,55.9433
84.2572,55.8572
84.2572,55.8572
84.3434,55.7421
84.3434,55.7421
84.3936,55.6074
84.3936,55.6074
84.4000,55.5478
84.4000,55.5478
84.4000,54.8207
84.4197,54.7537
84.4725,54.7079
84.5416,54.6980
84.6052,54.7270
84.6117,54.7330
85.4265,55.5478
86.7893,56.9107
86.8228,56.9720
86.8178,57.0417
86.7759,57.0976
86.7745,57.0986
86.6876,57.1618
86.6876,57.1618
86.6876,57.1618
86.5318,57.3176
86.5318,57.3176
86.4022,57.4960
86.3021,57.6924
86.3021,57.6924
86.2340,57.9020
86.1995,58.1198
86.1995,58.3402
86.2340,58.5580
86.3021,58.7676
86.3021,58.7676
86.3563,58.8739
86.3950,58.9500
86.4022,58.9640
86.5318,59.1424
86.5318,59.1424
86.5823,59.1929
86.6158,59.2542
86.6108,59.3239
86.5689,59.3799
86.5380,59.3968
86.4579,59.4266
86.4579,59.4266
86.3428,59.5128
86.3428,59.5128
86.2566,59.6279
86.2566,59.6279
86.2064,59.7626
86.2064,59.7626
86.2000,59.8222
86.2000,60.5200
87.2247,60.5200
87.1807,60.5963
87.1500,60.7108
87.1500,60.8292
87.1807,60.9437
87.2247,61.0200
86.2000,61.0200
86.2000,61.5255
86.1803,61.5925
86.1275,61.6383
86.0760,61.6495
81.0622,61.6495
80.9952,61.6298
80.9745,61.6132
78.2784,58.9171
78.2784,58.9170
78.2047,58.8678
78.2047,58.8678
78.1555,58.8349
78.0189,58.7783
78.0189,58.7783
77.8739,58.7495
77.8739,58.7495
75.3261,58.7495
75.3261,58.7495
75.2972,58.7552
75.2972,58.7552
75.1811,58.7783
75.1811,58.7783
75.1011,58.8115
75.1011,58.8115
75.0445,58.8349
74.9861,58.8739
74.9216,58.9170
74.2420,59.5966
74.1807,59.6301
74.1110,59.6251
74.0551,59.5832
74.0346,59.5410
74.0327,59.5340
73.9852,59.3569
73.9014,59.1546
73.8944,59.1424
73.7919,58.9649
73.6586,58.7912
73.6586,58.7912
73.5038,58.6364
73.5038,58.6364
73.3301,58.5030
73.1404,58.3936
73.1404,58.3936
73.1404,58.3936
72.9381,58.3098
72.9381,58.3098
72.9381,58.3098
72.8324,58.2814
72.7266,58.2531
72.6903,58.2483
72.5095,58.2245
72.5095,58.2245
72.2905,58.2245
72.2905,58.2245
72.0839,58.2517
72.0734,58.2531
72.0387,58.2624
71.8619,58.3098
71.7647,58.3500
71.6596,58.3936
71.6596,58.3936
71.6596,58.3936
71.4699,58.5030
71.2962,58.6364
71.2962,58.6364
71.1414,58.7912
71.1414,58.7912
71.0080,58.9649
70.8986,59.1546
70.8986,59.1546
70.8986,59.1546
70.8717,59.2193
70.8148,59.3569
70.7581,59.5684
70.7581,59.5684
70.7295,59.7855
70.7295,60.0045
70.7406,60.0891
70.7581,60.2216
70.7808,60.3062
70.8119,60.4223
70.8148,60.4331
70.8986,60.6354
70.8986,60.6354
70.8986,60.6354
71.0080,60.8251
71.1414,60.9988
71.1414,60.9988
71.2962,61.1536
71.2962,61.1536
71.4699,61.2869
71.6596,61.3964
71.6596,61.3964
71.6596,61.3964
71.8619,61.4802
72.0734,61.5369
72.2905,61.5655
72.2905,61.5655
72.5095,61.5655
72.5095,61.5655
72.7266,61.5369
72.9381,61.4802
73.1404,61.3964
73.1635,61.3831
73.2314,61.3666
73.2974,61.3895
73.3406,61.4444
73.3495,61.4905
73.3495,63.2995
73.3298,63.3665
73.2770,63.4123
73.2079,63.4222
73.1635,63.4069
73.1404,63.3936
73.1404,63.3936
72.9381,63.3098
72.9381,63.3098
72.9381,63.3098
72.8324,63.2814
72.7266,63.2531
72.6903,63.2483
72.5095,63.2245
72.5095,63.2245
72.2905,63.2245
72.2905,63.2245
72.0839,63.2517
72.0734,63.2531
72.0287,63.2651
71.8619,63.3098
71.7434,63.3588
71.6596,63.3936
71.6596,63.3936
71.6596,63.3936
71.4699,63.5030
71.2962,63.6364
71.2962,63.6364
71.1414,63.7912
71.1414,63.7912
71.0080,63.9649
70.8986,64.1546
70.8986,64.1546
70.8148,64.3569
70.7581,64.5684
70.7581,64.5684
70.7295,64.7855
70.7295,65.0045
70.7519,65.1750
70.7581,65.2216
70.7758,65.2876
70.8117,65.4219
70.8148,65.4331
70.8986,65.6354
70.8986,65.6354
70.8986,65.6354
71.0080,65.8251
71.1414,65.9988
71.1414,65.9988
71.2962,66.1536
71.2962,66.1536
71.4699,66.2869
71.6596,66.3964
71.6596,66.3964
71.6596,66.3964
71.8619,66.4802
72.0734,66.5369
72.2905,66.5655
72.2905,66.5655
72.5095,66.5655
72.5095,66.5655
72.7266,66.5369
72.8577,66.5018
72.9276,66.5034
72.9775,66.5339
77.4932,71.0495
77.5267,71.1109
77.5295,71.1372
77.5295,75.6014
77.5098,75.6684
77.4932,75.6891
77.3643,75.8179
77.2532,75.9708
77.1675,76.1392
77.1091,76.3189
77.0795,76.5055
77.0795,76.6945
77.1091,76.8811
77.1675,77.0608
77.2343,77.1920
77.2532,77.2292
77.3643,77.3821
77.4979,77.5157
77.6508,77.6268
77.7041,77.6539
77.8192,77.7125
77.8192,77.7125
77.8192,77.7125
77.9131,77.7431
77.9989,77.7709
78.1855,77.8005
78.1855,77.8005
78.3745,77.8005
78.5611,77.7709
78.5764,77.7660
78.7408,77.7125
78.9092,77.6268
79.0621,77.5157
79.1957,77.3821
79.2252,77.3415
79.2805,77.2988
79.3501,77.2928
79.4119,77.3254
79.4463,77.3863
79.4495,77.4144
79.4495,80.2739
79.4495,80.2739
79.4495,80.2739
79.4783,80.4189
79.4783,80.4189
79.5349,80.5555
79.5678,80.6047
79.5678,80.6047
79.6170,80.6784
79.6171,80.6784
82.1466,83.2080
82.1466,83.2080
82.1761,83.2276
82.2203,83.2572
82.2695,83.2901
82.2695,83.2901
82.2695,83.2901
82.2695,83.2901
82.3316,83.3158
82.4061,83.3467
82.4061,83.3467
82.4061,83.3467
82.5511,83.3755
82.5511,83.3755
82.5511,83.3755
82.6989,83.3755
85.9255,83.3755
85.9925,83.3952
86.0383,83.4480
86.0495,83.4995
86.0495,83.5229
86.0559,83.5825
86.1062,83.7173
86.1062,83.7173
86.1925,83.8325
86.1925,83.8325
86.3077,83.9188
86.3077,83.9188
86.3208,83.9237
86.4425,83.9691
86.5021,83.9755
86.5127,83.9755
86.5797,83.9952
86.6004,84.0118
87.2706,84.6820
87.2070,84.6991
87.0930,84.7649
86.9999,84.8580
86.9341,84.9720
86.9170,85.0356
86.2847,84.4033
86.2847,84.4033
86.2454,84.4574
86.1489,84.6468
86.0832,84.8489
86.0832,84.8489
86.0500,85.0588
86.0500,85.2712
86.0832,85.4811
86.0832,85.4811
86.1489,85.6832
86.2454,85.8725
86.2847,85.9267
86.9170,85.2944
86.9341,85.3580
86.9999,85.4720
87.0930,85.5651
87.2070,85.6309
87.2706,85.6480
86.6383,86.2803
86.6383,86.2803
86.6924,86.3196
86.8818,86.4161
87.0839,86.4818
87.2938,86.5150
87.5062,86.5150
87.7161,86.4818
87.7161,86.4818
87.9182,86.4161
88.1076,86.3196
88.1617,86.2803
88.1617,86.2803
87.5294,85.6480
87.5930,85.6309
87.7070,85.5651
87.8001,85.4720
87.8659,85.3580
87.8830,85.2944
88.5153,85.9267
88.5153,85.9267
88.5546,85.8726
88.6511,85.6832
88.7168,85.4811
88.7168,85.4811
88.7500,85.2712
88.7500,85.0588
88.7168,84.8489
88.7168,84.8489
88.6511,84.6468
88.5546,84.4574
88.5153,84.4033
88.5153,84.4033
87.8830,85.0356
87.8659,84.9720
87.8001,84.8580
87.7070,84.7649
87.5930,84.6991
87.5294,84.6820
88.1996,84.0118
88.2609,83.9783
88.2873,83.9755
88.2979,83.9755
88.3575,83.9691
88.4923,83.9188
88.6075,83.8325
88.6938,83.7173
88.7441,83.5825
88.7505,83.5229
88.7505,81.7271
88.7441,81.6675
88.6938,81.5327
88.6938,81.5327
88.6938,81.5327
88.6075,81.4175
88.6075,81.4175
88.4923,81.3312
88.4923,81.3312
88.3575,81.2809
88.3575,81.2809
88.2979,81.2745
88.2979,81.2745
88.2979,81.2745
88.2979,81.2745
86.5021,81.2745
86.5021,81.2745
86.4425,81.2809
86.3077,81.3312
86.3077,81.3312
86.1925,81.4175
86.1925,81.4175
86.1062,81.5327
86.1062,81.5327
86.0559,81.6675
86.0495,81.7271
86.0495,81.7271
86.0495,81.7271
86.0495,81.7505
86.0298,81.8175
85.9770,81.8633
85.9255,81.8745
82.9872,81.8745
82.9202,81.8548
82.8995,81.8382
80.9868,79.9255
80.9533,79.8641
80.9505,79.8378
80.9505,66.2111
80.9217,66.0661
80.9217,66.0661
80.9217,66.0661
80.8934,65.9978
80.8651,65.9295
80.8651,65.9295
80.7830,65.8066
80.7533,65.7770
80.7235,65.7472
80.6901,65.6859
80.6950,65.6162
80.7369,65.5602
80.8024,65.5358
80.8112,65.5355
82.8646,65.5355
82.9316,65.5552
82.9649,65.5866
82.9980,65.6322
82.9980,65.6322
83.1428,65.7770
83.2977,65.8896
83.3084,65.8973
83.3937,65.9408
83.4908,65.9902
83.4908,65.9902
83.4908,65.9902
83.5951,66.0241
83.6855,66.0535
83.7696,66.0668
83.8876,66.0855
83.8876,66.0855
84.0923,66.0855
84.0924,66.0855
84.1480,66.0767
84.2173,66.0856
84.2551,66.1115
89.0377,70.8941
89.0712,70.9554
89.0662,71.0251
89.0243,71.0810
88.9694,71.1042
88.7655,71.1365
88.5708,71.1998
88.3884,71.2927
88.2228,71.4130
88.0780,71.5578
87.9577,71.7234
87.9105,71.8161
87.8625,71.8669
87.7947,71.8837
87.7286,71.8611
87.6895,71.8161
87.6776,71.7926
87.6423,71.7234
87.6020,71.6680
87.5220,71.5578
87.3772,71.4130
87.2116,71.2927
87.2116,71.2927
87.2116,71.2927
87.1256,71.2489
87.0292,71.1998
86.8345,71.1365
86.6600,71.1089
86.6324,71.1045
86.4276,71.1045
86.4033,71.1084
86.2255,71.1365
86.0308,71.1998
85.8484,71.2927
85.6828,71.4130
85.5380,71.5578
85.4696,71.6519
85.4143,71.6946
85.3447,71.7006
85.2829,71.6680
85.2516,71.6181
85.2244,71.5359
85.2244,71.5359
85.1323,71.3867
85.0083,71.2627
84.8591,71.1706
84.8591,71.1706
84.6927,71.1155
84.6927,71.1155
84.5900,71.1050
84.2400,71.1050
84.2400,72.0893
84.2356,72.0849
84.1444,72.0323
84.0427,72.0050
83.9373,72.0050
83.8356,72.0323
83.7444,72.0849
83.7400,72.0893
83.7400,71.1050
83.3900,71.1050
83.3900,71.1050
83.2873,71.1155
83.1209,71.1706
83.1209,71.1706
82.9717,71.2627
82.8477,71.3867
82.7556,71.5359
82.7556,71.5359
82.7005,71.7023
82.7005,71.7023
82.6900,71.8050
82.6900,72.1550
83.6743,72.1550
83.6699,72.1594
83.6173,72.2506
83.5900,72.3523
83.5900,72.4577
83.6173,72.5594
83.6699,72.6506
83.6743,72.6550
82.6900,72.6550
82.6900,73.0050
82.7005,73.1077
82.7556,73.2741
82.7556,73.2741
82.8477,73.4233
82.9717,73.5473
83.1209,73.6394
83.1209,73.6394
83.2873,73.6945
83.2873,73.6945
83.3900,73.7050
83.7400,73.7050
83.7400,73.7050
83.7400,72.7207
83.7444,72.7251
83.8356,72.7777
83.9373,72.8050
84.0427,72.8050
84.1444,72.7777
84.2356,72.7251
84.2400,72.7207
84.2400,73.7050
84.2424,73.7074
84.3013,73.7247
84.3471,73.7775
84.3570,73.8466
84.3280,73.9102
84.3220,73.9167
82.3170,75.9216
82.2842,75.9708
82.2842,75.9708
82.2349,76.0445
82.1783,76.1811
82.1783,76.1811
82.1495,76.3261
82.1495,76.3261
82.1495,77.9739
82.1495,77.9739
82.1495,77.9739
82.1783,78.1189
82.1783,78.1189
82.2349,78.2555
82.2349,78.2555
82.2349,78.2555
82.2516,78.2805
82.3128,78.3720
82.3171,78.3784
82.3171,78.3784
83.3170,79.3784
83.3727,79.4340
83.4216,79.4830
83.5445,79.5651
83.5445,79.5651
83.5876,79.5829
83.5938,79.5855
83.6811,79.6217
83.7972,79.6448
83.8201,79.6493
83.8261,79.6505
83.8261,79.6505
91.7739,79.6505
91.8715,79.6311
91.9189,79.6217
92.0479,79.5682
92.0555,79.5651
92.0555,79.5651
92.0555,79.5651
92.1147,79.5255
92.1147,79.5255
92.1147,79.5255
92.1466,79.5042
92.1784,79.4830
92.6334,79.0280
92.8504,78.8110
93.4114,78.2500
94.1349,77.5265
94.1962,77.4930
94.2420,77.4917
94.2976,77.5005
94.2976,77.5005
94.5024,77.5005
94.5024,77.5005
94.7045,77.4685
94.8992,77.4052
95.0816,77.3123
95.1960,77.2292
95.2472,77.1920
95.2472,77.1920
95.2472,77.1920
95.3920,77.0472
95.3920,77.0472
95.3920,77.0472
95.4801,76.9259
95.5123,76.8816
95.5398,76.8276
95.5878,76.7768
95.6556,76.7600
95.7217,76.7826
95.7608,76.8276
95.7881,76.8813
95.7881,76.8814
95.8205,76.9259
95.8205,76.9259
96.5000,76.2464
96.5000,76.2527
96.5273,76.3544
96.5799,76.4456
96.6544,76.5201
96.7456,76.5727
96.8473,76.6000
96.8536,76.6000
96.1741,77.2795
96.2186,77.3119
96.4010,77.4048
96.5956,77.4680
96.7977,77.5000
97.0023,77.5000
97.2044,77.4680
97.3990,77.4048
97.5813,77.3119
97.6259,77.2795
96.9464,76.6000
96.9527,76.6000
97.0544,76.5727
97.1456,76.5201
97.2201,76.4456
97.2727,76.3544
97.3000,76.2527
97.3000,76.2464
97.9795,76.9259
98.0119,76.8813
98.1048,76.6990
98.1680,76.5044
98.2000,76.3023
98.2000,76.0977
98.1680,75.8956
98.1048,75.7010
98.0119,75.5186
97.9795,75.4741
97.9795,75.4741
97.3000,76.1536
97.3000,76.1473
97.2727,76.0456
97.2201,75.9544
97.1456,75.8799
97.0544,75.8273
96.9527,75.8000
96.9464,75.8000
97.6259,75.1205
97.6259,75.1205
97.5814,75.0881
97.5814,75.0881
97.3990,74.9952
97.2044,74.9320
97.0023,74.9000
96.7977,74.9000
96.5956,74.9320
96.4010,74.9952
96.2186,75.0881
96.1741,75.1205
96.1741,75.1205
96.8536,75.8000
96.8473,75.8000
96.7456,75.8273
96.6544,75.8799
96.5799,75.9544
96.5273,76.0456
96.5000,76.1473
96.5000,76.1536
95.8205,75.4741
95.8205,75.4741
95.7881,75.5186
95.7608,75.5724
95.7128,75.6232
95.6450,75.6400
95.5788,75.6174
95.5398,75.5724
95.5123,75.5184
95.3920,75.3528
95.2978,75.2587
95.2472,75.2080
95.1974,75.1718
95.1934,75.1684
95.1772,75.1433
95.1589,75.1196
95.1577,75.1130
95.1556,75.1097
95.1556,75.1015
95.1505,75.0746
95.1505,68.4622
95.1702,68.3952
95.1868,68.3745
96.3573,67.2040
97.5351,66.0263
97.5964,65.9928
97.6661,65.9978
97.7220,66.0396
97.7465,66.1051
97.7407,66.1523
97.7191,66.2189
97.7191,66.2189
97.6895,66.4055
97.6895,66.5945
97.7191,66.7811
97.7775,66.9608
97.8172,67.0389
97.8632,67.1292
97.9743,67.2821
98.1079,67.4157
98.2608,67.5268
98.2934,67.5434
98.4292,67.6125
98.4292,67.6125
98.4292,67.6125
98.5121,67.6395
98.6089,67.6709
98.7955,67.7005
98.7955,67.7005
98.9845,67.7005
99.1711,67.6709
99.2307,67.6516
99.3508,67.6125
99.5192,67.5268
99.6721,67.4157
99.8057,67.2821
99.9168,67.1292
100.0025,66.9608
100.0609,66.7811
100.0821,66.6472
100.0905,66.5945
100.0905,66.4055
100.0609,66.2189
100.0147,66.0767
100.0025,66.0392
100.0025,66.0392
100.0025,66.0392
99.9467,65.9295
99.9168,65.8708
99.8057,65.7179
99.6721,65.5843
99.6721,65.5843
99.6721,65.5843
99.6716,65.5840
99.6715,65.5838
99.6684,65.5811
99.6689,65.5805
99.6289,65.5286
99.6205,65.4837
99.6205,62.4761
99.6402,62.4091
99.6568,62.3885
99.6666,62.3787
99.7788,62.2108
99.7788,62.2108
99.7788,62.2108
99.8561,62.0241
99.8955,61.8260
99.8955,61.1740
99.8561,60.9759
99.7788,60.7892
99.7788,60.7892
99.7788,60.7892
99.6666,60.6213
99.5237,60.4784
99.3558,60.3662
99.3558,60.3662
99.1691,60.2889
99.1691,60.2889
98.9710,60.2495
98.9710,60.2495
98.7690,60.2495
98.7690,60.2495
98.5709,60.2889
98.5709,60.2889
98.3842,60.3662
98.3039,60.4199
98.2372,60.4408
98.1698,60.4223
98.1661,60.4199
98.0858,60.3662
97.8991,60.2889
97.8991,60.2889
97.7010,60.2495
97.7010,60.2495
97.4990,60.2495
97.4990,60.2495
97.3009,60.2889
97.3009,60.2889
97.2202,60.3223
97.1507,60.3298
97.1053,60.3100
97.1051,60.3105
97.1004,60.3079
97.0984,60.3070
97.0973,60.3062
97.0973,60.3062
97.0973,60.3062
96.9625,60.2559
96.9625,60.2559
96.9029,60.2495
96.9029,60.2495
96.9029,60.2495
96.9029,60.2495
95.7571,60.2495
95.7571,60.2495
95.6975,60.2559
95.5627,60.3062
95.5627,60.3062
95.4475,60.3925
95.4475,60.3925
95.3612,60.5077
95.3612,60.5077
95.3109,60.6425
95.3045,60.7021
95.3045,60.7021
95.3045,61.4128
95.2959,61.4422
95.2893,61.4722
95.2856,61.4772
95.2848,61.4798
95.2682,61.5004
95.1554,61.6132
95.0941,61.6467
95.0678,61.6495
89.1240,61.6495
89.0570,61.6298
89.0112,61.5770
89.0000,61.5255
89.0000,61.0200
87.9753,61.0200
88.0193,60.9437
88.0500,60.8292
88.0500,60.7108
88.0193,60.5963
87.9753,60.5200
89.0000,60.5200
89.0000,59.8222
89.0000,59.8222
88.9936,59.7626
88.9936,59.7626
88.9434,59.6279
88.9433,59.6279
88.8572,59.5128
88.8572,59.5128
88.7421,59.4266
88.7421,59.4266
88.6620,59.3968
88.6061,59.3549
88.5817,59.2894
88.5965,59.2212
88.6177,59.1929
88.6682,59.1424
88.7978,58.9640
88.8979,58.7676
88.9019,58.7552
88.9328,58.6603
88.9328,58.6603
88.9490,58.6102
88.9658,58.5587
94.7454,58.5587
104.7741,58.5587
104.7741,55.7436
94.7454,55.7436
94.7454,58.5587
88.9658,58.5587
88.9660,58.5580
89.0005,58.3402
89.0005,58.1198
88.9660,57.9020
88.9107,57.7318
88.8979,57.6924
88.8979,57.6924
88.8445,57.5876
88.7978,57.4960
88.7512,57.4318
88.6682,57.3176
88.6682,57.3176
88.5124,57.1618
88.5124,57.1618
88.4834,57.1407
88.4408,57.0854
88.4348,57.0158
88.4674,56.9540
88.4686,56.9528
90.5883,54.8330
90.6496,54.7996
90.7193,54.8045
90.7753,54.8464
90.7997,54.9119
90.8000,54.9207
90.8000,55.6478
90.8064,55.7074
90.8064,55.7074
90.8566,55.8421
90.8566,55.8421
90.9428,55.9572
90.9428,55.9572
91.0579,56.0433
91.0579,56.0434
91.1926,56.0936
91.1926,56.0936
91.2522,56.1000
91.2522,56.1000
91.9500,56.1000
91.9500,55.0753
92.0263,55.1193
92.1408,55.1500
92.2592,55.1500
92.3737,55.1193
92.4500,55.0753
92.4500,56.1000
93.1478,56.1000
93.1478,56.1000
93.2074,56.0936
93.2074,56.0936
93.3421,56.0434
93.3421,56.0433
93.4572,55.9572
93.4572,55.9572
93.5433,55.8421
93.5434,55.8421
93.5936,55.7074
93.5936,55.7074
93.5967,55.6790
93.5967,55.6790
93.6000,55.6478
93.6000,55.6478
93.6000,54.9500
92.5753,54.9500
92.6193,54.8737
92.6500,54.7592
92.6500,54.6408
92.6193,54.5263
92.5753,54.4500
93.6000,54.4500
93.6000,53.7522
93.6000,53.7522
93.5936,53.6926
93.5936,53.6926
93.5434,53.5579
93.5433,53.5579
93.4572,53.4428
93.4572,53.4428
93.3421,53.3566
93.3421,53.3566
93.2620,53.3268
93.2061,53.2849
93.1817,53.2194
93.1965,53.1512
93.2177,53.1229
93.2682,53.0724
93.3158,53.0070
93.3748,52.9258
93.3931,52.9005
93.3978,52.8940
93.4979,52.6976
93.5660,52.4880
93.6005,52.2702
93.6005,52.0498
93.5791,51.9146
93.5880,51.8453
93.6139,51.8075
94.6855,50.7358
94.7469,50.7023
94.7732,50.6995
96.3760,50.6995
Z" /> 
</g>
<g style="fill:#FFFFFF; fill-opacity:1.0000; stroke:none;">
<circle cx="112.5400" cy="66.0000" r="0.5000" /> 
</g>
<g style="fill:#FFFFFF; fill-opacity:1.0000; stroke:none;">
<circle cx="110.0000" cy="66.0000" r="0.4500" /> 
</g>
<g style="fill:#FFFFFF; fill-opacity:1.0000; stroke:none;">
<circle cx="66.1400" cy="58.8000" r="0.4500" /> 
</g>
<g style="fill:#FFFFFF; fill-opacity:1.0000; stroke:none;">
<circle cx="63.6000" cy="58.8000" r="0.4500" /> 
</g>
<g style="fill:#FFFFFF; fill-opacity:1.0000; stroke:none;">
<circle cx="85.9000" cy="76.6000" r="0.3500" /> 
</g>
<g style="fill:#FFFFFF; fill-opacity:1.0000; stroke:none;">
<circle cx="78.2800" cy="76.6000" r="0.3500" /> 
</g>
<g style="fill:#FFFFFF; fill-opacity:1.0000; stroke:none;">
<circle cx="65.1400" cy="66.2000" r="0.4500" /> 
</g>
<g style="fill:#FFFFFF; fill-opacity:1.0000; stroke:none;">
<circle cx="62.6000" cy="66.2000" r="0.4500" /> 
</g>
<g style="fill:#FFFFFF; fill-opacity:1.0000; stroke:none;">
<circle cx="71.7400" cy="78.5000" r="0.4500" /> 
</g>
<g style="fill:#FFFFFF; fill-opacity:1.0000; stroke:none;">
<circle cx="69.2000" cy="78.5000" r="0.4500" /> 
</g>
<g style="fill:#FFFFFF; fill-opacity:1.0000; stroke:none;">
<circle cx="94.4000" cy="76.2000" r="0.4000" /> 
</g>
<g style="fill:#FFFFFF; fill-opacity:1.0000; stroke:none;">
<circle cx="96.9000" cy="76.2000" r="0.4000" /> 
</g>
<g style="fill:#FFFFFF; fill-opacity:1.0000; stroke:none;">
<circle cx="67.0700" cy="72.8000" r="0.4500" /> 
</g>
<g style="fill:#FFFFFF; fill-opacity:1.0000; stroke:none;">
<circle cx="64.5300" cy="72.8000" r="0.4500" /> 
</g>
<g style="fill:#FFFFFF; fill-opacity:1.0000; stroke:none;">
<circle cx="92.3300" cy="88.6000" r="0.4500" /> 
</g>
<g style="fill:#FFFFFF; fill-opacity:1.0000; stroke:none;">
<circle cx="94.8700" cy="88.6000" r="0.4500" /> 
</g>
<g style="fill:#FFFFFF; fill-opacity:1.0000; stroke:none;">
<circle cx="76.7700" cy="84.2000" r="0.4500" /> 
</g>
<g style="fill:#FFFFFF; fill-opacity:1.0000; stroke:none;">
<circle cx="74.2300" cy="84.2000" r="0.4500" /> 
</g>
<g style="fill:#FFFFFF; fill-opacity:1.0000; stroke:none;">
<circle cx="82.8400" cy="88.7000" r="0.4500" /> 
</g>
<g style="fill:#FFFFFF; fill-opacity:1.0000; stroke:none;">
<circle cx="80.3000" cy="88.7000" r="0.4500" /> 
</g>
<g style="fill:#FFFFFF; fill-opacity:1.0000; stroke:none;">
<circle cx="109.0000" cy="58.5000" r="0.4500" /> 
</g>
<g style="fill:#FFFFFF; fill-opacity:1.0000; stroke:none;">
<circle cx="111.5400" cy="58.5000" r="0.4500" /> 
</g>
<g style="fill:#FFFFFF; fill-opacity:1.0000; stroke:none;">
<circle cx="96.3300" cy="61.5000" r="0.3750" /> 
</g>
<g style="fill:#FFFFFF; fill-opacity:1.0000; stroke:none;">
<circle cx="97.6000" cy="61.5000" r="0.3750" /> 
</g>
<g style="fill:#FFFFFF; fill-opacity:1.0000; stroke:none;">
<circle cx="98.8700" cy="61.5000" r="0.3750" /> 
</g>
<g style="fill:#FFFFFF; fill-opacity:1.0000; stroke:none;">
<circle cx="98.8900" cy="66.5000" r="0.3500" /> 
</g>
<g style="fill:#FFFFFF; fill-opacity:1.0000; stroke:none;">
<circle cx="106.5100" cy="66.5000" r="0.3500" /> 
</g>
<g style="fill:#FFFFFF; fill-opacity:1.0000; stroke:none;">
<circle cx="98.4300" cy="84.3000" r="0.4500" /> 
</g>
<g style="fill:#FFFFFF; fill-opacity:1.0000; stroke:none;">
<circle cx="100.9700" cy="84.3000" r="0.4500" /> 
</g>
<g style="fill:#FFFFFF; fill-opacity:1.0000; stroke:none;">
<circle cx="97.9000" cy="51.3000" r="0.4500" /> 
</g>
<g style="fill:#FFFFFF; fill-opacity:1.0000; stroke:none;">
<circle cx="100.4400" cy="51.3000" r="0.4500" /> 
</g>
<g style="fill:#FFFFFF; fill-opacity:1.0000; stroke:none;">
<circle cx="103.5000" cy="78.7000" r="0.4500" /> 
</g>
<g style="fill:#FFFFFF; fill-opacity:1.0000; stroke:none;">
<circle cx="106.0400" cy="78.7000" r="0.4500" /> 
</g>
<g style="fill:#FFFFFF; fill-opacity:1.0000; stroke:none;">
<circle cx="104.6000" cy="52.8000" r="0.4500" /> 
</g>
<g style="fill:#FFFFFF; fill-opacity:1.0000; stroke:none;">
<circle cx="107.1400" cy="52.8000" r="0.4500" /> 
</g>
<g style="fill:#FFFFFF; fill-opacity:1.0000; stroke:none;">
<circle cx="72.4000" cy="64.8950" r="0.6500" /> 
</g>
<g style="fill:#FFFFFF; fill-opacity:1.0000; stroke:none;">
<circle cx="77.4000" cy="62.3950" r="0.6500" /> 
</g>
<g style="fill:#FFFFFF; fill-opacity:1.0000; stroke:none;">
<circle cx="72.4000" cy="59.8950" r="0.6500" /> 
</g>
<g style="fill:#FFFFFF; fill-opacity:1.0000; stroke:none;">
<circle cx="87.6000" cy="91.9600" r="0.4500" /> 
</g>
<g style="fill:#FFFFFF; fill-opacity:1.0000; stroke:none;">
<circle cx="87.6000" cy="94.5000" r="0.4500" /> 
</g>
<g style="fill:#FFFFFF; fill-opacity:1.0000; stroke:none;">
<circle cx="87.6000" cy="60.7700" r="0.4500" /> 
</g>
<g style="fill:#FFFFFF; fill-opacity:1.0000; stroke:none;">
<circle cx="87.6000" cy="58.2300" r="0.4500" /> 
</g>
<g style="fill:#FFFFFF; fill-opacity:1.0000; stroke:none;">
<circle cx="83.0000" cy="54.6000" r="0.4500" /> 
</g>
<g style="fill:#FFFFFF; fill-opacity:1.0000; stroke:none;">
<circle cx="83.0000" cy="52.0600" r="0.4500" /> 
</g>
<g style="fill:#FFFFFF; fill-opacity:1.0000; stroke:none;">
<circle cx="77.2700" cy="51.5000" r="0.4500" /> 
</g>
<g style="fill:#FFFFFF; fill-opacity:1.0000; stroke:none;">
<circle cx="74.7300" cy="51.5000" r="0.4500" /> 
</g>
<g style="fill:#FFFFFF; fill-opacity:1.0000; stroke:none;">
<circle cx="108.1300" cy="72.9000" r="0.4500" /> 
</g>
<g style="fill:#FFFFFF; fill-opacity:1.0000; stroke:none;">
<circle cx="110.6700" cy="72.9000" r="0.4500" /> 
</g>
<g style="fill:#FFFFFF; fill-opacity:1.0000; stroke:none;">
<circle cx="70.6400" cy="53.2000" r="0.4500" /> 
</g>
<g style="fill:#FFFFFF; fill-opacity:1.0000; stroke:none;">
<circle cx="68.1000" cy="53.2000" r="0.4500" /> 
</g>
<g style="fill:#FFFFFF; fill-opacity:1.0000; stroke:none;">
<circle cx="87.4000" cy="82.6250" r="0.5000" /> 
</g>
<g style="fill:#FFFFFF; fill-opacity:1.0000; stroke:none;">
<circle cx="87.4000" cy="85.1650" r="0.5000" /> 
</g>
<g style="fill:#FFFFFF; fill-opacity:1.0000; stroke:none;">
<circle cx="92.2000" cy="54.7000" r="0.4500" /> 
</g>
<g style="fill:#FFFFFF; fill-opacity:1.0000; stroke:none;">
<circle cx="92.2000" cy="52.1600" r="0.4500" /> 
</g>
<g style="fill:#FFFFFF; fill-opacity:1.0000; stroke:none;">
<circle cx="83.9900" cy="72.4050" r="0.4000" /> 
</g>
<g style="fill:#FFFFFF; fill-opacity:1.0000; stroke:none;">
<circle cx="86.5300" cy="72.4050" r="0.4000" /> 
</g>
<g style="fill:#FFFFFF; fill-opacity:1.0000; stroke:none;">
<circle cx="89.0700" cy="72.4050" r="0.4000" /> 
</g>
<g style="fill:#FFFFFF; fill-opacity:1.0000; stroke:none;">
<circle cx="91.6100" cy="72.4050" r="0.4000" /> 
</g>
<g style="fill:#FFFFFF; fill-opacity:1.0000; stroke:none;">
<circle cx="91.6100" cy="64.7850" r="0.4000" /> 
</g>
<g style="fill:#FFFFFF; fill-opacity:1.0000; stroke:none;">
<circle cx="89.0700" cy="64.7850" r="0.4000" /> 
</g>
<g style="fill:#FFFFFF; fill-opacity:1.0000; stroke:none;">
<circle cx="86.5300" cy="64.7850" r="0.4000" /> 
</g>
<g style="fill:#FFFFFF; fill-opacity:1.0000; stroke:none;">
<circle cx="83.9900" cy="64.7850" r="0.4000" /> 
</g> 
</svg>
